<?xml version="1.0" encoding="UTF-8"?>
<svg xmlns="http://www.w3.org/2000/svg" width="934.52" height="520" viewBox="12.74 -2.5 934.52 520">
  <!-- Created using SVG Map Generator: dojo.amcharts.com/svg-map-generator -->
  <style>
    .land { fill: #ffffff; stroke: #000000; stroke-width: 0.5; }
  </style>
  <g id="polygons">
    <path d="M232.41,225.44L232.27,226.19L232.75,227.46L232.31,228.52L231.19,229.07L230.71,230.06L230.01,229.04L229.39,227.37L230.3,226.34L227.7,224.34L226.71,224.31L225.78,225.64L224,226.63L223.72,227.32L224.72,228.65L223.64,229.92L222.5,230.09L222.05,228.5L220.74,228.47L220.19,227.12L217.57,226.53L216.34,226.43L216.27,225.67L214.69,225.58L215.04,224.22L214.36,223.44L212.32,222.24L211.04,222.45L209.69,221.41L209.23,219.81L209.76,218.68L209.63,217.57L207.78,215.47L207.1,214.11L204.78,211.69L205.56,210.97L204.81,210.21L204.14,210.8L202.53,210.79L200.5,209.83L199.06,209.57L196.96,208.37L195.46,208.38L193.7,207.4L192.59,206.3L191.29,204.45L188.58,201.48L187.41,200.73L186.58,201L186.01,200.3L184.27,201.74L182.09,202.65L181.25,202.78L179.49,201.95L177.94,201.76L175.97,200.67L175.4,199.92L172.92,199.32L172.09,198.67L169.94,197.76L168.08,196.3L167.53,195.42L165.25,194.96L163.34,194.11L162.3,192.48L159.74,190.91L158.61,188.75L158.33,187.42L159.56,186.79L159.04,186.15L159.93,185.03L160.23,183.83L159.33,182.21L159.35,180.13L158.05,178.28L157.06,176.05L154.81,173.67L154.08,171.78L152.52,170.85L151.74,170.04L151.86,169.05L152.68,168.16L152.23,166.84L151.49,166.87L151.28,165.64L150.04,164.85L150.35,163.09L148.84,162.75L147.77,161.11L146.95,159.33L147.01,158.51L146.28,156.18L146.04,153.55L146.58,152.29L145.21,151.75L144.62,150.83L143.97,151.23L142.42,150.28L141.67,152.37L141.71,154.48L141.41,155.36L141.77,156.69L142.99,158.19L143.28,159.63L143.96,160.04L144.53,161.26L144.38,163.21L145.22,164.2L145.62,166.01L146.6,166.85L146.63,169.84L147.12,170.7L147.54,173.1L147.47,174.97L148.87,175.1L150.02,177.36L149.74,178.22L148.25,179.29L147.89,178.9L147.54,176.95L145.19,174.6L143.79,172.93L144.32,170.82L144.02,168.46L142.58,167.26L142.3,166.37L141.13,166.81L140.68,166.01L139.26,165.19L139.18,164.5L138.22,163.51L140.2,163.06L141.36,161.26L141.26,160.67L139.69,158.14L138.21,156.93L138.35,155.14L138.18,153.51L137.34,151.04L136.92,147.46L137.01,145.4L135.85,144.02L135,143.95L135.05,143.06L133.47,142.75L132.6,141.76L130.36,141.58L130.05,141.23L130.66,139.61L130.4,138.68L128.91,135.54L129.63,134.24L128.65,132.7L129.28,130.65L128.31,129.81L128.5,129.23L127.49,127.19L128.33,124.11L127.75,122.85L127.96,122.07L129.26,120.53L130.03,119.2L130.96,114.6L133.3,111.79L136.85,105.77L138.42,102.05L139.21,99.16L139.03,98.39L139.82,96.9L141.08,97.55L145.1,98.05L145.44,94.96L144.8,94.96L144.92,93.49L143.68,93.42L143.54,92.45L142.73,92.4L142.16,90.31L139.35,90.14L139.51,88.94L138.39,89.09L137.34,88.21L138.12,87.19L137.6,86.23L137.71,85.08L139.68,82.92L138.89,82.86L139.14,81.73L137.92,81.27L136.97,81.7L136.08,80.25L137.61,79L137.09,76.94L137.36,75.87L138.89,74.11L138.61,73.27L137.61,72.83L137.26,70.17L136.03,69.77L136.99,68.2L136.97,66.66L135.87,65.94L134.2,66.53L133.64,65.57L131.21,66.56L129.76,65.56L129.09,64.05L126.34,62.16L124.95,62.09L123.6,61.44L121,61.07L118.82,61.31L117.13,60.36L115.21,59.94L114.35,58.4L110.61,58.84L109.17,60.86L108.18,61.38L105.91,61.35L100.44,63.59L98.51,63.75L100.61,61.39L101.82,60.75L103.55,59.17L106.3,58.34L106.65,57.53L103.06,58.68L102.61,59.13L97.17,61.72L93.56,63.23L92.82,63.96L94.05,64.66L91.42,65.82L90.03,66.82L87.89,67.24L82.66,69.31L82.09,69.98L78.28,71.39L75.8,71.99L75.51,72.72L71.57,73.89L70.49,73.93L66.79,75.11L65.24,75.16L63.79,75.92L61.43,76.49L61.8,75.79L65.11,74.16L68.13,73.25L68.33,74L71.05,72.36L74.43,71.23L78.28,69.4L80.75,68.48L83.12,66.03L82.01,64.76L79.64,65.89L79.49,64.58L78.27,64.16L73.85,65.47L76.39,62.57L77.1,60.83L73.92,61.81L72.24,61.92L71.93,60.46L71.04,59.76L73.3,58.73L72.18,58.11L73.08,56.07L77.06,54.12L81.02,51.98L82.86,52.47L87.15,51.3L89.4,50.99L90.88,50.24L92.78,48.07L93.24,47.09L91.66,47.4L88.03,48.66L86.67,48.05L83.67,48.41L81.3,48.06L81.11,45.68L80.35,45.01L90.58,42.49L92.45,42.55L91.25,43.81L95.26,43.89L96.42,43.34L99.81,42.86L99.19,42.16L97.13,42.08L97.96,41.1L95.66,41.16L94.62,40.69L95.03,39.55L92.78,37.28L94.62,36.02L98.83,35.87L102.68,34.64L104.29,33.63L108.36,32.07L110.13,32.14L115.46,30.59L118.1,30.68L122.11,29.41L124.79,30L125.9,30.8L128.31,30.44L130.03,30.77L129.56,31.74L135.31,31.61L137.76,32.38L141.55,32.53L142.44,32.94L146.9,32.65L149.43,33.91L153.76,34.29L155.01,35.28L157.31,36L159.17,35.93L160.59,34.85L162.17,34.42L166.26,34.51L173.7,32.58L175.83,33.75L179.64,32.37L181,32.32L180.85,33.7L181.57,34.55L185.37,33L186.33,34.67L188.6,33.49L192.6,33.89L193.45,34.55L196.09,35L197.24,35.58L201.12,36.1L202.31,35.78L204.2,36.64L204.59,37.35L202.6,37.71L200.82,38.96L203.68,39.29L206.32,39.33L209.65,39.04L212.08,38.52L212.45,39.2L214.38,39.59L214.4,41.04L216.03,41.57L216.25,38.04L217.1,36.77L222.3,35.92L222.93,37.19L224.72,38.37L226.42,38.14L227.5,38.98L229.71,39.31L232.35,38.9L234.94,39.22L236.7,38.94L238.38,39.52L239.35,38.86L237.11,38.28L238.05,37.58L240.34,37.21L240.59,37.75L242.42,38.02L240.59,39.7L241.21,40.7L242.46,40.51L242.48,39.19L243.4,38.4L245.03,38.26L248.21,36.96L248.72,36.15L248.55,34.45L245.49,33.43L245.11,32.63L246.46,31.5L246.29,30.78L247.47,29.53L251.17,27.84L252.75,28.21L254.64,29.56L253.82,30.66L255.56,32.48L252.23,33.75L255.55,34.9L255.56,36.07L259.25,34.97L260.63,36.22L260.43,37.34L259.09,37.66L258.53,39.11L259.57,40.73L261.69,39.8L263.85,38.26L265.24,36.72L267.82,35.5L266.97,35.06L267.73,33.39L270.38,33.42L273.57,33.81L273.14,34.44L275.39,35.37L274.76,36.64L271.72,37.22L272.04,38.84L272.93,39.96L271.9,41.04L268.62,42.39L263.98,43.54L262.16,42.45L259.87,42.55L260.33,43.98L256.52,45.87L255.02,45.88L252.1,44.23L251.46,44.67L252.82,45.89L256.85,46.31L255.69,47.37L252.83,49.2L251.34,49.7L247.99,49.78L247.99,50.29L244.57,51.14L245.61,51.59L244.67,52.76L243.14,53.17L241.12,53.12L236.89,56.35L235.41,57.01L231.97,60.13L230.89,61.49L229.34,64.6L230.02,65.16L232.42,65.04L232.08,70.26L235.1,69.57L236.28,69.62L237.79,70.35L239.57,70.74L241.06,71.9L241.68,73.14L245.19,74.35L246.5,75.48L249.26,75.39L252.2,75.9L252.6,76.92L251.53,78.32L251.49,79.96L250.11,82.6L251.04,84.23L250.71,84.66L252.48,86.32L252.67,87.65L253.77,88.14L255.07,86.9L256.52,86.39L258.32,84.79L258.21,83.63L258.77,79.1L258.52,77.27L260.55,76.71L263.41,75.63L265.15,74.66L267.43,72.99L268.71,70.62L269.03,69.15L268.69,67.23L266.42,65.26L266.81,64.69L269.09,63.18L269.57,62.31L271.01,61.23L270.74,59.04L271.94,57.13L271.97,55.18L272.47,54.46L274.33,53.84L279.83,54.96L282.57,54.18L285.11,56.29L285.88,57.95L288.36,58.21L289.35,59.32L288.72,60.21L287.62,63.3L287.4,64.7L289.37,64.6L291.18,66.65L293.79,65.65L296.73,63.98L299.57,60.61L300.57,60.56L301.74,63.32L302.04,64.73L302.99,65.88L303.13,67.37L303.96,67.71L303.57,69.15L304.4,70.26L303.35,72.13L303.82,73.72L304.52,73.44L305.97,75.56L308.07,75.89L308.29,76.84L309.71,76.76L311.32,77.66L309.34,78.33L310.92,78.91L311.27,79.87L312.83,80.13L313.95,81.83L313.09,84.61L313.27,85.14L309.59,87.25L305.73,87.76L303.68,89.36L300.99,91L297.99,91.17L294.59,90.85L289.3,90.94L288.37,90.8L285.26,91.13L283.96,91.82L282.28,93.84L279.89,94.31L277.94,95.47L275.14,97.77L274.56,98.61L271.9,100.8L272.26,101.14L277.26,97.22L281.34,95.39L285.09,94.26L286.75,94.1L288.37,94.33L289.53,95.18L289.22,96.35L286.25,98.02L284.75,97.49L284.94,99.04L286.14,98.68L287.36,98.95L286.52,100.08L285.27,100.92L286.12,101.6L286.46,103.65L289.18,105.21L291.1,105.62L292.62,104.84L293.64,105.41L293.8,106.85L290.39,108.1L286.95,109.24L285.68,109.04L285.25,109.83L283.67,111.22L281.2,112.2L280.42,111.39L280.95,109.62L282.4,108.37L285.86,106.79L285.04,105.61L282.22,106.89L279.6,107.39L278.04,108.57L276.46,109.35L275.57,109.18L273.22,110.49L271.13,111.42L270.12,111.55L267.65,114.56L266.67,116.15L267.37,116.48L267.71,118.41L266.99,118.71L265.1,118.39L264.64,119.21L261.15,119.58L259.06,120.36L257.05,121.7L257.5,122.6L256.44,124.54L255.5,125.64L254.09,126.42L252.77,126.59L253.21,128.5L251.14,130.28L249.93,128.53L250.56,127.37L249.69,127.22L249.43,128.4L249.52,130.47L249.09,132.21L249.51,134.48L247.49,136.52L249.24,136.94L249.05,137.76L247.78,138.71L246.82,138.98L245.97,140.05L242.83,142.19L241.86,143.4L240.35,143.53L239.28,144.22L237.96,145.93L235.61,147.6L235.03,147.74L233.05,149.25L231.84,150.58L231.77,151.15L230.4,153.28L230.39,156.8L230.85,159.23L231.5,161.06L230.97,162.06L231.53,165.23L231.66,167.31L231.01,169.7L230.08,171.33L228.98,171.9L228.09,171.37L227.66,169.71L226.79,169.21L226.65,167.74L225.46,165.71L225.28,163.56L224.86,163.15L225.76,161.06L226.04,159.76L224.7,157.92L223.94,156.37L223.12,155.8L222.08,156.43L219.42,157.17L219.46,156.54L217.48,154.53L213.24,155.18L210.35,154.78L208.34,155.59L206.8,154.9L206.12,155.68L208.16,156.41L206.26,158.8L205.59,158.43L204.48,158.96L203.15,158.45L203.2,157.72L201.93,156.67L200.74,157.58L198.46,156.85L197.06,156.88L193.56,158.18L192.22,159.51L190.42,160.56L188.79,160.71L188.32,161.45L186.55,162.18L186.32,163.04L184.63,166.01L184.64,167.87L185.09,169.06L184.56,170.51L183.42,172.37L182.58,174.4L180.98,180.14L181,183.46L181.87,186.67L183.31,189.09L183.5,190.8L184.5,192.72L186.23,192.89L187.2,193.5L187.74,194.6L188.73,194.53L190.59,193.77L192.44,193.64L192.99,193.18L195.06,192.84L195.42,193.64L196.94,193.14L196.88,192.24L198.74,190.78L199.05,189.55L199.64,188.96L200.02,186.86L200.6,185.39L202.2,184.53L204.84,184.08L206.99,183.42L210.46,184.05L210.09,185.8L208.07,188.34L207.95,190.02L206.52,193.72L205.46,194.77L204.77,196.43L204.27,199.6L203.06,200.85L202.38,202.01L204.42,202.62L205.91,201.95L207.82,202.43L209.35,202.36L211.01,201.65L211.8,201.98L213.24,201.69L215.15,202.23L216.33,204.18L217.42,204.12L217.92,204.92L217.45,205.71L217.63,207.04L216.9,208.15L216.27,210.34L216.17,213.29L215.33,214.84L215.58,215.78L214.9,216.89L215.86,219.59L217.55,222.17L218.64,222.95L218.91,224.23L221.34,225.04L222.8,224.7L224.84,223.65L226.45,222.4L229.4,223.02L230.54,223.57ZM394.79,30.42L394.76,31.2L389.43,31.74L390.07,30.54ZM336.31,32.59L338.19,33.49L337.73,34.36L334.39,35L334.21,34.31L332.19,33.97L332.7,32.53L333.83,32.11ZM242.19,33.88L244.05,34.76L244.23,36.43L242.22,37.16L240.07,36.95L236.88,36.08L236.55,35.61L239.47,34.78L239.68,34.21ZM285.83,37.53L287.2,37.81L286.26,39.74L284.49,40.45L281.83,40.5L281.83,39.27L283.81,37.82ZM261.55,45.63L264.65,46.58L266.93,47.89L266.74,49.66L268.8,49.47L269.49,50.41L267.39,51.27L264.8,50.57L264.93,49.94L262.91,49.44L261.96,50.26L259.17,51.71L256.99,52.2L257.3,50.71L254.05,50.67L256.86,49.33L257.27,48.11L259.99,44.88L261.71,44.62ZM264.43,52.69L263.82,53.6L261.14,54.89L259.52,55.03L259.55,54.11L261.36,52.87ZM269.11,54.3L269.18,55.42L267.71,56.62L266.79,55.91L268.06,54.5ZM68.8,60.22L69.52,60.43L68.68,61.61L66.92,62.02L65.42,61.33L68.02,60.22ZM135.45,66.62L135.76,67.64L135.32,69.28L133.5,70.12ZM133.18,66.56L134.43,67.14L133.01,68.76L131.07,68.27L131.02,67ZM92.29,67.82L92.48,68.92L88.06,70.32L86.61,70.53L86.82,69.28L88.59,68.38L89.56,68.5ZM132.84,69.04L132.32,71.14L130.93,69.34ZM135.22,70.1L136.51,70.37L136.12,71.26L134.14,71.91ZM262.4,72.34L261.2,73.66L259.32,73.52L261.2,72.47ZM133.95,72.28L134.77,72.34L135.26,75.71L134.4,76.94L133.01,76.2L133.05,73.93L133.8,73.55ZM138.42,74.62L136.84,74.57L138.53,73.45ZM60.05,76.41L59.69,77.16L57.69,77.51L55.89,78.17L55.72,77.55L57.29,76.71L59.28,76.23ZM130.83,78.97L133.35,79.45L131.12,81.66L129.45,81.52L129.69,80.08ZM49.75,79.71L49.51,80.47L47.52,80.86L49.04,79.52ZM138.92,82.13L138.04,83.96L137.26,83.03ZM131.43,81.77L131.65,82.16L130.13,83.89L130.06,82.06ZM236.77,174.73L237.05,176.09L236.31,176.47L235.92,174.95ZM224.24,178.3L226.69,178.73L228.15,178.58L229.64,179.11L231.8,180.91L233.15,180.98L235.18,182.49L236.17,182.59L238.23,184.5L240.69,185.06L240.75,186.29L242.79,186.56L244.29,188.41L241.85,188.99L239.03,188.7L234.71,189.14L236.26,187.7L236.36,186.58L234.29,186.35L233.09,185.25L232.89,183.75L231.17,183.59L228.7,182.59L228.06,181.96L226.79,182L224.53,181.52L224.52,179.96L222.25,179.93L220.27,181.45L217.61,181.93L217.67,180.94L218.68,180L220.98,179.02ZM222.2,183.4L221.33,183.98L220.87,182.85L221.92,182.53ZM16.42,183.94L15.44,184.39L15.24,183.52L16.19,183.14ZM20.45,191.88L19.67,191.69L19.75,189.48L20.59,188.63L20.78,187.77L22.28,188.69L22.98,190.22ZM250.37,195.04L249.63,194.42L247.35,194.67L245.99,194.35L244.54,195.03L243.18,194.04L243.82,193.01L245.52,193.47L247.69,193.75L248.99,192.98L247.86,191.69L248.3,190.49L247.4,189.93L247.33,188.98L248.65,188.99L250.77,189.66L251.61,189.01L253.27,188.95L255.43,189.85L256.38,190.95L257.49,191.27L259.14,192.23L259.99,193.18L258.98,194.45L258.28,193.84L256,193.73L254.8,194.35L253.56,194.07L252.48,194.28L251.26,196.31ZM265.96,193.64L267.37,193.93L266.3,195.25L262.93,195.18L263.2,193.54ZM235.15,193.65L236.35,193.9L237.8,194.67L237.21,195.6L236.35,195.25L234.9,195.71L233.79,195.56L232.77,193.71L233.74,193.47ZM278.22,220.55L276.55,220.89L277,219.35L278.22,218.93ZM253.62,83.13L251.12,82.61L251.39,81.9L253.12,81.84ZM313.38,86.93L311.82,88.96L309.11,91.61L311.3,91.92L310.68,93.11L312.67,94.09L313.84,93.39L315.32,93.55L316.04,94.49L315.1,95.53L315.45,97.35L314.82,98.33L316.73,97.99L315.91,99.18L317.13,99.51L315.47,102.26L314.1,102.26L314.39,101.38L312.86,101.62L313.99,100.02L311.53,100.03L310.03,101.54L308.82,101.67L310.75,99.82L308.36,99.12L306.47,99.43L303.12,99.1L301.09,99.44L300.73,98.51L302.72,97.06L302.93,96.2L305.44,93.23L307.56,90.35L309.99,87.82L311.99,86.91ZM136.7,89.23L138.6,90.19L141.21,90.81L141.65,93.59L142.88,94.23L142.98,96.25L142.31,97.03L140.07,96.2L138.13,94.65L138.45,94.06L136.95,93.62L137.46,92.18L136.41,92.17L135.52,90.41ZM295.89,94.6L294.7,94.68L291.68,93.68L290.79,91.98L293.7,92.72L295.88,94.04ZM288.45,102.85L290.15,103.08L292.61,102.87L290.42,104.42L288.71,103.69ZM295.38,104.28L295.4,105.25L296.4,104.59L296.53,103.77L298.09,103.91L296.39,105.52L294.07,105.78L293.84,104.61L296.1,101.89L297.42,101.98L296.32,103.87ZM262.04,120.31L262.14,120.77L259.74,121.55L258.99,120.69ZM236.65,173.08L236.74,174.16L235.83,174.73L235.38,173.21L236.31,171.95ZM392.83,0L401.12,0.58L403.49,1.39L408.67,1.96L401.65,3.19L408.69,3.05L408.83,3.83L415.95,4.4L419.21,3.54L425.35,3.93L426.51,4.41L420.74,5.86L416.44,6.28L416.08,7.12L411.28,6.99L409.72,8.02L411.28,8.3L411.43,9.53L407.55,10.94L407.42,12.48L408.39,13.81L412.03,14.18L411.51,15.26L406.78,14.99L404.8,15.77L405.27,16.47L408.14,16.66L409.12,17.82L409.06,19.16L406.99,18.94L409.16,21.08L408.79,21.59L405.17,22.04L406.6,22.72L406.16,23.64L402.65,24.23L402.79,25.15L401.91,27.27L398.43,26.26L397.17,26.42L402.3,28.42L402.75,28.98L402.82,31.54L399.01,31.74L398.08,31.46L397.14,29.87L394.68,28.84L394.32,29.77L392.17,30.4L390.17,30.28L388.1,31.67L389.16,31.88L391.85,31.68L392.42,32.37L394.34,32.01L399.18,32.66L399.25,33.29L391.8,36.52L385.38,37.63L384.06,37.6L381.54,38.29L379.26,37.39L378.68,38.67L376.61,39.49L373.99,42.01L372.65,42.82L368.45,44.52L365.28,45.19L360.43,45.3L361.11,45.91L358.42,47.11L359.14,48.35L357.92,49.35L357.77,50.51L353.33,53.85L352.63,55.05L352.89,55.91L351.95,56.84L350.69,59.09L349.37,60.37L348.69,61.56L346.98,61.57L344.19,60.75L343.96,59.82L343,59.54L343.47,58.13L341.28,58.95L339.19,58.91L337.02,57.6L336.46,56.69L336.43,54.82L334.92,54.12L335.2,53.09L333.43,50.75L333.71,50L332.78,48.54L333.12,46.43L331.36,42.88L333.07,41.72L331.55,40.86L333,39.64L332.93,38.91L334.87,36.77L338.81,36.41L341.57,33.14L338,32.81L334.69,31.82L334.79,30.75L338.33,31.11L339.92,31.78L341.28,30.34L337.5,29.42L337.1,28.55L334.29,29.28L332.62,28.78L333.81,27.29L333.61,26.38L335.84,25.27L334.09,24.92L335.14,24.25L333.83,23.47L334.57,22.59L333.38,21.75L334.65,20.96L330.98,18.76L331.54,17.99L326.5,16.75L322.64,16.35L315.42,17.28L312.94,17.04L310.91,16.37L311.69,15.49L308.94,15.04L309.28,14.28L313,14.23L314.93,13.78L318.23,13.75L318.2,13.04L312.69,13.56L307.13,11.8L308.47,11.06L315.59,10.22L318.9,9.61L321.82,9.58L325.42,7.57L321.67,7.4L321.94,6.64L330.75,4.88L333.52,5.04L334.95,3.72L340.09,2.99L347.8,2.46L351.33,2.52L354.17,3.41L356.49,3.25L358.6,2.35L364.41,3.55L367,2.43L363.67,1.25L370,0.65L379.94,0.21ZM321.99,1.1L332.33,1.52L335.66,2.22L333.65,3.1L328.71,3.75L326.25,4.71L316,6.67L312.54,8.12L308.5,8.67L304.58,8.9L301.93,9.87L304.92,10.54L300.92,12.25L296.65,12.4L295.77,13.44L292.67,14.32L294.42,14.77L293.73,15.78L288.3,16.76L287.94,15.92L282.48,16.07L279.73,16.44L271.35,15.97L272.14,15.14L274.85,14.46L278.02,14.22L276.65,12.95L279.09,12.53L278.62,11.84L281.26,10.42L286.44,9.94L286.25,8.46L284.22,7.92L285.44,6.85L290.12,7.05L297.64,6.38L291.74,5.96L287.77,6.38L281.61,5.76L280.55,4.96L283.21,4.16L281.23,3.45L289.16,2.8L292.86,2.26L298.28,1.95L303.12,1.27L307.36,1.38L310.86,1.06ZM276.76,4.93L277.91,6.23L282.98,6.73L282.46,8.34L285.3,8.65L285.05,9.4L281.11,10.12L276.26,11.81L272.64,11.91L269.16,11.33L266.5,9.21L266.96,8.37L265.3,7.26L268.11,6.67L267.85,6.02L270.22,5.33ZM250.24,9.06L256.25,10.87L255.44,12.62L252.77,12.53L252.52,11.8L249.73,11.38L249.17,10.43L245.96,9.81L246.97,9.13ZM262.62,10.95L264.81,11.44L263.65,12.29L259.56,12.74L258.5,11.24L259.44,10.35ZM236.61,10.65L236.8,11.46L229.74,11.29L235.92,10.46ZM234.15,12.02L235.11,12.37L233.21,13.42L229.34,13.87L227.45,13.41L228.3,12.5ZM262.45,12.77L266.58,12.9L265.6,13.55L260.81,13.52ZM221.73,13.58L221.97,14.06L219.13,15.68L211.92,16.65L209.91,17.56L206.41,17.12L205.2,16.63L208.06,16.1L215.3,13.96L220.29,13.41ZM262.37,14.82L265.37,15.7L268.31,15.5L268.71,16.11L271.54,16.45L269.15,17.07L272.18,18.44L274.26,18.17L276.41,18.46L281.24,17.66L284.79,17.63L289.09,18.6L288.44,20.05L286.39,20.82L283.13,21.09L279.85,20.81L277.92,21.01L269.85,21.04L267.09,20.9L263.3,20.27L263.51,18.77L264.91,17.59L264.13,16.32L259.64,16.54L257.86,15.45L258.2,14.78ZM233.26,17.04L235.31,17.51L237.19,17.05L238.29,17.85L236.28,19.26L233.11,19.93L230.06,19.58L224.84,20.67L221.15,21.24L219.18,21.21L218.87,19.52L216.02,19.83L213.02,19.05L217,17.02L219.95,16.11L222.72,16.07L225.06,16.7L226.75,18.35L230.57,18.45L231.3,17.97L230.37,16.16L233.03,15.31L234.69,15.36ZM255.28,15.96L253.92,18.34L252.25,19.45L247.14,19.72L247.04,18.71L243.62,18.44L246.87,17.23L246.12,16.49L250.29,15.67ZM245.11,16.99L242.63,17.8L241.52,16.75L244.28,16.42ZM260.61,19.61L259.91,20.54L257.51,20.66L254.68,19.49L257.34,18.4L259.95,18.23ZM411.98,18.71L412.65,19.76L410.48,19.74ZM205.89,21.99L210.63,21.72L213.22,23.32L212.92,23.79L203.94,25.77L202.25,26.63L200.3,27.02L197.7,28.9L191.39,29.93L191.09,28.45L188.61,27.22L191.35,26.02L192.89,24.74L196.76,22.93L196.44,21.42L203.71,20.95ZM259.19,21.86L261.2,22.39L264.79,22.66L259.12,25.59L256.7,25.46L253.81,27.51L251.42,27.51L252.14,25.51L253.75,23.12L255.77,22.22ZM245.4,22.46L246.67,23.02L250.18,22.62L250.91,23.19L248.54,24.19L248.78,25.9L248.12,28.03L242.84,29.45L241.92,29.28L240.53,27.18L238.53,26.75L237.47,25.51L239.65,24.79L240.18,25.61L242.01,25.54L243.13,24.62L241.39,23.81L243.26,22.83ZM267.73,30.15L271.32,30.01L272.41,28.57L270.51,27.62L272.43,26.47L272.42,25.53L274.67,24.06L280.14,23.03L282.53,23.27L283.37,25.61L281.13,27.03L286.61,26.43L288.51,25.66L290.62,25.74L293.18,26.31L293.41,27.32L295.3,28.33L299.3,28.88L301.88,30.68L304.77,31.55L306.2,32.87L306.66,34.92L304.08,35.59L302.83,36.94L304.68,37.56L305.95,38.57L309.4,38.98L309.95,40.27L313.96,41.19L314.98,42.22L312.77,43.95L310.85,45.06L309.19,45.33L308.61,46.54L305.9,46.4L305,44.71L305.51,44.02L303.29,43.26L301.45,43.95L298.99,44.22L300.5,45.51L300.98,46.61L303.91,47.92L303.75,49.7L304.51,49.65L303.98,51.84L302.74,51.84L301.65,53.42L300.4,52.6L296.72,52.33L298.89,54.62L298.43,55.88L296.1,55.06L292.72,54.32L292.1,53.34L290.58,53.28L288.66,52.48L285.61,48.52L283.59,47.81L282.07,48.42L278.11,49.03L275.93,48.68L275.44,47.96L276.08,47.05L277.82,46.42L278.51,45.59L281.47,46.23L286.88,45.34L285.79,43.65L289.65,42L292.13,40.53L291.15,37.72L288.96,36.5L288.79,35.75L285.2,36.55L287.43,34.83L284.41,33.39L284.63,32.5L280.88,33.25L277.41,32.72L274.82,33.4L273.08,32.96L271.39,33.07L266.52,32.57L266.32,31.88L263.39,32.28L261.87,31.55L261.74,30.08L264.31,30.39L265.1,29.7L262.73,29.49L261.5,28.94L261.95,27.72L265.54,24.76L269.86,23.04L271.99,22.75L275.31,22.82L270.57,25.28L269.88,28.2L271.27,29.31ZM285.72,23.1L288.91,23.19L290.84,23.63L292.06,24.72L291.43,25.41L288.61,25.21L284.97,25.58L284.34,24.35L283.29,23.94L283.8,23.05ZM232.72,25.08L230.36,23.68L233.85,22.93L234.85,24.01ZM212.96,25.92L215.17,25.74L217.36,24.97L219.78,25.69L224.58,26.26L223.96,28.25L226.14,27.87L225.88,27.19L226.86,24.66L228.41,24.07L230.64,24.42L231.94,25.5L231.52,26.48L231.29,29.1L230.15,29.98L230.73,30.9L235.51,32.89L234.97,33.74L232.48,33.4L230.48,34.15L232.17,34.59L231.66,35.63L227.81,36.23L225.07,35.48L222.85,35.26L222.33,34.5L219.77,35.69L216.06,36.36L210.56,36.96L206.58,37.09L206.29,36.14L206.91,35.17L203.96,34.97L201.45,34.54L201.07,33.5L201.68,32.7L207.5,32.12L211.41,32.36L212.99,31.76L210.1,31.1L205.19,31.38L201.95,31.26L201.13,30.56L202.7,29.84L201.76,28.42L202.31,27.62L204.47,26.89L204.79,26.17L207.18,25.38L214.41,23.96L214.3,25.3Z" class="land" id="northAmerica" title="North America"/>
    <path d="M944.76,305.77L943.85,306.67L944.12,307.63L941.45,308.14L941.11,307.27L943.46,306.03ZM939.07,309.67L939.7,310.58L939.55,311.97L937.14,312.54L935.85,311.96L935.87,311.27L937.17,309.96ZM897.64,318.66L898.55,319.12L900.18,320.7L901.01,322.32L902.41,323.52L903.72,325L902.98,325.93L901.54,324.56L899.62,323.16L898.11,320.9L897.64,319.76ZM903.73,366.68L905.1,367.1L905.98,367.81L905.99,368.9L905.26,369.53L905.4,371.26L904.24,372.99L905.47,373.48L906.82,371.8L907.04,373.37L906.38,375.6L907.65,376.39L908.93,376.72L911.5,375.3L912.61,375.75L910.28,378.53L909.19,379.08L908.34,380.44L907.02,380.25L905.28,381.17L905.08,382.16L903.43,383.72L899.07,387.13L896.53,388.41L896.56,387.79L895.46,387.37L898.17,385.22L899.07,384.15L899.11,383.06L897.2,381.63L897.68,380.43L900.31,379.29L901.68,377.48L903.01,376.11L903.15,374.96L904.21,373.32L903.41,373.32L904.22,371.72L903.39,370.83L902.89,367.68ZM808.8,369.41L807.95,370.5L806.19,370.37L806.28,369.45L808.31,368.94ZM891.65,387.04L891.87,387.36L893.77,386.41L895.16,386.5L893.63,388.07L893.63,388.83L890.12,391.33L888.33,392.8L886.45,393.7L885.6,395.73L884.38,395.53L881.33,396.51L878.52,399.4L876.05,401.45L871.55,404.21L868.17,404.38L868.23,403.61L867.35,403.07L864.96,403.08L866.4,401L868.82,399.15L871.11,397.98L873.67,396.34L874.97,396.05L877.99,394.77L880.64,393.22L882.13,392.64L884.4,391.16L886.37,389L888.42,387.87L889.75,386.27L891.89,384.89L892.13,385.95ZM820,385.54L821.11,385.7L823.1,386.97L825.12,386.42L826.29,386.45L827.99,385.73L828.54,386.27L826.65,389.79L824.74,391.5L823.82,393.38L822.84,392.53L820.18,394.84L818.38,394.08L817.9,392.64L818.02,391.41L818.86,389.72L818.72,387.79L819.12,386.38ZM866.9,404.66L866.76,405.85L865.07,406.08ZM869.69,262.13L872.91,264.46L875.42,267.18L875.07,268.52L874.14,267.98L874,266.35L872.94,264.77L872.33,264.6L869.6,262.42ZM840.32,282.93L840.96,275.77L840.69,275.23L841.1,273.96L841.37,269.73L841.7,261.87L842.29,261.93L845.11,263.41L847.02,264.17L848.69,264.53L850.06,265.67L851.34,265.8L852.97,267.5L853.65,267.62L854.78,269.03L854.9,271.13L856.4,271.6L858.1,272.57L859.04,272.68L860.15,273.86L860.18,274.98L858.14,275.17L857.64,275.84L858.16,277.29L859.51,278.91L860.56,279.64L860.75,281.1L861.52,282.71L863.36,282.77L863.11,283.86L864.52,285.15L864.75,285.82L866.86,286.61L866.19,287.84L864.92,287.65L864.28,286.92L860.54,286.38L858.87,286.01L856.27,282.62L854.73,279.55L851.86,278.67L850.64,277.91L847.95,279.95L846.48,280.31L847.15,281.9L847.02,282.42L844.9,283.6L843.79,283.09L840.72,283.26ZM872.04,267.33L873.4,267.47L873.32,268.73L872.19,269.61L872.47,270.76L871.65,271.43L870.68,271.39L869.8,272.58L867.48,273.73L865.31,273.78L864.61,273.09L863.89,273.25L861.94,272.08L861.84,271.36L863.67,271.17L864.34,271.46L867.29,271.33L869.14,270.97L870.28,269.47L871.25,269.23L871.02,267.49ZM882.8,275.06L882.08,275.63L881.08,275.17L880.79,273.83L879.7,272.74L879.68,271.37L880.4,271.35L881.57,273.31L882.5,274.07ZM893.15,281.03L890.72,279.44L889.84,278.53L890.27,278.03L891.22,278.99L893.12,280.37ZM895.65,280.32L896.24,281.29L896.7,283.57L895.69,283.05L895.19,280.51ZM892.52,283.42L893.07,283.94L894.14,283.91L894.83,284.45L894.76,285.55L892.6,285.1L892.06,284.26ZM897.53,287.03L898.58,287.25L898.47,288.45L896.96,287.61ZM845.34,292.11L844.99,293.24L845.64,294.33L845.76,296.93L845.5,297.9L845.76,299.87L846.26,300.23L847.8,299.49L848.15,300.33L849.67,301.79L849.31,303.52L849.48,305.4L849.17,306.54L850.06,308.69L850.3,310.53L849.6,312.6L850.23,313.51L849.93,314.44L850.26,315.21L851.83,316.23L852.61,316.18L853.6,317.78L855.58,319.15L855.14,320.09L856.11,321.86L856.34,326.14L857.6,325.24L858.52,326.52L859.11,326.58L858.51,329.45L859.76,331.25L860.67,331.86L860.9,333.15L861.58,333.82L861.7,335.12L862.17,335.87L862.29,337.6L861.7,338.71L860.81,341.61L860.84,345.01L860.19,347.01L858.97,348.43L858.02,350.39L856.53,352.58L855.17,355.41L853.33,357.4L852.56,358.68L851.32,359.72L850.19,360.19L848.7,361.64L847.07,363.86L845.97,364.73L843.98,367.59L841.71,369.72L839.56,373L838.42,375.22L836.33,376.11L833.59,376.2L830.73,377.46L828.62,378.89L825.85,379.67L825.85,378.91L823.65,377.43L819.77,379.4L817.95,378.21L815.92,377.63L815,377.92L814.36,377L813.43,376.84L812.4,374.3L813.43,372.41L813.42,370.57L812.65,369.25L810.52,369L812.18,367.09L812.47,366.24L812.2,364.31L809.86,367.48L807.61,367.79L808.38,366.74L809.38,366.73L810.64,364.29L812.55,362.39L812.82,361.16L811.74,361.14L810.64,362.56L808,363.86L804.76,366.81L804.87,363.46L804.55,361.58L803.46,361.05L803.43,359.69L804.03,359.04L802.65,357.85L801.75,357.85L800.81,357.11L799.31,357.28L798.35,356.27L797.04,355.61L795.96,355.96L794.25,355.88L790.96,356.29L788.22,357.47L786.01,358.11L782.25,358.22L778.51,360.13L776.56,360.93L774.49,363.23L773.15,363.72L772.12,363.41L770.35,363.73L770.25,363.35L768.57,363.2L765.81,363.64L764.31,363.68L762.8,364.96L761.21,365.32L758.63,366.97L757.04,367.33L754.37,366.97L753.19,366.35L752.8,365.47L751.21,364.59L752.33,362.6L753.33,362.24L754.14,361.13L755.72,356.26L755.21,353.37L755.29,351.45L755.93,348.9L755.6,346L755,344.49L755.26,342.1L754.71,339.54L755.63,338.8L755.1,338.04L755.34,336.5L756.64,338.66L756.99,337.23L756.2,334.39L755.92,332.63L756.8,330.34L757.58,329.32L758.04,327.68L757.92,326.78L759.15,324.51L759.45,325.75L760.02,325.81L760.9,324.52L761.74,323.85L763.54,323.05L765.35,321.55L767.5,320.33L769.37,320.55L771.77,319.42L773.35,319.05L774.49,318.19L775.78,318.33L777.54,317.91L779.56,317.12L781.6,315.3L782.91,313.26L784.32,311.61L784.48,309.48L786.31,307.78L787.19,306.64L787.44,308.02L788.15,310.04L789.19,308.03L788.6,306.81L791.8,305.59L791.44,304.43L793.01,302.5L794.23,301.8L794.17,301.05L795.71,299.99L796.6,300.34L797.03,299.1L798.28,299.26L799.39,297.91L801.32,299.37L802.5,301.17L805.9,301.76L806.78,301.29L805.94,300.01L807.06,298.67L807.61,297.35L808.89,296.47L808.8,295.36L809.56,294.48L811.01,293.95L811.56,292.87L812.61,293.15L815.22,293.03L815.86,292.61L816.38,290.65L817.35,290.48L817.7,291.3L819.64,291.71L820.49,292.28L821.87,292.2L823.12,292.97L824.84,291.95L825.43,293.62L826.91,292.12L827.87,293.39L826.53,294.8L826.59,295.51L824.6,296.48L824.53,298.12L824.07,299.23L822.43,301.19L822.65,301.98L824.3,303.28L825.62,304.88L826.23,304.82L827.97,305.97L829.17,307.55L831.17,308.14L831.56,309.53L833.49,310.74L834.85,310.49L835.86,309.81L837.42,307.32L838.3,305.45L838.68,303.94L839.47,302.16L839.51,300.26L839.88,299.23L839.72,298.08L840.47,296.33L840.93,293.85L841.95,291.92L842.96,288.84L843.85,288.07L844.67,290.01L844.54,291.68ZM810.7,290.23L812.57,289.63L813.23,290.43L811.4,292.02L810.63,291.42ZM826.54,298.1L826.79,299.68L825.36,299.48L825.71,298.3ZM909.08,301.41L909.04,302.49L909.95,302.41L909.9,303.55L908.77,304.04L908.38,303.29L908.46,301.49ZM910.07,305.53L910.98,306.68L909.84,307.02Z" class="land" id="oceania" title="Oceania"/>
    <path d="M335.49,500.08L334.82,501.43L327.62,500.99L323.81,500.17L330.3,500.15L331.77,499.05L334.85,499.02ZM146.52,498.86L140.78,498.63L134.79,497.74L134.33,496.33L138.11,496.76L143.76,497.93ZM314.4,498.57L311.24,498.03L312.66,496.71L317.72,495.48L319.19,495.53L315.67,497.48ZM361.12,496.54L364,496.56L366.13,498.1L365.82,499.74L355.7,500.75L354.79,501.07L346.69,501.26L347.05,499.73L349.22,499.63L352.1,498.11L351.11,497.65L351.29,496.05L352.85,494.72L356.93,494.08L359.55,494.32L363.3,495.29L363.34,496.04ZM203.31,483.92L204.46,484.52L203.74,485.43L200.13,485.44L199.64,484.46L197.94,483.72ZM190.38,482.69L194.5,484.11L195.72,485.09L188.77,483.29ZM296.04,482.2L296.37,483.54L293.24,482.81L293.52,481.46ZM261.87,482.42L259.79,480.94L261.54,480.91ZM245.22,479.06L247.62,478.89L250.64,479.47L250.71,480.82L245.82,480.74L241.59,480.01L237.05,479.65L237.03,479.25L243.84,478.66ZM293.73,475.63L293.11,476.41L289.31,476.97L288.35,476.45L290.97,475.56ZM289.72,473.17L290.67,474.39L288.71,474.17ZM299.4,471.69L301.28,472.77L305.26,476.22L306.77,478.82L305.75,480.71L299.46,481.07L297.6,480.37L301.16,479.42L297.91,478.39L295.55,479.69L292.14,478.97L291.87,478.26L293.82,477.64L297.08,477.66L299.48,476.57L299.13,475.36L300.42,474.89L296.67,473.82L295.2,471.01L298.08,470.59ZM301.54,466.96L300.6,467.68L299.09,466.76L299.92,465.08L301.77,466.05ZM171.01,515L171.01,515L167.1,514.8L164.48,514.63L158.42,514.1L152.77,513.42L147.5,512.61L142.56,511.68L137.91,510.63L133.54,509.5L129.39,508.27L145.12,508.61L162.49,509.23L174.16,509.71L172.44,509.08L159.39,508.59L153.22,507.28L148.6,507.29L143.87,506.6L132.27,505.53L136.08,505.42L144.12,506.17L154.17,506.37L161.79,506.78L163.03,505.98L166.37,505.68L168.5,504.62L163.21,503.56L163.61,503.05L156.35,502.24L156.64,501.9L171.28,501.32L164.62,500.1L167.82,499.47L167.02,498.79L157.64,497.55L150.67,496.91L147.05,496.13L149.57,495.56L147.62,495.07L143.93,495.09L140.03,494.07L138.38,492.55L144.92,492.48L148.56,493.18L151.99,493.21L157.15,494.12L162.05,492.33L161.45,491.54L157.32,490.77L158.13,489.92L162.04,488.57L164.3,488.38L166.54,488.89L168.73,487.67L172.48,487.32L174.8,487.49L175.9,486.34L180.14,486.75L182.76,486.53L187.64,486.85L191.04,486.41L199.16,486.55L207.32,486.24L209.33,485.54L216.03,485.73L215.55,484.52L218.38,484.78L219.65,487.08L223.68,486.6L222.24,485.25L225.49,485.5L226.3,486.39L224.95,487.47L229.45,487.6L235.12,488.01L238.03,487.43L244.45,487.46L246.42,488.21L250.88,487.62L244,485.81L242.09,484.61L239.67,484.25L239.83,483.55L243.01,483.92L245.38,483.82L244.24,482.99L238.67,482.78L238.51,481.9L247.59,482.03L251.94,482.75L255.83,482.76L259.66,482.41L262.61,482.78L263.26,481.88L267.34,481.56L267.55,482.54L270.59,482.87L272.49,482.49L275.04,483.25L281.32,484.18L282.9,483.87L282.29,482.76L283.35,481.79L285.47,482.17L288.49,483.39L291.51,483.15L291.49,484.08L294.95,483.61L297.68,483.77L299.47,483.11L307.35,482.21L309.33,481.5L310.05,479.53L307.98,478.03L305.61,475.05L304,473.96L302.57,472.36L305.37,472.3L305.88,471.62L304.61,470.79L305.09,469.08L304.05,468.48L304.37,467.1L302.36,466.85L302.14,465.95L303.94,464.54L305.27,464.59L304.99,463.21L307.67,461.57L307.29,460.51L310.01,459.31L311.92,458.88L313.02,457.36L315.74,456.64L316.87,455.86L319.83,454.93L320.81,455.35L320.81,455.35L318.45,456.47L317.72,458.26L315.41,458.38L313.6,459.95L312.17,460.1L311.62,460.94L311.86,462.38L313.32,463.66L309.22,463.61L308.96,464.67L307.83,465.09L308.16,466.49L306.83,466.55L307.42,468.78L309.68,470.28L313.15,470.65L313.2,471.29L315.99,472.77L317.67,474.23L318.62,476.34L320.91,477.06L320.98,478.13L322.62,479.48L324.45,481.96L322.94,483.16L324.19,483.54L325.02,485.79L322.61,485.86L319.86,487.14L321.58,488.28L316.38,489.7L311.08,490.55L309.98,491.31L306.78,491.55L299.68,491.12L295.98,491.25L298.92,492.84L300.94,493.33L306.07,493.61L305.79,494.35L303.25,495.03L291.28,494L289.89,494.33L298.64,495.65L298.36,496.39L293.86,496.57L287.29,495.46L288.07,496.46L294.97,497.62L302.04,497.75L303,499.08L307.2,501.11L311.54,501.36L316.64,501.23L328.02,502.67L329.75,503.41L327.04,504.07L333.46,504.77L337,506.39L340.94,506.62L343.79,505.41L348.93,504.1L358.83,503.46L367.92,504.25L370.93,502.19L375.46,501.28L378.55,501.68L381.68,500.77L392.57,499.69L402.1,499.44L399.99,498.76L390.98,498.38L389.97,497.37L384.9,497.52L378.32,496.46L378.17,495.73L381.42,493.21L385.16,492.56L390.78,490.6L396.22,489.56L399.66,489.08L409.06,488.51L412.99,485.42L416.29,485.61L415.99,484.41L414.33,483.63L416.03,482.19L418.64,482.26L418.57,481.23L420.82,481.37L424.24,480.39L425.43,478.1L427.27,476.69L428.67,477.08L429.97,478.42L431.88,478.08L431.46,476.45L435.47,475.84L436.21,476.23L435.52,477.53L442.03,477.47L446.02,477.55L446.75,478.52L449.61,477.16L453.32,476.34L458.57,475.68L465.73,475.19L467.08,474.41L469.27,475.28L472.32,475.98L475.02,474.49L476.86,474.84L481.03,474.79L485.81,475.37L488.15,474.7L488.06,476.35L491.86,476.19L493.43,474.61L495.85,476.1L497.77,475L499.53,476.32L501.99,476.71L504.63,476.37L510.82,474.72L513.75,474.52L516.5,473.91L517.52,472.88L516.98,471.38L518.4,470.32L520.67,470.36L522.23,472.92L527.1,473.14L529.62,473.92L531.85,472.34L532.54,471.08L535.55,470.01L538.45,469.39L539.51,468.76L543.72,468.15L544.46,467.78L549.2,467.23L552.29,467.85L552.96,466.24L554.37,465.47L557.11,466.05L557.19,464.08L560.97,462.89L565.03,462.43L567.76,462.59L569.25,463.05L571.89,464.55L570.13,465.02L570.78,465.79L572.41,465.67L574.57,466.28L575.39,466.99L578.16,466.71L582.6,467.44L584.94,467.05L594.4,468.11L596.93,467.7L597.18,469.7L595.86,470.45L595.4,471.81L593.68,472.2L593.39,473.54L591.52,473.46L589.03,474.65L590.25,475.05L592.98,475.08L591.37,476.71L589.15,477.66L587.07,479.3L584.68,481.8L586.7,482.16L588.41,480.66L590.93,480.29L595.55,478.29L598.15,475.82L600.38,474.98L600.94,474.17L603.8,473.21L606.71,473.62L608.16,472.75L612.99,471.36L616.12,469.19L617.56,468.75L624.07,467.56L626.97,467.32L630.3,465.95L632.87,466.08L638.38,465.04L642.05,465.14L647.73,464.26L651.52,464.77L653.75,464.24L655.04,464.6L661.23,464.14L663.31,464.65L667.15,463.84L669.2,462.69L671.98,462.45L674.53,462.8L682.38,464.63L684.65,465.38L687.96,464.3L689.51,463.05L694.87,462.27L695.93,462.63L696.38,463.84L698.06,464.41L696.96,465.71L693.8,466.23L693.38,466.87L700.03,465.77L703.03,465.87L704.53,466.67L710.25,465.89L712.28,465.24L716.73,464.54L717.86,464.82L721.42,463.85L722.84,464.23L723.42,465.78L727.1,465.75L729.59,464.15L732.9,463.37L734.71,463.49L738.6,463.06L741.3,463.76L742.64,463.19L744.05,463.65L747.15,463.97L751,464.84L755.25,465.1L756.71,465.63L758.25,465.29L760.07,466.03L756.82,467.85L761.66,467.37L762.54,468.32L761.97,469.44L764.6,469.71L770.41,469.48L770.56,470.33L773.32,470.78L777,469.57L778,471.24L781.3,472.02L783.04,471.75L785.51,472.6L785,473.84L785.66,474.77L784.86,476.15L789.14,474.73L789.54,475.59L792.1,475.29L796.25,475.71L797.74,476.1L797.76,477.11L800.39,478.3L795.96,481.22L794.27,482.07L789.35,482.82L781.23,484.63L780.35,486.09L776.03,486.11L772.82,487.56L770.94,487.69L771.03,489.28L767.75,491.53L766.26,494.71L768.14,495.69L764.53,496.05L754.28,497.46L749.6,500.27L746.3,502.39L747.78,503.41L750.84,505.63L750.42,506.43L755.82,506.97L766.13,508.01L766.36,508.27L748.26,512.61L724.74,515L724.74,515L724.73,515L447.88,515L171.02,515Z" class="land" id="antarctica" title="Antarctica"/>
    <path d="M230.71,230.06L231.19,229.07L232.31,228.52L232.75,227.46L232.27,226.19L232.41,225.44L233.76,227.28L233.75,225.56L235.52,224.37L235.96,223.47L237.38,222.88L237.43,220.46L238.14,219.12L239.92,217.5L240.98,217.89L242.15,216.75L244.21,216.9L245.95,215.55L247.23,214.98L247.68,214.01L248.91,213.26L250.14,213.53L250.42,214.47L249.37,215.53L248.3,215.83L248.04,216.52L248.86,218.97L247.26,221.69L248.15,223.25L248.31,224.1L249.4,223.93L250.03,223.21L250.19,222.05L249.36,220.24L249.02,218.57L249.27,217.97L252.79,216.65L252.75,214.99L253.6,214.04L254.48,216.3L256.7,216.46L257.84,217.34L258.18,219.25L259.17,219.57L261.65,219.12L263.72,219.05L264.75,220.26L266.73,220.87L267.51,220.78L270.32,218.95L271.37,219.01L273.59,218.67L273.15,219.74L274.02,220.53L274.49,221.8L275.09,221.15L278.68,223.17L277.92,224.02L277.12,226.24L278.55,225.65L279.84,225.53L280.83,225.84L282.94,227.33L284.48,229.04L284.83,230.68L286.19,231.5L288.94,234.06L291.8,234.7L292.12,234.16L294.9,234.08L297.63,234.74L298.71,235.45L300.25,235.9L301.92,237.46L303.62,239.77L304.85,240.2L305.28,242.83L306.34,246.55L306.89,247.52L308.29,248.07L308.44,249.68L307.33,250.74L305.87,252.88L304.57,253.71L303.4,255.9L302.73,258.57L304.54,257.39L305.6,257.04L306.24,259.13L307.05,259.95L308.18,259.36L308.96,259.66L310.09,259.04L310.99,259.35L311.77,258.25L312.51,258.35L312.49,257.14L313.42,255.82L315.43,255.46L317.07,255.96L317.61,256.58L318.72,256.77L320.33,257.79L321.92,258.18L323.12,259.08L324.09,261.63L325.14,261.79L327.92,261.41L329.85,262.46L330.89,262.32L332.46,262.93L334.81,262.47L336.24,262.69L340.42,265.46L341.64,267.07L344.11,269.32L345.75,269.92L347.45,269.78L348.65,270.02L349.55,271.44L350.29,274.11L350.85,277L350.82,279.21L349.99,282.32L349.51,283.29L346.68,287.35L345.21,288.44L343.97,290.63L343.27,292.58L341.83,294.99L340.31,294.79L340.22,295.97L339.58,297.4L340.05,298.83L339.81,300.86L340.5,304.78L339.97,307.7L339.82,309.49L340.06,310.75L339.2,311.68L338.62,313.79L338.86,315.86L338.13,317.37L337.23,320.05L336.22,321.15L335.66,323.1L335.92,324.44L335.59,324.98L334.05,325.71L333.37,326.59L333.29,327.78L330.8,327.85L329.26,328.11L328.31,327.66L326.25,328.14L325.49,329.2L324.29,330.19L322.83,330.55L320.52,331.98L318.02,334.46L316.48,337.12L316.43,340.01L316.93,341.61L317.07,344.48L316.78,346.1L315.63,347.07L314.55,348.67L313.95,350.09L313.5,352.13L311.18,351.93L310.66,354.17L309.45,355.25L309.09,356.88L309.39,357.8L308.95,358.69L308.46,360.96L306.74,363.04L306.08,365L305.22,365.94L303.43,366.79L301.32,366.28L300.22,366.71L298.15,365.96L297.2,365.23L295.47,365.31L293.66,363.48L293.54,364.72L294.39,365.98L297.25,367.62L297.81,368.65L297.42,369.35L297.9,370.73L299.54,371.64L299.86,373.02L298.5,375.92L298.32,377.02L296.9,378.16L292.88,379.46L289.65,379.96L287.13,379.72L286.59,380.47L287.48,381.19L287.24,382.88L287.67,386.09L286.38,386.79L284.32,386.92L281.3,385.84L280.63,386.06L281.45,388.27L281.66,389.56L283.65,391.05L285.73,390.97L285.79,392.25L284.72,392.43L284,391.5L283.14,391.37L282.36,392.1L284.11,393.06L282.89,393.81L282.41,394.89L282.91,397.6L282.34,398.19L282.66,399.3L281.23,399.16L279.59,400.09L278.68,402.36L279,403.55L281.56,405.65L283.58,405.93L284.45,406.72L284.81,408.61L283.74,409.87L282.43,410.77L281.41,412.72L281.77,414.64L279.46,416.27L279.32,418.05L280.52,420.18L282.76,422.26L280.61,421.94L280.07,422.61L277.46,423.68L278.1,426.79L277.49,427.11L275.11,426.34L275.49,425.28L276.38,424.73L276.03,423.67L274,425.18L272.57,425.15L269.57,423.28L269.54,422.03L270.09,421.43L268.7,420.64L268.39,419.23L265.86,418.4L264.75,417.21L265.84,415L264.35,410.67L263.44,409.66L262.65,407.85L263.35,406.21L263.16,405.55L259.04,404.39L260.41,402.96L259.78,402.06L261.95,401.72L261.91,400.6L263.2,400.81L263.19,399.2L264.53,398.42L264.44,397.47L262.67,396.62L262.86,394.9L262.43,394.33L262.63,393.03L262.21,390.63L262.66,389.6L261.94,388.57L260.96,388.19L259.88,389.01L258.9,388.11L258.16,386.82L258.04,383.48L258.46,382.53L258.48,380.71L257,377.93L256.92,376.88L256.14,375.77L255.9,374.12L256.89,374.05L256.78,372.49L257.2,371.53L257.27,368.91L257.97,367.32L257.91,364.3L258.46,362.63L257.88,360.82L258.37,359.4L257.63,356.62L256.88,354.55L256.35,351.82L256.96,351.21L256.9,349.6L255.94,347.25L256.53,345.46L256.54,343.34L256.91,338.79L256.46,337.02L256.89,335.02L256.29,333.3L256.14,330.5L255.61,328.14L256.15,327.46L256.26,323.06L255.66,320.56L255.44,317.57L254.9,315.83L254.36,313L251.43,310.68L250.77,309.42L249.08,308.47L248,307.52L247.07,307.21L244.08,305.72L243.11,304.94L240.32,303.31L238.98,301.65L237.79,300.79L236.67,299.17L236.79,297.16L234.69,293.38L233.73,292.45L233.45,291.16L232.21,289.95L231.83,288.49L230.42,286.07L228.53,281.3L227.77,279.99L226.69,278.77L225.5,276.29L224.47,274.94L222.46,273.75L221.39,272.65L222.2,272.06L221.48,269.69L220.81,268.53L220.93,267.41L222.23,265.5L224.35,263.87L225.14,261.78L224.03,261.61L223.13,261.93L221.68,260.51L222.21,260.15L222.1,257.91L221.81,256.93L222.78,256.18L222.97,254.63L223.94,253.46L224.25,252.11L224.08,250.9L225.05,250.27L227.41,249.54L227.72,247.46L228.24,245.98L229.63,245.39L230.91,244.13L232.15,241.85L232.38,240.95L231.67,240.31L232.12,238.17L231.87,235.93L232.34,234.75L231.77,233.47L232.12,232.41ZM192.72,253.14L194.14,255.87L193.85,256.48L192.55,256.73L192.3,256.02L193.18,255.45L192.55,254.37ZM307.46,253.81L309.19,254.18L310.62,253.97L312.68,254.58L312.24,256.03L311.16,258.23L309.32,258.97L306.75,259.22L306.04,257.45L306,255.52L306.35,254.32ZM303.59,257.78L303.47,256.2L303.83,255.54L304.91,255.59L304.59,256.74ZM260.63,393.98L259.08,393.72L259.09,392.48L258.56,389L259.95,389.33L260.6,391.16L259.9,391.54L261.11,392.67ZM261.69,397.34L261.16,397.66L262.4,399.65L261.66,400.31L259.71,398.15L259.83,397.59ZM264.11,398.35L262.66,398.13L262.97,397.15L264.01,397.54ZM263.49,410.13L262.95,410.77L261.72,409.24L262.9,409.19ZM264.11,411.35L265.23,414.11L265.28,415.05L263.33,414.6L262.79,412.2L263.35,411.01ZM304.88,419.04L306,419.78L307.1,419.39L307.72,420.4L305.87,421.11L305.15,421.84L303.72,421.07L304.74,420.33ZM301.12,419.44L301.93,419.7L304,419.53L302.91,421.21ZM280.49,422.81L282.09,423.09L283.75,424.35L285.01,426.13L287.23,427.62L292.74,430.15L290.14,430.62L289.03,430.3L285.59,429.97L283.91,430.25L282.17,429.65L280.44,429.95L277.98,429.37L278.95,428.5L278.52,427.12L279.87,425.68L278.75,425.03ZM273.04,425.76L275.23,426.88L272.76,427.3L271.25,425.71ZM281.97,430.17L284.46,430.58L286.19,431.3L286.46,432.11L283.72,431.88L282.05,430.98ZM288.87,430.88L287.41,431.32L286.25,430.31L288.34,430.46Z" class="land" id="southAmerica" title="South America"/>
    <path d="M549.75,5.08L555.77,5.79L552.28,6.14L548.96,5.74ZM564.07,5.7L562.63,6.62L559.19,6.39L559.28,5.74ZM487.24,7L490.08,6.66L498.54,7.21L499.34,7.78L496.71,8.94L493.6,9.43L487.61,8.96L483.38,8.12L482.52,7.44ZM479.64,7.78L483.19,8.55L484.34,9.52L486.97,9.58L488.95,10.5L485.89,10.78L483.59,12.21L483.39,13.43L482.26,13.73L480.76,15.76L475.95,14.13L476.89,13.02L474.37,12.2L470.49,10.56L468.47,8.04L472.05,8.08L473.34,8.76L477.89,8.3ZM489.44,10.84L492.66,12.29L494.89,12.52L494.33,13.49L490.85,13.48L489.78,12.47L486.84,11.12ZM581.81,16.61L579.24,17.25L570.35,18.94L568.75,20.27L565.72,21.03L565.99,21.99L563.89,23.98L559.81,23.75L558.48,24.02L556.93,22.93L558.5,22.43L559.63,20.7L561.08,19.85L561.75,18.77L564.73,17.57L568.7,16.9L572.33,16.61L577.51,15.67L580.21,14.69L582.19,14.88L583.55,15.77ZM560.61,24.13L562.99,24.41L562.76,25.49L561.63,26.35L562.1,27.76L564.3,29.33L566.54,30.46L567.44,31.37L562.02,31.13L560.04,30.76L558.52,28.81L555.36,28.94L554.28,27.4L556.19,26.79L557.43,24.17ZM592.67,37.14L595.06,40.44L594.22,42.02L591.99,43.56L589.49,44.85L586.69,47.14L583.28,48.92L585.36,58.39L585.91,63.01L585.39,65.74L584.59,67.73L583.31,69.3L583.29,70.72L585.39,71.76L586.06,73.05L585.17,74.67L580.6,75.29L583.5,77.97L585.49,79.46L588.16,77.78L589.98,78.46L590.93,79.58L590.07,80.49L589.53,81.93L590.13,83.69L591.88,84.14L593.43,85.54L593.19,85.64L594.45,86.65L596.82,87.3L597.56,87.96L597.42,89.11L595.76,89.72L593.98,89.3L593.82,89.98L591.46,89.63L589.86,88.48L588.57,88.39L587.78,89.02L586.58,88.47L585.35,88.61L584.01,89.92L583.39,89.92L581.08,88.68L580.51,89.36L579.31,88.32L577.31,87.18L575.45,87.18L574.71,86.56L573.11,87.17L570.95,86.41L569.95,87.77L568.29,88.42L566.96,89.92L567.46,91.76L566.59,92.33L564.42,90.62L563.57,90.94L563.04,92.26L562.9,93.78L563.6,94.62L563.03,95.55L563.19,96.78L564.12,97.19L564.56,98.25L567.21,98.89L569.97,101.96L569.24,102.62L570.94,103.35L568.64,105.26L567.13,105.69L566.53,107.9L565.78,108.7L565.91,109.45L567.25,110.18L568.37,112.37L568.53,113.89L570.97,116.63L573.73,119.46L574.19,120.35L575.86,121.78L577.32,122.33L575.5,123.03L575.24,124.93L575.48,125.76L574.7,126.46L574.45,127.49L574.7,128.72L573.99,128.8L572.3,127.48L572.78,126.96L571.77,124.68L571.21,124.79L569.1,126.41L568.45,127.2L567.47,127.31L565.62,126.87L562.93,124.41L562.59,125.53L561.67,125.67L563.22,128.97L562.86,130.43L563.85,130.96L564.67,132.43L563.47,133.44L563.01,132.45L561.36,132.58L559.37,132.16L556.2,133.08L554.09,133.05L552.4,133.93L550.74,134.4L549.19,134.37L547.61,133.69L545.73,134.53L543.64,134.01L543.45,135.13L542.61,137.16L541.96,136.89L541.61,135.61L542.46,134.48L542.01,133.66L540.79,134.68L538.27,134.07L536.11,136.02L533.8,136.5L532.66,136.02L531.62,134.88L529.78,134.02L527.91,133.81L527.66,135.61L525.63,136.11L524.13,135.33L523.77,134.36L522.28,134.01L521.31,133.27L519.26,133.31L518.36,131.14L518.68,130.2L517.19,129.49L517.6,128.92L517.25,127.83L517.85,127.26L516.87,125.95L517.16,125.07L515.35,125.38L515.37,123.69L516.68,122.37L518.07,122.19L518.6,122.63L520.67,122.36L523.3,121.05L522.41,120.41L523.05,119.7L528.05,120.09L528.49,119.4L530.51,118.08L533.14,117.16L536.67,117.35L537.28,117.01L538.16,118.09L540.11,118.24L541.46,119.59L546.41,120.68L549.01,120.09L551.23,120.56L553.95,119.07L554.58,117.31L553.53,115.1L551.67,113.8L550.85,113.61L549.02,112.49L545.69,109.88L544.27,109.46L543.3,108.56L542.18,108.45L540.73,106.68L542.46,106.4L542.87,104.41L543.45,104.12L542.64,102.46L545.69,100.91L543.64,100.69L541.35,101.01L540.92,101.51L538.41,102.33L537.29,102.44L535.06,103.82L535.72,105.37L537.24,106.61L538.71,106.16L539.76,106.35L539.46,107.39L538.17,107.59L537.36,107.22L536.29,108.23L535.35,108.22L533.5,109.56L532.27,109.03L532.3,107.29L529.54,106.32L532.2,104.59L530.94,103.86L529.17,104.15L527.99,103.59L527.64,102.17L524.77,102.67L523.6,104.84L522.13,105.43L522.57,106.51L522.34,108.1L521.09,108.38L520.24,109.85L520.32,112.4L518.82,113.41L518.87,114.81L517.93,115.71L519.34,117.06L520.47,118.93L522.37,119.69L521.74,120.52L520.15,120.17L518.46,120.52L517.93,121.44L514.99,121.69L514.28,120.94L512.3,120.45L511.54,120.89L510.48,120.71L509.28,121.9L508.82,122.94L507.91,122.96L506.08,122.06L506.11,123.54L507.05,124.86L507.33,126.79L506.89,127.54L508.16,127.99L510.11,129.24L510.49,131.07L509.18,130.09L508.19,130.26L508.25,132.29L507.21,132.09L508.16,134.1L506.94,134.08L505.51,133.28L504.2,133.11L504.06,131.62L502.87,130.39L503.48,129.49L504.54,129.07L507.15,130.19L506.06,128.71L503.63,129.09L502.68,128.88L501.71,127.51L501.67,126.86L500.36,125.83L499.04,123.52L497.82,122.74L497.67,119.07L497.94,117.9L496.9,117.38L496.09,116.41L493.24,114.65L490.77,112.74L488.28,111.9L486.09,109.98L485.25,107.35L484.03,106.51L483.06,108.13L482.17,107.26L481.82,106.07L480.57,105.57L478.7,106.18L479.41,107.71L478.75,108.49L479.2,110.08L479.99,110.82L482.27,112.17L483.55,115L485.84,117.05L486.64,117.43L488.67,117.41L488.89,119.03L491.76,120.23L494.03,121.54L495.51,123.32L494.49,123.86L493.87,122.75L491.43,122.18L490.51,124.11L490.73,124.83L492.11,125.66L492.34,126.9L490.8,127.81L490.82,128.8L489.63,130.32L488.77,130.33L489.28,127.82L489.85,127.67L489.3,125.75L488.33,123.69L486.38,122.89L485.83,121.5L484.1,120.99L483.08,119.67L481.43,119.65L480.22,118.92L477.56,116.29L476.33,115.49L475.11,114.21L473.29,110.73L471.34,109.78L470.01,109.45L468.33,111.06L466.08,111.89L464.37,113.46L463.42,113.77L461.61,113.27L460.71,112.58L459.83,112.81L458.15,112.1L456.15,113.38L455.64,114.27L456.18,117.39L453.21,119.51L450.53,120.23L449.71,121.01L448.81,122.63L447.03,125.21L447.35,126.69L448.4,127.67L446.89,128.72L446.2,129.64L445.74,131.49L444.42,131.55L443.19,132.61L442.36,134.09L436.47,134.28L435.65,134.97L434.35,135.24L433.14,136.53L432.06,136L430.93,133.52L429.92,132.74L428.33,132.82L427.43,133.35L425.44,132.98L424.91,131.97L424.75,128.47L423.32,127.76L423.64,125.8L424.25,125.14L424.99,123.08L425.67,120.34L425.18,116.88L425.7,116.33L424.39,114.08L425.35,112.93L426.21,112.92L426.94,112.14L428.38,111.55L429.47,112.1L433.51,112.14L436.4,112.67L438.73,112.34L440.15,112.81L441.94,112.95L444.11,112.19L444.73,109.01L445.2,105.04L445.01,103.43L443.41,102.78L442.85,101.13L440.04,99.05L437.18,98.64L436.42,97.81L437.02,96.92L436.22,96.38L439.91,95.43L441.23,96.39L441.84,96.04L444.33,96.06L443.98,94.3L443.32,92.79L444.79,92.8L445.08,93.72L447.47,94L448.56,93.48L448.33,92.73L450.93,91.8L451.67,90.88L451.73,89.49L452.53,88.71L453.83,88.47L456.58,87.26L458.7,84.61L459.34,82.66L459.96,82.63L460.23,84.37L461.28,83.73L460.79,82.18L462.41,81.23L464.21,81.12L465.31,80.38L467.04,80.35L468.33,80.76L469.15,79.91L469.19,77.76L468.5,76.98L468.26,75.08L467.09,74.52L467.03,71.48L468.02,69.96L470.19,69.59L471.09,68.55L472.45,68.94L472,71.44L473.34,71.73L472.15,72.67L471.89,73.72L470.55,74.85L470.75,76.28L472.2,78.15L474.13,78.85L475.11,79.57L476.77,78.89L477.81,77.97L478.9,78.15L481.02,79.85L482.55,80.41L483.01,79.35L486.45,78.52L487.28,77.71L488.9,77.17L491.39,76.84L492.33,78.09L494.1,78.22L494.89,77.74L495.28,76.59L498.16,76.55L498.1,74.96L497.56,73.88L497.23,70.82L498.5,68.58L500.37,68.12L503.21,70.38L504.83,69.31L504.41,67.94L504.7,66.23L502.94,66.21L502.22,65.33L501.97,63.73L503.89,62.91L506.41,62.42L511.99,63.08L513.08,61.9L514.58,61.35L513.24,60.25L513.14,59.55L510.5,59.98L509.96,59.77L506.44,60.37L502.18,61.45L500.01,61.13L499.4,60.29L496.71,59.6L496.4,58.51L496.72,56.68L495.77,55.53L495.19,53.69L497.42,51.34L499.47,50.02L501.47,48.25L501.96,47.44L503.66,46.85L503.38,45.52L501.58,44.73L499.6,44.53L495.13,45.72L495.26,46.52L494.43,47.42L495.32,48.64L493.96,50.1L490.34,51.91L489.18,52.9L487.93,53.09L487.2,56.25L486.6,56.73L487.14,59.29L488.78,59.62L490.26,60.6L491.37,62.07L489.01,63.51L490,63.99L488.17,64.73L486.43,65.99L486.52,70.09L485.5,72.64L482.66,72.82L481.4,73.82L481.77,74.74L479.4,75.29L477.51,72.89L478.1,71.44L476.95,70.57L475.19,68.14L473.97,65.87L473.68,64.08L472.35,63.16L471.34,64.28L470.06,64.47L466.82,66.86L464.14,67.22L461.08,65.73L461.32,63.26L459.69,63.64L460.05,62.41L459.61,61.84L459.82,59.68L459.37,59.27L459,56.34L460.31,54.59L462.12,53.72L464.21,53.75L463.55,52.72L465.97,52.34L466.57,51.06L469.44,50.8L469.42,50.11L472.85,47.14L474.57,46.37L474.73,45.26L476.16,43.99L476.31,42.53L479.63,39.85L479.63,38.99L482.23,37.9L483.35,36.73L484.87,36.25L486.25,35.27L486.55,34.4L490.14,33.29L492.44,33.27L492.83,32.49L495.43,31.95L496.32,32.69L498.91,31.07L499.27,30.26L501.66,30.66L505.34,30.02L508.61,30.64L512.81,32.22L510.16,33.03L514.24,33.81L515.19,33.09L517.34,33.64L516.32,34.39L519.19,34.85L523.88,35.17L528.21,36.55L534.52,38.92L535.87,39.25L537.03,41.73L535.88,42.79L533.43,43.67L531.54,43.86L525.04,42.93L523.4,42.33L518.09,41.47L520.85,43.14L522.79,43.68L523.8,44.43L523.27,45.75L524.41,46.91L524.83,48.13L526.66,48.64L528.5,49.72L531.02,50.26L532.26,49.65L531.8,48.81L530.04,48.56L528.29,47.31L528.85,46.39L531.53,47.22L535.6,48.08L536.44,46.88L534.98,45.18L536.62,44.15L538.2,43.7L539.49,42.58L543.82,43.38L544.31,42.16L543.52,40.96L542.3,40.53L542.63,38.47L541.78,36.94L545.77,37.13L548.04,38.88L545.63,39.13L544.6,39.91L547.4,41.65L548.95,41.73L550.95,41.11L550.82,39.61L552.84,39.2L556.45,37.49L559.86,36.82L562.11,35.71L563.26,37.83L564.48,37.7L567.25,36.67L569.66,36.93L572.97,35.69L575.72,37.29L577.26,35.74L574.94,34.08L576.42,33.37L581.58,33.85L588.96,35.84L590.3,36.05ZM575.13,33.14L573.52,33.68L572.02,33.26L570.59,32.24L571.47,31.71ZM484.84,34.07L485.92,35.16L483.87,35.32ZM554.42,35.19L553.38,36.09L551.46,36.43L550.34,35.59L550.72,34.51L551.9,34.3ZM414.06,43.4L415.84,43.99L415.64,44.73L418.06,45.49L417.38,47.27L414.65,48.88L412.3,49.41L410.94,50.11L408.28,50.55L406.32,51.43L402.93,51L399.55,49.14L399.42,48.25L398.01,46.8L399.69,45.48L397.77,45.23L394.83,45.49L396.16,43.85L399.16,42.84L401.38,44.39L401.36,45.68L403.39,44.84L403.51,43.95L407,43.57L411.4,43.67L411.95,42.79L413.18,42.6ZM440.68,65.75L440.43,66.33L438.61,67.41L439.96,68.16L443.05,68.18L443.73,68.81L441.64,72.35L440.39,73.07L442.81,73.6L443.96,74.61L444.81,77.04L446.28,77.86L447.39,79.34L449.22,82.58L450.41,82.61L451.86,83.24L452.09,84.12L451.65,85.3L450.19,86.17L449.54,87.47L451.31,87.55L450.21,88.91L448.38,89.41L444.18,89.46L441.66,89.87L439.57,89.82L438.6,91.08L437.68,90.58L434.81,91.03L436.71,89.37L437.69,88.09L440.25,88.04L437.25,86.37L435.99,86.73L435.57,85.58L437.29,84.96L438.28,83.89L438.01,81.8L440.53,81.16L440.88,80.22L438.47,77.02L435.68,76.78L436.71,75.07L435.51,73.52L434.67,73.14L435.22,71.75L433.95,71.48L434.89,69.59L434.31,68.98L435.5,66.58L436.96,65.77ZM500.17,65.44L501.79,65.85L499.35,66.83L498.99,65.86ZM492.24,67.78L491.67,68.17L491.55,69.56L490.14,68.62L490.99,67.8ZM477.53,73.96L475.48,75.78L474.61,75.73L473.79,74.15L476.64,72.95ZM473.02,74.49L473.44,75.94L471.54,75.85L471.18,74.78ZM430.85,76.18L433.36,75.69L434.86,77.87L434.51,78.57L432.72,79.44L433.38,82.7L432.02,84.98L429.68,85.26L429.33,85.63L426.5,86.86L425.32,87.13L424.66,86.53L422.75,85.98L423.82,85.15L425.54,82.18L424.39,81.26L424.05,78.56L427.33,78.34L427.04,77.32L428.27,75.9L430.73,75.27ZM472,114.63L472.26,116.8L471.41,119.19L470.42,118.54L470.08,115.45ZM472.61,120.81L473.1,122.05L472.62,126.35L471.3,126.12L470.88,127.17L469.65,126.23L469.69,122.71L468.93,121.56L471.68,119.78ZM455.99,124.34L456.81,124.64L455.82,125.92L454,124.91L455.06,124.13ZM508.51,127.02L510.35,127.96L509.54,128.83L508.13,127.53ZM488.34,129.42L487.22,131.88L487.8,133.33L487.37,134.38L485.76,134.02L484.78,133.03L484.16,133.04L480.23,130.71L482.56,129.54L483.45,130.13L485.58,129.98L486.45,129.57ZM538.33,137.93L537.06,138.92L537.44,139.9L534.66,141.24L533.31,140.74L532.9,140.02L534.4,138.59L535.77,138.77ZM510.49,138.12L511.74,138.68L512.8,138.48L514.81,138.87L515.56,139.4L513.12,140.08L512.19,139.34L509.78,138.91ZM403.97,161.41L403.05,162.62L402.43,161.54Z" class="land" id="europe" title="Europe"/>
    <path d="M536.65,340.48L535.37,344.88L534.6,346.25L533.16,347.28L531.86,348.72L528.66,353.9L524.5,358.21L521.67,360.68L519.48,362.2L517.71,362.98L516.56,362.82L515.56,363.8L513.89,363.67L513.38,364.31L510.14,363.71L509.28,364.03L507.41,363.79L506.59,363.99L505.32,364.97L503.4,364.95L501.98,365.27L500.58,366.32L499.57,366.21L497.51,364.11L496.34,363.56L496.59,362.84L495.24,360.38L496.28,359.38L496.53,357.65L496.32,356.42L495.01,354.06L493.84,351.07L493.3,348.8L492.14,346.32L490.18,344.12L489.23,342.23L488.34,338.75L488.07,336.82L488.11,334.57L487.28,331.87L487.29,328.87L487.49,326.99L486.97,325.32L486.06,323.95L484.69,321.18L483.97,318.8L482.11,314.72L481.13,313.47L480.29,311.72L480.17,309.98L480.48,307.5L480.33,304.67L480.94,304.03L481.85,300.8L482.65,296.91L483.88,294.77L485.1,293.94L486.15,291.65L486.35,289.19L484.63,284.82L484.06,282.7L485.08,281.53L485.14,280.5L483.73,276.82L483.63,275.92L482.8,274.75L481.79,271.65L481.94,271.12L480.76,268.2L478.68,265.81L476.78,263.18L474.76,261.09L473.77,259.34L473.95,258.4L473.21,257.63L472.53,255.73L473.86,254.57L474.34,252.27L473.95,251.46L474.77,250.92L474.41,248.8L475.28,247.21L475.31,245.23L475.67,243.48L475.46,242.74L474.2,240.76L473.01,240.21L472.34,238.63L467.85,238.84L466.74,239.39L464.84,239.57L463.48,238.41L462.48,235.71L461.44,233.95L460.24,232.91L459.38,232.71L455.61,232.82L452.95,233.19L450.96,233.87L450.53,234.65L448.6,234.82L446.9,235.65L445.65,236.54L443.3,237.33L442.29,238.04L441.18,237.5L436.61,236.53L432.34,236.98L428.77,238.34L427.14,239.29L426.49,239.32L424.82,238.6L422.39,237.1L419.21,233.79L417.79,233.04L414.62,230.21L413.07,229.55L413.01,228.65L411.98,228.03L411.17,225.7L410.94,223.78L409.76,221.58L407.76,220.29L406.81,218.08L406.07,218.05L405.11,217.15L404.83,215.51L403.07,214.89L401.51,213.47L401.25,210.28L401.93,209.15L400.38,206.06L400.46,205.15L402.21,202.18L402.24,200.73L402.81,198.65L403.59,196.64L403.65,193.47L403.33,191.91L402.53,190.74L403.21,189.36L403.44,187.93L402.88,186.55L402.35,186.61L401.7,185.14L401.63,182.5L402.81,181.09L403.71,178.6L405.51,175.43L407.04,173.88L407.57,172.83L407.79,171.1L408.91,168.33L411.22,166.76L412.39,163.77L413.02,162.92L415.64,162.22L417.15,161.4L418.12,160.32L419.75,159.18L422.02,155.78L422.09,154.68L421.52,153.79L421.75,151.49L423.04,149.34L423.35,147.76L425.12,145.76L429.66,143.21L431.15,140.59L432.34,137.31L433.73,136.84L434.47,138.34L436.49,139.34L438.17,138.95L440.41,139.45L442.57,139.59L443.48,139.27L445.47,137.69L446.76,137.07L448,136.94L449.22,135.77L451.16,134.93L454.66,134.66L455.64,134.07L457.74,133.71L460.3,133.71L461.46,134.42L463.72,133.81L464.8,133.09L465.96,133.63L467.74,133.37L468.54,133.84L470.91,133.38L473.13,132.27L474.47,132.7L475.48,133.76L476.93,133.78L475.42,135.57L475.64,136.98L476.75,137.8L477.1,139.08L475.63,141.34L474.43,142.43L474.71,143.6L476.23,144.69L480.42,146.83L481.69,147.01L483.08,146.64L485.63,147.4L486.39,147.96L488.16,148.35L489.11,150.74L489.7,151.49L490.84,152.02L494.13,152.61L496.42,153.6L498.49,155.19L499.44,155.2L500.53,154.54L501.6,152.62L500.87,150.22L501.32,148.91L502.58,147.73L505.2,146.57L506.67,146.63L509.13,147.61L509.73,148.92L512.01,149.59L513.49,149.57L514.42,150L515.03,151.14L516.79,150.86L520.45,151.65L522.43,152.56L523.9,152.71L525.45,153.43L526.79,152.84L528.81,151.39L529.64,151.56L530.91,150.96L533.46,152.58L534.8,152.65L536.18,152.33L537.62,152.45L538.98,151.83L541.39,157.83L541,158.51L540.44,162.59L540.02,163.41L538.71,162.49L537.19,160.8L536.6,159.15L535.53,157.69L535.15,158.13L535.43,159.41L536.26,160.81L538.17,162.98L538.25,163.92L539.32,165.74L539.59,167.04L541.46,170.16L543.45,174.12L544.72,175.45L544.58,177.48L545.17,179.09L546.69,180.13L548.44,181.85L548.81,183.51L549.53,185.08L549.85,186.86L550.1,190.03L550.86,192.5L552.14,193.36L552.97,194.36L554.03,194.93L555.07,197.03L555.83,199.29L556.4,201.91L557.04,203.17L558.03,203.37L559.05,204.85L560.01,205.11L561.8,206.13L563.23,208.19L564.92,209.48L566.55,211.82L567.35,211.95L568.35,214.01L568,214.72L566.71,215.46L568.55,216.74L569.76,218.56L571.29,219.7L572.83,219.68L575.21,218.39L577.31,218.68L579.58,217.3L581.29,217.41L583.09,216.81L583.73,217.03L587.05,216.14L588.87,214.67L590.18,215.17L589.78,216.77L590.04,218.97L589.42,220.28L589.32,222.95L588.29,224.83L587.45,226.92L586.78,227.69L586.56,228.67L585.47,230.83L584.7,233.48L583.64,235.67L581.82,238.9L578.81,242.82L576.53,245.44L573.39,247.59L571.75,248.94L569.34,251.43L565.18,256.58L563.51,259.47L562.42,259.74L562.14,260.78L561.42,261.65L560.24,262.13L559.92,263.95L558.13,267.92L557.39,268.52L556.18,272.44L556.31,273.91L557.94,275.68L558.05,276.47L557.38,277.75L557.77,279.34L557.35,280.74L558.55,285.5L559.08,286.3L560.18,286.92L560.77,287.92L560.11,290.09L560.44,294.31L560.23,296.99L560.35,300L560.83,301.3L560.18,302.35L559.96,303.51L558.63,305.15L557.82,306.63L555.63,308.38L552.99,309.25L550.43,310.86L548.35,313.39L545.79,315.49L543.75,317.6L543.22,317.63L542.95,319.52L543.65,320.82L544.27,323.57L544.24,325.99L544.83,327.84L544.09,330.55L544.19,331.77L543.33,332.97L541.78,333.88L538.26,335.31L536.67,336.56L536.05,337.73L536.92,338.54ZM585.32,293.66L586.32,295.73L586.8,298.86L586.84,301.11L587.4,303.23L586.52,305.09L585.75,303.46L585.06,303.82L585.39,306.8L584.15,309.24L584.08,311.38L581.05,319.69L580.11,322.59L578.59,326.22L577.22,330.8L575.9,333.77L574.57,334.95L573,335.21L571.13,336.3L570.07,336.23L569.32,335.55L568.09,335.2L567.31,334.45L566.55,332.37L566.88,329.68L566.17,327.59L566.03,324.86L566.84,322.61L567.88,321.7L569.1,319.44L569.66,317.95L569.9,316.35L569.4,315.2L569.46,314.11L569.02,312.65L569.04,309.73L570.4,307.5L570.64,305.92L571.85,305.78L572.59,305.16L573.78,305.2L574.1,304.62L575.86,304.29L576.3,303.64L580.17,300.5L580.78,298.61L583.12,296.36L583.49,295.29L583.54,293.74L584.45,292.51ZM600.56,322.36L599.81,322.62L599.02,321.64L600.24,321.15Z" class="land" id="africa" title="Africa"/>
    <path d="M751.96,188.7L752.5,189.79L751.56,191.36L751.47,192.74L749.19,194.46L746.77,193.43L746.31,190.82L747.46,189.73L747.47,189.18L748.57,188.72L751.09,188.44ZM780.82,193.17L783.05,194.21L784.24,193.86L784.21,195.96L784.63,197L785.58,198.01L785.02,201.06L783.66,201.87L783.82,202.73L783.4,203.85L784.52,205.75L784.51,206.58L785.1,207.77L786.19,207.66L786.91,207.1L787.96,207.33L789.22,208.96L789.68,208.25L790.53,208.52L790.36,209.67L792.06,211.26L792.02,212.78L789.75,211.24L789.17,209.95L787.39,208.44L787.05,209.78L785.11,208.34L783.65,209.31L782.54,208.51L781.79,207.53L782.49,206.54L782.3,205.82L780,205.38L778.59,200.59L779.64,201.5L780.18,200.94L779.79,199.94L779.85,198.56L779.34,196.34L779.5,193.52ZM782.34,209.83L783.74,209.98L784.75,210.96L785,212.55L784.32,213.91L783.34,212.96L782.71,211.48L781.89,210.54ZM597,212.56L598.17,212.47L598.07,213.45L596.6,213.51ZM795.31,212.91L796.27,214L796.14,214.77L796.93,217.43L795.83,217.39L795.2,216.75L794.62,215.35L793.05,213.83L792.67,212.78ZM788.05,215.87L789.92,216.12L789.68,217.48L789.09,218.43L787.57,219.08L786.84,218.27L786.95,215.78ZM793.92,216.75L794.9,216.65L795.34,218.55L796.19,220.24L795.63,220.99L794.9,220.55L794.71,218.57L793.72,218.11ZM774.62,226.15L774.66,225.26L776,223.55L776.61,223.21L778.84,219.95L779.35,219.55L779.33,218.36L780.04,218.01L780.61,219.31L779.39,220.9L778.3,221.37L777.53,223.5L776.39,224.73ZM791.21,222.88L791.09,221.2L791.83,219.56L792.55,220.07L791.79,221.03ZM790.66,224.13L788.95,222.77L788.55,221.22L789.58,220.82L789.33,219.47L789.66,218.23L790.39,217.88L791.32,218.57L790.5,221.54L791.06,223.18ZM794.51,221.79L793.91,222.29L792.73,222.31L792.34,221.69L793.22,220.66L794.38,221.01ZM670.39,221.7L671.15,221.75L672.51,223.15L674.52,226.17L674.75,227.18L676.11,229.87L676.13,231.12L675.58,232.66L674.88,233.26L673.09,234.11L671.81,234.01L671.31,233.54L670.56,231.36L670.26,228.91L670.42,224.66L670.86,223.28ZM798.58,223.29L799.12,223.44L799.6,224.84L800.2,228.11L800.61,228.61L800.75,230L799.47,231.67L798.62,229.73L797.56,231.46L798.15,232.53L798.47,234.11L797.94,235.12L795.59,234.04L793.95,232.73L793.57,230.82L794.09,229.52L793.36,228.65L792,228.19L791.82,229.49L789.26,228.63L788.52,230.79L788.08,229.63L788.21,228.18L788.73,227.48L790.29,227.06L790.53,226.28L791.6,225.29L793.93,226.69L794.46,225.61L795.25,225.75L795.52,224.42L797.32,223.88L796.83,222.17L797.1,221.88ZM773.62,231.8L774.46,230.9L774.98,231.85L776,232.51L776.02,234.23L777.08,233.87L777.43,234.48L778.81,235.36L780.59,235.94L780.39,236.95L777.79,237.83L778.89,238.88L778.73,239.33L777.37,239.7L776.62,239.41L775.88,240.26L776.39,241.68L775.1,241.82L776.4,243.53L777.73,245.94L777.19,247.07L777.81,247.94L779.39,249.17L780.36,250.26L779.11,250.81L778.16,250.61L776.91,251.08L776.29,252.67L776.12,254.48L776.39,255.93L773.55,258.2L773.16,260.07L773.54,260.87L772.84,262.82L771.72,265.06L768.13,266.92L767.77,264.73L766.52,264.04L765.7,264.61L764.97,263.73L763.43,263.74L762.37,264.43L761.5,264.17L760.18,264.86L760.23,263.32L758.97,262.92L758.06,263.32L756.76,262.78L755.8,262.89L755.3,257.96L754.66,256.71L753.73,256.25L752.92,255.04L753.2,253.34L752.32,252.29L752.2,250.87L752.66,248.6L753.48,247.22L754.18,246.88L755.19,247.88L756.2,247.88L757.86,248.53L758.45,247.82L758.66,245.56L759.98,244.21L762.78,243.51L763.63,243.08L764.69,241.35L765.97,239.72L766.29,238.59L766.97,238.54L768.86,237.2L770.32,237.11L769.98,235.94L771.01,235.54L771.86,233.62L772.78,232.35ZM717.18,236.53L719.86,236.51L721.18,237.66L722.18,239.16L722.38,240.21L726.45,243.15L728.54,246.14L729.18,246.58L730.18,246.14L731.41,247.96L732.28,248.2L733.33,249.37L734.22,250.92L735.28,251.13L735.89,251.85L737.04,251.89L737.91,253.29L736.91,254.06L736.91,255.16L737.71,256.3L739.5,256.79L740.04,259.65L740.81,260.2L740.29,261.15L742.33,261.13L742.84,261.49L744.08,263.48L743.48,265.12L743.43,269.63L743.14,271.79L742.57,272.19L741.85,271.38L741.08,272.01L739.88,271.29L739.71,272.53L737.69,269.86L735.22,267.89L734.19,266.86L733.1,265.07L731.6,263.68L729.63,260.37L729.67,259.69L728.66,257.64L728.18,256.11L726.93,254.45L726.2,253.11L724.97,252.3L723.93,248.61L723.27,247.29L720.83,245.81L720.49,244.24L719.92,243.82L718.7,241.88L717.21,241.1L714.46,238.04L713.59,236.35L713.61,235.45L714.72,235.3L716.17,236.32ZM717.37,245.81L715.53,244.85L715.5,244.01L717.23,245.31ZM806.77,246.8L806.09,246.01L807.14,245.04L807.23,246.25ZM804.81,250.7L806,249.69L806.72,248.53L807.45,248.35L807.51,249.86L806.39,250.6L807.5,252.27L805.52,251.91L805.26,252.47L805.69,255.72L804.71,254.22L804.76,252.51L804.32,251.85L803.92,249.39L804.49,247.48L805.55,247.94L805.57,249.13L804.58,250.16ZM796.86,250.22L795.58,251.92L793.7,252.45L792.34,252.38L791.83,251.87L788.36,252.03L787.2,251.84L784.19,251.98L783.57,252.9L783.25,254.43L783.48,255.54L784.64,256.8L785.05,257.87L786.07,257.98L787.45,256.2L788.7,256.45L789.58,255.88L791.28,255.88L792.07,255.28L792.65,255.53L792.64,256.68L791.72,256.26L791.05,256.56L790.19,257.79L787.96,259.46L786.93,259.73L788.3,260.97L789.76,263.78L789.3,265.14L790.99,266.72L791.01,267.5L789.06,267.97L788.2,269.11L787.04,268.25L787.47,266.67L785.57,264.93L786,263.68L786.04,262.33L784.93,262.06L783.78,263.31L784.22,265.42L783.97,266.65L784.06,268.37L783.58,270.08L783.61,271.35L781.92,271.84L781.02,270.98L781.83,267.74L781.91,266.48L781.41,264.67L780.21,264.87L779.74,263.64L779.7,262.38L780.58,261.46L781.26,259.68L781.25,257.99L782.57,255L782.68,252.67L783.95,250.3L784.65,250.8L785.74,249.27L787.22,249.51L787.65,249.99L790.01,250.15L791.29,250.69L792.36,250.44L793.95,250.73L795.14,250.13L797.11,247.94L797.8,248.58ZM720.26,248.7L721.53,250.29L721.39,251.41L720.06,250.38L719.6,248.83ZM841.7,261.87L841.37,269.73L841.1,273.96L840.69,275.23L840.96,275.77L840.32,282.93L837.73,279.63L836.18,279.92L834.72,279.78L835.52,277.97L834.66,276.89L835.09,275.61L834.02,273.95L833.7,272.32L833.15,271.11L830.54,269.36L829.25,269.02L827.51,268.09L825.34,267.83L823.95,266.63L822.5,265.71L822.01,265.78L821.17,264.31L819.95,266.57L819.17,266.68L818.62,265.41L818.66,264.09L817.57,263.06L819.98,261.32L821.13,261.67L821.97,261.17L822.04,260.23L819.35,260.78L817.52,260.69L816.75,259.87L816.51,258.48L814.74,257.94L814.66,256.2L816.19,255.71L817.1,254.9L818.49,254.6L820.86,255.78L822.26,255.84L823.03,257.84L822.58,259L822.69,260.53L825.04,264.21L826.3,264.25L828.49,261.79L828.93,260.79L830.2,260.54L831.01,259.39L832.94,258.23L835.27,259.23L838.42,261.03L840.74,261.34ZM826.2,255.54L827.62,255.78L828.7,256.88L827.46,257.06ZM724.95,259.19L724.14,258.82L723.4,257.31L724.15,256.4L725.24,258.7ZM805.95,258.81L804.3,259.02L804.55,257.74ZM744.18,258.83L745.03,261.41L745.89,262.18L745.49,263.32L743.98,262.57L743.43,260.49L741.61,260.04L742.9,258.37ZM826.41,258.58L828.44,258.79L828.4,259.45ZM797.06,258.95L796.67,259.56L795.5,259.92L795.41,258.89ZM750.13,263.13L748.46,263.81L748.66,261.73L749.8,261.83ZM810.34,262.7L812.07,263.1L813.35,264.98L813.16,265.91L810.54,264.19L809.47,264.6L808.09,264.19L806.55,264.48L805.63,263.73L805.99,262.7L809.43,262.46ZM802.23,263.42L803.22,264.4L803.2,265.18L801.66,265.8L800.27,265.01L799.89,263.69ZM791.77,268.15L791.39,268.79L791.1,270.88L790.56,271.77L789.95,271.36L790.52,270.28L790.85,268.37ZM790.17,270.47L789.5,269.83L789.48,268.85L790.43,268.37L790.54,269.39ZM725.9,17.64L728.06,17.96L727.81,16.86L730.46,17.45L733.01,17.55L736.99,18.25L736.18,19.63L732.27,19.77L727.47,20.63L725.03,20.26L721.59,19.14L720.6,17.43L722.34,16.7ZM740.72,18.8L747.81,19.18L749.76,19.89L748.2,20.33L745.02,20.19L739.97,19.24ZM676.39,21.29L675.89,22.08L673.17,21.62L673.42,20.9ZM735.91,22.59L739.22,23.45L739.94,24.36L734.11,23.75L733.77,22.67ZM592.21,24.69L590.44,23.99L592.14,23.59L594.03,24.48ZM77.12,28.71L78.8,29.56L77.51,30.08L73.49,30.47L72.7,30.28L74.65,28.82ZM821.26,30.73L819.9,29.64L821.11,28.82L823.05,30.28ZM805.22,34.11L801.4,33.41L802.01,32.93L804.59,33.29ZM65.92,35.86L67.25,36.38L68.63,37.78L71.15,39.35L71.17,40.95L72.97,40.84L74.49,41.45L76.34,41.43L77.47,43.48L74.6,45.11L70.59,45.67L69.38,46.74L66.72,47.71L65.24,48.88L63.86,48.68L63.43,47.91L61.59,47.44L61.26,46.84L62.23,45.54L60.59,45.14L57.42,45.5L57.68,44.22L55.39,44.6L55.25,45.41L52.33,46.68L58.92,41.17L65.65,35.75ZM826.27,65.49L825.42,64.27L827.75,64.65ZM787.89,78.2L789.62,80.04L791.46,81.57L793.21,83.67L793.97,85.31L796.02,87.21L799.43,90.91L802.57,93.96L799.93,94.31L800.89,97.86L801.5,98.91L803.63,100.54L805.61,102.64L803.58,102.19L803.82,104.14L802.19,102.99L801.38,100.8L800.33,99.39L800.03,98.04L797.78,95.72L796.8,93.15L794.68,90.19L793.52,87.98L791.25,86.39L789.95,84.72L789.68,83.85L788.01,81.43L789.46,81.1L788.64,79.5L787.13,78.55ZM821.32,106.59L820.23,107.63L819.48,107ZM811.54,110.42L814.32,110.99L815.41,111.55L817.1,113.44L815.69,114.17L814.12,114.38L813.55,115.87L813.78,117.21L811.48,116.39L809.25,115.35L808.18,115.46L807.45,116.11L805.79,115.42L805.85,116.27L807.19,116.84L807.3,118.76L806.21,118.58L805.94,117.49L804.41,115.97L804.14,115.13L805.43,113.31L806.77,113.36L806.2,110.74L805.29,108.51L803.99,107.11L804.23,105.98L807.43,108.18ZM809.7,119.23L811.55,121.69L812.93,122.72L814.12,124.16L815.08,126.53L814.66,126.97L815.05,128.82L814.22,129.03L814.33,130.29L815.33,131.85L815.84,133.36L815.67,134.98L816.29,136.42L817.42,137.51L816.63,138.21L816.74,139.36L815.66,140L814.65,138.53L813.77,138.96L813.85,140.84L812.27,139.58L811.9,141.18L808.19,140.49L807.43,140.91L808.74,142.06L807.55,142.54L807.24,144.54L806.02,144.57L804.86,143.45L804.16,142.18L804.64,141.49L802.59,140.63L801.28,140.85L800.87,141.4L798.98,142.13L796.69,142.38L796.76,143.58L795.59,142.94L793.52,143.19L793.23,141.84L794.12,141.77L795.05,140.75L796.84,138.2L798.1,138.37L800.2,138.11L802.44,137.44L804.09,138.23L804.83,137.37L804.29,136.65L805.06,134.21L806.7,134.11L806.9,133.53L808.62,132.66L809.18,130.63L810.08,129.67L809.74,125.39L807.62,121.73L808.14,120.93L810.23,120.81ZM802.24,142.28L803.02,142.38L803.8,143.7L803.11,144.39L803.04,145.56L801.26,144.7L800.53,145.2L800.34,146.88L798.98,146.64L797.91,144.7L798.42,143.14L800.5,143.06L801.37,141.95ZM794.65,144.41L795.67,144.24L796.98,145.54L797.69,146.88L797.34,147.69L797.66,151.56L795.92,152.3L794.76,151.93L794.74,150.92L793.84,149.33L794.41,147.61L793.17,146.07L792.9,146.85L790.87,145.6L790.93,145.18L792.47,144.3L792.54,143.65L793.74,143.53ZM777.92,180.15L776.94,181.01L776.11,180.41L774.97,178.43L774.79,176.61L776.14,172.31L777.44,171.52L778.6,172.5L778.49,175.24L778.59,177.54L778.44,179.03ZM627.69,5.17L630.82,5.78L630.95,7.02L626.31,7.28L625.27,7.55L620.04,6.76L622.29,5.79L621.45,5.36L625.83,4.72ZM632.1,7.21L637.53,8.08L638.6,10.28L635,10.3L628.76,9.59L624.92,8.73L627.17,7.35ZM644.18,9.29L649.58,10.31L650.68,11.07L648.19,11.65L643.49,11.81L640.58,10.64L641.48,9.07ZM541.39,157.83L538.98,151.83L540.09,149.96L541.14,145.09L541.9,142.31L542.67,141.33L542.34,139.14L541.75,138.01L541.96,136.89L542.61,137.16L543.45,135.13L543.64,134.01L545.73,134.53L547.61,133.69L549.19,134.37L550.74,134.4L552.4,133.93L554.09,133.05L556.2,133.08L559.37,132.16L561.36,132.58L563.01,132.45L563.47,133.44L564.67,132.43L563.85,130.96L562.86,130.43L563.22,128.97L561.67,125.67L562.59,125.53L562.93,124.41L565.62,126.87L567.47,127.31L568.45,127.2L569.1,126.41L571.21,124.79L571.77,124.68L572.78,126.96L572.3,127.48L573.99,128.8L574.7,128.72L575.65,131.21L576.75,131.76L578.52,132.05L579.77,133.33L581.45,134.21L584.31,134.6L588.9,133.52L587.85,130.36L587.37,127.06L586.56,126.19L585.16,125.49L585.92,124.73L585.57,123.79L584.48,123.7L583.57,122.37L584.37,121L585.58,121.02L586.34,121.57L588.35,120.78L587.86,119.81L586.37,118.76L585.37,116.92L583.63,116.91L582.56,118.73L581.83,116.89L581.75,114.77L579.74,114.29L578,112.46L576.35,110.18L575.01,109.76L575.01,108.8L576.15,108.79L577.06,106.46L579.84,106.33L580.33,105.78L580.8,103.81L580.55,102.29L579.71,101.39L577.98,101.75L575.27,100.9L573.54,101.63L572.66,102.4L571.11,102.77L570.94,103.35L569.24,102.62L569.97,101.96L567.21,98.89L564.56,98.25L564.12,97.19L563.19,96.78L563.03,95.55L563.6,94.62L562.9,93.78L563.04,92.26L563.57,90.94L564.42,90.62L566.59,92.33L567.46,91.76L566.96,89.92L568.29,88.42L569.95,87.77L570.95,86.41L573.11,87.17L574.71,86.56L575.45,87.18L577.31,87.18L579.31,88.32L580.51,89.36L581.08,88.68L583.39,89.92L584.01,89.92L585.35,88.61L586.58,88.47L587.78,89.02L588.57,88.39L589.86,88.48L591.46,89.63L593.82,89.98L593.98,89.3L595.76,89.72L597.42,89.11L597.56,87.96L596.82,87.3L594.45,86.65L593.19,85.64L593.43,85.54L591.88,84.14L590.13,83.69L589.53,81.93L590.07,80.49L590.93,79.58L589.98,78.46L588.16,77.78L585.49,79.46L583.5,77.97L580.6,75.29L585.17,74.67L586.06,73.05L585.39,71.76L583.29,70.72L583.31,69.3L584.59,67.73L585.39,65.74L585.91,63.01L585.36,58.39L583.28,48.92L586.69,47.14L589.49,44.85L591.99,43.56L594.22,42.02L595.06,40.44L592.67,37.14L593.94,37.59L594.74,35.84L593.45,35.79L591.63,34.39L589.37,33.8L588.66,32.93L588.45,30.97L586.95,30.53L586.97,29.5L589.24,28.43L589.46,25.81L590.38,25.21L594.16,25.16L597.17,25.75L597.68,27.37L596.97,28.79L598.93,29.86L600.17,31.73L599.95,32.22L601.75,35.48L604.63,36.87L604.78,38.83L603.97,39.6L602.85,41.91L601.81,42.5L599.11,41.67L597.98,42.42L600.78,43.08L604.33,43.35L605,42.47L607.37,41.25L607.4,40.08L608.39,39.11L606.65,37.3L606.58,36.38L610.25,35.76L612.66,37.16L612.89,35.97L608.89,35.06L606.59,35.45L604.23,35.16L603.05,33.77L603.26,31.2L599.56,29.07L600.18,28L603.78,26.8L603.49,28.08L604.37,29.34L606.17,29.68L608.88,29.43L606.02,28.66L604.96,27.82L609.26,26.54L611.22,26.57L614.45,27.35L616.55,28.26L619.6,28.26L617.13,26.95L613.93,26.29L612.31,24.71L611.66,23.45L617.51,23.19L623.3,22.6L622,20.56L623.22,19.41L627.37,18.24L633.54,17.57L634.97,16.82L639.99,17.38L642.86,16.6L642.63,16L645.62,16.01L646.66,15.45L645.81,14.74L648.54,13.18L650.01,12.92L654.24,13.51L653.06,14.28L655.04,14.71L658.58,14.89L660.25,15.41L666.31,15.4L670.1,16.24L673.86,17.57L674.72,19L672.53,20.41L669.42,21.49L667.51,23.12L665.79,23.31L665.23,24.57L667.75,24.48L671.38,23.7L670.97,22.28L675.49,23.08L679.67,23.41L681.99,23.1L688.58,23.39L689.37,24.29L692.71,24.99L699.74,25.06L700.09,24.43L698.59,23.54L700.22,22.96L703.32,23.57L707.74,23.67L710.84,24.44L714.2,26.75L712.62,27.35L718.01,29.94L721.9,30.96L722.33,30.53L721.8,27.86L724.66,28.94L726.36,29.24L729.38,28.57L733.09,29.3L734.19,28.74L737.08,28.38L734.66,26.27L739.07,25.67L746.61,26.15L749.6,26.78L753.29,26.76L756,27.15L760.2,28.87L762.94,29.49L766.23,30.71L768.77,30.59L772.49,30.01L777.13,30.16L780.65,30.83L783.53,32.13L784.8,33.55L789.66,34.66L790.59,33.92L794.13,33.73L795.23,34.03L800.45,34.33L801.38,33.68L804.33,34.96L807.09,35.48L808.69,36.29L810.53,36.18L810.78,35.58L808.13,34.1L806.19,32.68L811.01,33.05L813.01,33.45L818.85,33.35L821.31,33.93L826.27,34.64L830.11,35.75L843.42,46.68L841.7,48L838.94,47.62L839.82,48.46L844.07,49.83L845.64,51.1L848.11,52.05L850.27,53.5L850.45,54.57L845.62,53.79L842.47,55.2L841.64,56.01L839.96,56.32L838.99,57.04L839.18,58.23L837.01,60.07L836.67,61.15L833.38,59.6L830.96,59.66L829.07,60.45L827.16,59.93L825.38,61.06L822.56,61.23L822.3,61.84L823.48,63.41L823.25,65.96L823.85,67.06L825.87,67.99L827.83,68.23L827.71,69.22L829.25,70.86L830.64,71.23L832.05,72.61L831.88,73.18L830.08,72.52L829.49,73.04L830.58,75.26L833.04,77.1L832.71,77.77L830.42,77.75L829.65,78.83L830.12,80.07L831.25,81.31L829.41,82.87L830.44,84.63L830.76,86.16L829.45,88.77L827.67,87.2L824.89,83.99L823.05,82.46L817.35,76.76L815.99,75.29L813.57,71.21L814.13,69.83L813.89,68.89L812.72,68.05L814.11,67.89L815.28,67.22L816.13,66.03L816.08,63.93L817.02,62.45L817.61,60.9L817.42,60.11L818.6,59.05L819.89,58.66L819.33,57.41L815.93,53.48L814.29,53.9L815.78,56.1L814.76,56.48L813.66,59.14L810.14,57.56L809.7,56.1L808.18,56.31L806.53,55.72L804.74,56.21L803.25,56.08L802.36,57.01L802.82,57.62L802.42,59.07L801.5,60.24L801.41,61.84L802.86,62.71L804.68,63.24L802.78,64.09L800.91,63.67L800.53,64.49L797.11,64.68L797.9,63.84L795.79,62.76L793.25,62.56L790.92,62.03L790.64,62.86L787.84,63.16L787.32,63.51L784.45,63.03L783.85,63.72L782.44,63.09L777.12,63.21L775.34,64.31L775.33,65.07L774.14,66.66L774.53,67.85L773.79,68.23L772.34,70.39L771.94,72.89L770.12,75.28L768.85,76.52L769.3,77.17L771.03,77.62L773.2,77.51L774.42,79.62L775.78,79.95L776.8,80.82L779,80.66L779.55,80.19L778.37,78.43L780.14,78.81L780.88,78.56L783.43,79.98L787.34,81.91L788.56,84.43L789.73,85.02L789.8,87.95L790.72,90.09L792.76,93.06L794.05,96.43L793.32,98.44L793.36,100.03L792.95,101.06L793.29,102.69L792.99,105L791.94,107.06L791.47,109.23L791,109.6L790.93,111.33L790.56,112.32L788.1,114.55L786.92,114.98L784.85,114.29L783.94,113.24L782.54,113.18L781.94,115.2L781.28,115.53L780.07,117.07L779.79,118.14L780.97,120.89L778.57,123.54L777.04,124.36L777.4,126.22L778.59,126.62L780.76,128.11L782.02,129.56L785.11,132.48L786.18,134.21L786.91,136.45L787.46,136.79L787.53,139.27L785.78,139.54L785.89,140.28L783.87,140.01L782.49,141.14L781.18,141.51L779.88,139.36L780.23,137.37L778.88,135.07L777.51,133.79L779.07,133.45L777.21,130.79L775.47,130.54L774.38,131L773.3,130.01L771.87,129.71L772.28,128.33L772.16,125.96L771.7,125.19L768.32,123.9L766.17,124.42L764.1,125.71L763,127.33L762.63,125.6L761.62,124.83L762.32,121.91L760.83,120.94L758.99,120.75L758.13,122.91L756.29,123.97L756.01,125.57L755.52,126.35L754.06,126.67L752.64,126.46L752.71,128.1L754.46,129.53L757.04,129.99L757.86,131.1L757.97,132.3L759.52,132.97L761.19,131.1L762.01,130.67L764.81,131.88L767.36,131.99L767.75,133.54L766.21,133.5L764.19,134.67L763.3,136.44L762.64,137.07L761.44,139.83L762.9,141.22L764.83,142.06L766.4,144.29L768.06,146.31L768.4,147.47L770.17,148.41L770.59,150.08L769.95,150.53L771.98,151.84L772.98,153.15L770.99,154.32L771.68,155.15L774.19,156.48L774.21,158.55L774.74,161.45L773.46,161.7L772.33,165.59L771.64,169.42L771.62,170.49L770.52,171.68L770.44,172.64L769.77,173.78L768.45,173.63L768.66,174.87L767.81,176.2L767.36,176.18L765.32,178.33L765.31,179.09L762.82,179.83L761.92,179.51L761.13,180.16L760.48,179.71L759.75,181.21L758.65,180.78L757.84,181.44L754.76,183.01L753.7,182.66L752.96,183.6L750.79,184.17L749.43,185.3L749.5,185.88L750.62,186.99L749.7,187.81L748.05,185.69L748.44,183.86L747.34,183.67L746.33,184.04L745.88,183.38L743.91,183.17L741.66,184.5L741.65,185.24L739.85,185.55L740.19,186.28L739.81,187.73L738.54,188.87L738.08,192.03L739.05,193.53L741.01,195.34L741.07,196.08L743.41,198.74L746.01,200.58L748.18,203.33L748.63,203.67L749.64,205.82L750.6,208.61L750.74,210.48L751.28,211.52L750.82,212.53L751.09,215.51L750.17,216.84L748.76,218.07L746.12,219.81L744.86,219.69L744.87,220.72L744.18,221.67L744.41,222.26L741.57,224.03L741.14,224.98L740,225.68L739.74,224.97L739.61,222.37L740,220.88L738.96,220.55L737.74,219.34L735.69,219.14L736.13,218.21L735.53,217.38L734.55,218.14L734.3,216.37L733.12,214.58L730.02,212.39L729.27,212.62L727.62,212.31L727.65,209.98L726.77,209.69L725.06,210.24L725.37,211.23L725.14,212.38L725.37,214.07L724.59,216.36L724.36,218.22L723.62,220.06L723.76,221.96L724.54,223.64L725.43,223.32L725.99,223.97L726.24,225.4L727.22,226.7L727.87,229.37L728.29,230.23L729.56,231.25L730.89,231.24L731.8,232.5L733.36,233.48L733.95,234.48L735.25,235.57L736.56,237.76L736.76,239.23L736.53,241.25L736.81,242.06L736.82,243.96L737.89,245.1L739.28,248.65L737.62,248.75L734.9,247.44L730.84,244.11L730.82,242.92L729.12,240.61L728.76,238.4L727.91,235.37L727.82,234.09L727.12,232.61L725.87,231.2L725.89,230.46L723.88,227.93L722.47,226.45L721.5,226.2L721.43,225.08L722.07,221.62L721.58,218.91L722.08,217.9L722.09,215.94L721.75,215.47L721.77,213.89L721.13,210.86L720.02,209L718.41,205.36L717.72,202.06L717.32,201.59L717.2,199.91L716.53,199.96L715.76,198.21L715.07,197.38L714.86,199.13L714.44,199.83L712.23,201.11L711.38,202.55L710.1,202.24L708.93,200.72L707.97,201.24L708.4,196.56L707.68,194.51L706.37,192.26L705.31,191.83L705.91,190.49L703.87,188.48L702.87,188.43L701.59,187.14L699.72,184.85L699.33,183.2L698.02,180.53L697.09,179.58L695.93,180.23L694.81,178.61L694.46,179.73L695.15,181.33L694.2,182.77L693.17,182.22L691.26,183.3L689.1,183.4L688.16,182.74L687.51,183.3L686.01,183.79L685.48,184.65L686.05,186.4L685.62,187.65L684.51,188.93L682.68,189.67L680.72,191.51L679.23,194.22L678.09,194.94L677.01,196.43L674.89,198.1L674.81,199.84L673.52,200.59L672.1,200.8L671.56,202.44L670.59,202L669.68,202.59L669.22,204.66L669.69,206.27L669.65,207.45L670.53,210.21L670.4,212.38L669.55,214.66L669.36,216L669.72,217.22L669.88,220.05L668.64,220.1L667.67,222.12L667.71,223.46L666.18,223.99L665.58,224.69L665.31,226.32L663.85,227.32L662.26,226.25L661.02,224.65L660.28,222.87L660.25,221.35L658.9,218.56L658.22,216.69L656.6,214.43L655.16,211.13L654.73,209.22L653.71,206.54L652.34,204.66L652.2,203.61L650.74,201.48L650.23,200.16L649.35,196.39L648.2,192.95L647.81,190.95L647.21,189.22L647.51,186.84L647.1,185.04L646.12,183.16L646.01,181.27L645.31,181.29L644.69,182.75L645.4,183.69L644.9,184.92L642.36,186.27L641.52,186.26L639.76,185.11L636.26,181.53L639.3,180.31L639.33,179.01L637.82,179.7L636.61,179.41L634.85,178.3L634.08,177.06L632.92,176.16L631.94,176.28L630.8,175.1L630.17,173.21L628.85,172.87L628.68,171.68L627.79,170.54L625.86,171.26L623.43,171.41L623.17,171.81L620.54,171.16L619.99,171.73L617.48,171.58L616.83,171.97L614.4,172.08L612.3,171.49L608.94,170.85L607.86,171.05L607.13,170.61L604.38,170.29L603.07,169.84L601.67,166.21L601.13,165.61L599.86,165.25L598.04,165.97L596.17,167.35L595.52,167.5L594.37,166.89L592.89,166.79L592.13,166.09L589.93,164.85L589.23,163.89L587.95,163.22L586.96,163.15L585.81,162.22L584.99,160.28L583.78,158.91L583.61,158.02L581.5,155.45L580.43,156.04L578.57,154.84L578.69,155.74L577.52,156.33L576.23,156.1L576.35,157.38L577.16,159.46L579.61,163.85L581.12,165.31L582.81,166.46L583.62,168.15L583.19,168.8L584.97,172.13L585.87,169.22L586.51,168.66L587.36,169.48L587.33,170.7L587.8,172.53L587.27,174.56L588.54,174.84L589,175.71L590.96,175.16L594.38,175.42L595.67,174.76L596.43,173.03L597.3,172.28L598.28,170.79L599.3,169.83L599.74,168.48L600.41,168.09L600.77,172.35L601.7,174.14L603.47,175.92L607.27,176.83L610.27,180.29L611.08,180.52L611.12,181.46L610.2,183.8L609.02,185.06L608.1,187.35L606.47,187.88L606.26,189.95L606.7,191.86L604.99,192.24L603.65,193.26L603.47,194.63L602.76,195.33L600.61,195.67L599.67,198.28L596.93,198.39L595.73,199.19L592.96,200.13L592.3,200.7L591.95,201.8L592.13,202.77L590.5,203.81L587.59,204.77L586.63,205.38L584.41,206.07L583.61,206.66L582.63,207.98L580.75,207.98L579.21,209.24L577.53,209.87L574.41,210.28L572.78,211.98L571.61,211.97L569.73,212.62L568.44,211.9L567.7,210.51L567.78,209.31L567.19,208.11L566.91,206.34L565.89,202.78L566.16,201.55L565.64,199.26L564.7,198.01L564.39,197L562.8,195.54L561.22,192.96L560.82,191.65L559.7,189.46L557.73,187.81L556.4,186.99L554.8,184.41L554.38,182.55L554.56,180.89L554.02,179.3L552.52,176.6L550.93,175.06L549.88,174.72L548.76,173L548.56,171.47L547.4,169.97L545.79,167.22L543.77,164.49L542.53,162.53L540.98,162.16L541.33,160.99ZM823.86,271.89L823.79,273.39L822.87,273.92L822.55,272.87L822.73,271.91ZM747.43,272.86L748.21,273.53L749.96,273.69L750.93,275.39L755.77,275.9L756.73,274.36L757.86,275L758.94,274.93L760.41,275.73L761.67,275.83L762.25,277.86L763.48,278.39L765.79,278.12L766.77,278.97L766.48,280.62L766.94,281.8L763.36,280.23L761.73,280.63L758.5,280.29L756.02,279.79L754.49,278.95L752.42,278.35L750.93,278.23L750.09,278.65L748.62,278.41L746.91,277.6L745.1,277.42L744.86,276.24L742.02,275.36L743.21,273.21L743.82,272.56L745.89,273.15L746.53,272.53ZM823.12,274.27L822.53,275.47L821.71,275.32L822.15,273.41ZM765.27,276.41L764.21,276.78L762.25,276.52L762.59,275.75L765.68,275.66ZM813.78,279.31L813.15,278.87L813.73,277.59L814.66,276.51L814.94,277.49ZM833.79,280.19L833.08,280.62L831.42,280.16L832.49,278.15L833.35,277.49L834.69,277.33L835.22,278.32ZM801.26,278.23L800.27,279.15L798.55,278.71L800.75,277.92ZM769.5,279.81L770.15,280.62L768.75,281.89L766.8,279.69ZM777.25,280.33L779.32,280.4L779.26,281.73L777.09,281.92L773.75,282.86L773.01,282.56L773.27,281.03L774.23,280.49L775.34,280.69L776.95,279.7ZM789.81,281.29L786.58,282.22L784.86,282.33L781.51,281.56L781.88,280.75L783.86,280.09L786.1,281.18L787.58,280.78L788.36,281.33L789.37,280.61ZM772.71,281.29L771.89,282.31L771.1,281.72L771.14,280.72L772.15,279.97L773.03,280.56ZM802.44,280.68L801.29,281.62L799.74,282.4L796.93,283.43L793.93,286.26L792.28,286.89L791.66,285.67L792.1,284.53L792.92,283.75L794.65,283.05L796.47,281.4L798.26,280.9L800.54,280.79L801.55,280.33ZM781.89,283.76L783.16,284.72L783.97,285.9L782.79,286.73L782,286.43L780.62,285.05L779.21,284.83L779.58,283.79Z" class="land" id="asia" title="Asia"/>
  </g>
</svg>