<?xml version="1.0" encoding="UTF-8"?>
<svg xmlns="http://www.w3.org/2000/svg" width="933.79" height="520" viewBox="13.11 -2.5 933.79 520">
  <!-- Created using SVG Map Generator: dojo.amcharts.com/svg-map-generator -->
  <style>
    .land { fill: #ffffff; stroke: #000000; stroke-width: 0.5; }
  </style>
  <g id="polygons">
    <path d="M558.19,477.1L557.92,477.19L557.2,476.41L557.79,476.26Z" class="land" id="AW" title="Aruba"/>
    <path d="M611.45,443.83L610.55,444L610.91,442.87Z" class="land" id="AG" title="Antigua and Barbuda"/>
    <path d="M604.29,435.22L603.28,435.59L603.34,435.38L604.17,434.87Z" class="land" id="AI" title="Anguilla"/>
    <path d="M524.51,379.32L525.34,375.06L526.16,376.19L525.27,376.87ZM519.95,388.04L519.67,389.81L517.64,391.1L516.64,387.7L518.71,384.86ZM519.96,391.37L520.38,394.14L518.71,394.99L518.54,392.89ZM545.09,413.62L544.05,415.18L540.98,415.48L542.05,413.64Z" class="land" id="BS" title="Bahamas"/>
    <path d="M605.11,437.73L604.93,437.42L605.33,437.49Z" class="land" id="BL" title="Saint Barthelemy"/>
    <path d="M442.78,452.15L440.66,452.12L442.83,438.18L443.69,436.83L445.16,437.08L447.36,433.59L448.78,433.4L449.67,435.95L448.12,439.66L447,446.76L444.31,449.56Z" class="land" id="BZ" title="Belize"/>
    <path d="M607.51,332.76L606.93,333.01L607.84,332.08Z" class="land" id="BM" title="Bermuda"/>
    <path d="M623.09,472.53L622.36,472.38L622.58,470.82L623.53,472.01Z" class="land" id="BB" title="Barbados"/>
    <path d="M691.12,194.76L688.54,197.16L687.71,199.14L681.64,205.06L684.15,204.85L686.55,205.76L685.17,208.42L687.84,209.06L689.44,210.35L692.22,209.05L695.55,209.4L697.15,211.51L695.05,213.83L694.89,215.83L699.24,215.52L695.85,217.91L694.42,220.11L698.7,219.34L696.86,222L699.59,222.73L695.87,228.89L692.82,228.89L693.45,225.65L692.57,223.88L692.51,221.27L691.56,220.54L689.55,223.35L687.07,223.9L683.71,227.29L681.01,227.57L681.07,226.12L683.16,225.49L685.32,223.44L681.72,222.87L679.97,221.87L675.74,222.56L668.25,221.83L663.71,222.58L662.88,220.5L667.34,217.26L667.81,215.33L672.05,209.78L673.43,208.69L678.18,202.23L683.61,196.58L688.1,194.54ZM297.83,201L300.02,201.87L305.86,203.26L306.86,209.49L309.61,210.92L309.83,215.44L308.33,217.19L303.31,215.33L298.98,211.86L299.69,210.55L298.11,209.39L296.34,209.55L297.47,206.35L295.12,206.32L294.37,204.33L292.04,204.58L293.14,202.37L291.86,201.22L294.83,199.47ZM651.74,211.84L649.41,211.94L645.17,210.92L642.64,209.69L640.65,205.89L647.15,207.54L652.03,210.51ZM571.34,240.83L578.72,237.82L582.22,233.66L590.61,229.23L594.45,228.35L599.18,226.4L610.37,217.61L615.27,215.13L619.5,213.51L627.88,211L631.6,210.63L635.22,211.15L637.83,213.05L637.12,215.67L633.64,217.94L630.49,219.4L627.13,218.22L627.57,221.7L630.23,220.88L632.97,221.49L631.1,224.01L628.3,225.91L630.18,227.42L630.96,232.02L637.03,235.49L640.33,235.58L641.34,236.42L644.75,234.67L647.02,235.96L647.38,239.18L639.75,241.97L632.06,244.53L631,243.39L629.21,244.07L628.24,245.83L624.71,248.95L619.18,251.16L617.45,249.34L618.63,245.37L621.87,242.57L626.8,239.99L629.61,239.03L627.78,236.39L621.47,239.26L615.61,240.38L614.38,239.65L612.63,238.89L613.5,236.56L611.73,235.85L614.41,226.04L612.16,224.11L608.96,225.18L607.21,223.35L601.35,228.69L599.04,231.94L598.05,234.4L593.34,238.98L590.98,238.79L589.32,240.8L582.29,240.81ZM635.48,230.4L636.39,229.73L639.21,230.73L644.73,230.26L639.82,233.72L638.96,231.93L636.35,232.24ZM649.66,234.12L650.96,235.59L653.21,234.11L653.49,232.28L656.99,232.59L655.65,234.58L653.17,236.19L647.99,236.77L647.46,234.15L652.53,228.07L654.27,226.8L655.48,228.27L653.03,232.5ZM710.76,2.53L722.19,2.85L741.31,5.12L736.57,6.96L725.51,8.42L720.01,10.58L697.07,14.96L689.33,18.19L681.04,18.8L679.45,19.57L671.51,19.95L671.34,21.08L665.58,22.12L672.28,23.61L663.32,27.43L653.76,27.78L651.8,30.1L644.32,31.87L644.51,33.31L648.76,33.08L647.22,35.34L640.8,36.79L635.07,37.54L634.27,35.66L622.05,35.99L615.89,36.82L597.13,35.78L598.91,33.91L604.97,32.38L612.06,31.85L609.01,29.01L614.46,28.07L613.41,26.53L619.32,23.34L631.58,22.37L632.54,20.97L630.5,18.96L625.94,17.76L628.68,15.35L639.14,15.81L655.97,14.3L664.1,13.03L664.26,11.75L652.54,13.67L642.77,13.38L633.88,14.31L619.65,12.8L617.72,11.12L623.69,9.34L613.41,8.66L619.24,7.74L637,6.29L645.29,5.08L653.89,6.01L657.41,4.39L668.24,2.88L677.23,3.06L685.57,2.39L709.26,2.09ZM609.44,11.31L611.81,13.97L623.18,15.09L623.81,17.51L622,18.7L628.37,19.39L629.31,20.44L614.48,23.7L608.12,26.45L600.04,26.68L592.24,25.4L588.81,22.18L597.15,20.67L586.28,20.63L587.32,18.75L583.38,17.75L583.6,16.28L589.31,13.49L594.61,11.96L608.03,10.61ZM550.9,20.5L556.29,21.69L563.33,24.36L561.27,25.86L561.54,28.26L555.55,28.07L554.99,26.44L548.76,25.49L541.34,26.04L547.51,23.37L540.3,21.98L542.57,20.46ZM577.73,24.64L582.5,25.63L579.91,27.53L570.74,28.54L568.38,25.18L570.48,23.19L576.87,23.81ZM519.77,24L519.82,25.68L504,25.29L517.84,23.44ZM513.89,26.93L516.04,27.72L511.78,30.07L503.12,31.06L498.88,30.04L500.79,28.01ZM577.21,28.62L586.46,28.9L584.26,30.35L573.54,30.29ZM487.5,30.95L482.78,32.39L483.9,33.13L480.26,35.11L471.38,36.03L464.13,37.29L459.62,39.33L451.79,38.34L449.09,37.26L455.49,36.06L471.7,31.27L479.08,31.21L485.01,29.97ZM578.24,33.44L583.76,35.16L590.33,34.72L591.23,36.08L597.57,36.84L592.21,38.23L599.01,41.3L603.65,40.7L608.47,41.35L615.61,40.49L619.27,39.56L627.22,39.49L634.58,40.63L636.85,41.65L635.38,44.9L630.81,46.62L623.51,47.23L609.58,46.49L605.58,47.1L593.77,47.13L593.09,45.85L587.6,46.81L579.12,45.4L579.59,42.03L582.72,39.4L580.98,36.55L570.92,37.05L566.95,34.6L567.71,33.11L573.06,32.6ZM512.26,38.21L517.95,38.93L523.53,38.93L523.15,39.97L518.66,43.12L511.55,44.63L504.73,43.84L493.05,46.29L484.79,47.57L480.37,47.5L479.37,45.56L486.31,44.36L479.67,43.71L473.3,44.4L471.07,43.23L466.59,42.66L475.49,38.12L482.1,36.08L488.29,36L488.58,37.37L493.53,37.4L497.32,41.09L505.86,41.33L507.5,40.24L505.42,36.2L511.37,34.28L515.08,34.41ZM561.15,35.92L558.14,41.07L554.38,43.55L550.44,44.16L542.96,44.17L542.72,41.9L547.59,40.34L535.08,41.29L537.66,39.79L542.36,38.58L540.67,36.93L550.01,35.1L556.03,35.09ZM538.94,38.45L532.87,39.87L530.37,37.51L538.68,36.95ZM573.05,44.06L571.54,45.99L566.16,46.27L560.33,44.67L559.82,43.65L565.78,41.2L571.61,40.83L573.54,42.22ZM450.55,49.33L459.39,48.44L462.34,48.99L467.03,52.21L466.37,53.26L446.27,57.7L442.48,59.62L438.13,60.5L432.29,64.72L418.17,67.02L417.51,63.69L411.97,60.95L418.08,58.27L421.53,55.39L430.21,51.34L429.47,47.97L445.76,46.92ZM570.93,49.05L574.42,50.15L579.71,49.93L582.45,50.75L569.76,57.29L564.35,57.01L557.88,61.59L552.54,61.6L554.31,58.78L554.15,57.13L557.75,51.76L562.26,49.75ZM539.05,50.3L541.9,51.55L549.76,50.64L551.4,51.93L546.08,54.16L546.62,57.98L545.15,62.76L533.32,65.94L531.27,65.55L528.16,60.86L523.69,59.89L521.3,57.12L526.2,55.5L527.38,57.34L531.47,57.18L533.98,55.13L530.08,53.31L534.26,51.12ZM588.36,67.69L593.31,66.84L597.07,67.2L599.51,63.97L597.12,63.71L595.25,61.84L599.56,59.26L599.53,57.17L604.57,53.87L616.82,51.56L622.15,52.12L624.04,57.34L619.03,60.51L622.85,60.49L627.14,59.44L631.79,59.63L632.35,58.2L635.53,57.46L640.27,57.64L646.33,59.18L646.5,61.17L650.74,63.44L659.69,64.65L662.33,67.13L662.27,69.34L665.46,68.69L668.86,69.18L671.93,70.64L675.14,73.6L674.35,75.51L670.78,75.31L668.37,76.39L675.91,77.86L670.39,79.69L667.6,82.69L671.74,84.08L674.57,86.35L678.95,86.47L682.31,87.26L683.53,90.16L687.9,90.86L686.29,92.17L690.22,92.92L692.51,92.21L694.79,94.53L691.18,96.63L689.84,98.38L685.54,100.88L681.84,101.49L680.54,104.18L676.71,104.52L674.46,103.86L672.46,100.1L673.6,98.55L668.63,96.85L667.9,95.11L664.64,96.69L664.51,98.39L659,98.99L662.37,101.88L663.46,104.35L665.94,105.86L668.18,105.87L670.01,107.28L669.66,111.26L671.36,111.14L670.16,116.05L667.39,116.05L664.96,119.59L662.15,117.75L660.04,117.58L654.08,114.86L651.58,113.08L649.45,113.22L651.8,116.64L653.91,117.15L658.77,122.27L657.42,125.08L652.54,123.25L648.04,122.71L644.97,121.6L643.59,119.4L640.18,119.28L635.88,117.48L633.41,114.98L632.99,113.19L629.06,108.61L624.54,107.04L621.14,108.4L612.27,109.77L607.39,108.97L606.3,107.37L607.72,105.33L611.63,103.91L613.15,102.06L619.79,103.5L631.89,101.49L629.46,97.73L638.1,94.03L640.21,92.13L643.65,90.74L641.46,84.45L636.56,81.73L636.17,80.04L628.15,81.82L628.46,79.87L631.4,79.74L633.13,77.97L627.89,75.93L622.36,70.29L620.29,70.89L621.76,72.73L620.69,73.95L616.99,74.45L610.7,73.26L604.9,74.78L601,73.79L597.24,74.04L586.32,72.93L585.87,71.38L579.31,72.28L575.92,70.64L575.64,67.35L581.37,68.05L583.15,66.5L577.84,66.03L575.09,64.8L576.09,62.07L578.6,60.82L578.72,59.31L584.13,55.43L588.03,53.47L593.81,51.6L598.57,50.95L605.99,51.1L595.39,56.6L593.79,61.03L593.85,63.13L596.96,65.63ZM630.72,52L636.45,51.93L640.77,52.91L643.48,55.36L642.07,56.9L635.76,56.45L627.63,57.28L626.02,56.64L626.21,54.52L623.86,53.6L625.01,51.61ZM510.15,56.31L507.93,54.05L505.4,53.02L507.86,51.76L513.21,51.35L516.4,52.23L515.45,53.76ZM466.18,58.24L471.39,57.64L476.31,55.92L481.72,57.53L486.35,57.84L488.86,55.94L492.47,58.8L491.08,63.25L495.96,62.39L495.38,60.87L497.56,55.22L501.02,53.91L506.02,54.69L508.94,57.09L508,59.3L507.49,65.15L504.93,67.13L506.24,69.19L510.77,70.64L514.62,72.99L516.92,73.63L515.72,75.55L512.28,75.65L510.15,74.77L507.52,77.01L509.44,77.43L508.31,79.78L502.49,81.01L499.69,81.11L493.55,79.43L488.59,78.93L487.42,77.23L481.69,79.92L476.98,80.33L473.39,81.41L467.96,82.2L461.09,82.75L452.18,83.04L451.53,80.92L452.92,78.73L446.31,78.3L440.7,77.32L439.84,75L441.2,73.2L454.23,71.91L462.98,72.44L466.53,71.1L460.04,69.62L449.06,70.26L441.81,69.99L439.99,68.43L443.5,66.8L451.92,65.6L443.21,65.14L441.38,63.63L442.61,61.85L447.46,60.2L448.17,58.59L453.53,56.84L469.71,53.65L471.33,54.25L469.46,56.66ZM571.34,240.83L568.46,241.58L559.37,247.59L556.44,250.67L545.65,250.69L542.74,251.83L542.06,256.6L534.21,259.73L527.98,260.86L520.17,264.71L518.74,264.71L516.82,262.54L517.93,260.2L521.67,257.87L523.47,254.65L526.14,251.08L527.98,238.38L523.27,235.03L523.89,232.9L521.78,233.12L521.74,229.82L519.45,230.48L518.82,227.34L508.35,220.62L503.11,217.41L496.29,219.58L493.11,218.71L489.45,218.81L489.2,218.13L485.03,219.14L478.46,215.23L476.36,215.2L474.27,215.84L469.87,214.31L470.28,210.36L468.82,209.9L467.64,212.56L449.88,212.55L433.43,212.55L421.68,212.55L407.58,212.55L398.18,212.55L388.77,212.55L374.67,212.55L358.22,212.55L346.47,212.55L332.36,212.55L315.35,212.55L313.91,212.55L314.17,209.27L311.39,209.1L311.08,206.93L309.26,206.82L308.01,202.15L301.7,201.77L302.89,199.84L299.55,199.42L297.21,197.44L298.95,195.16L298.54,194.29L300.46,190.49L298.03,190.44L302.44,185.6L300.68,185.48L301.23,182.94L298.51,181.92L296.37,182.89L294.38,179.64L297.82,176.83L297.08,174.86L303.42,169.78L304.54,166.6L306.11,164.86L305.36,162.54L301.36,160.05L300.78,158.74L300.53,149.14L300.15,145.93L297.36,142.05L298.32,140.13L297.26,138.71L291.93,139.95L288.22,142.95L282.48,144.61L283.39,142.46L279.8,136.79L281.75,135.08L278.62,135.17L276.31,136.13L271.69,135.36L283.11,121.99L293.13,110.69L301.63,101.39L312.01,90.37L326.17,75.94L333.95,76.77L336.75,79L341.9,80.61L346.06,80.44L349.25,78.02L352.78,77.06L358.98,76.81L361.94,77.27L364.72,75.94L369.59,75.32L378.59,72.94L381.76,73.83L376.5,75.91L387.49,74.05L391.88,72.46L394.92,72.36L394.58,75.46L396.2,77.36L404.7,73.87L405.84,75.93L403,77.6L406.86,77.62L411.94,74.97L416.48,74.93L420.88,75.88L422.79,77.35L428.69,78.35L431.26,79.66L439.97,80.82L442.62,80.1L446.3,81.49L447.72,83.63L443.26,84.43L438.39,86.58L439.29,87.22L444.7,87.92L451.6,88.06L459.05,87.4L464.47,86.24L465.31,87.76L467.85,87.89L471.02,90.72L467.87,91.93L473.33,93.06L473.28,87.76L475.67,85.9L480.55,85.3L482.68,83.89L477.73,84.05L473.82,85.17L472.37,84.38L475.71,82.32L480.26,81.84L487.37,80.42L489.43,81.66L488.78,83.26L492.77,85.91L496.59,85.39L499,87.27L503.95,88L509.86,87.1L515.66,87.82L519.6,87.18L523.35,88.48L525.53,87L520.5,85.7L522.61,84.14L527.73,83.3L528.29,84.52L532.39,85.12L528.3,88.87L529.67,91.12L532.48,90.69L532.52,87.73L534.59,85.97L538.23,85.66L545.35,82.74L546.6,80.62L545.87,77.02L539.26,74.84L538.42,73.05L541.42,70.53L541.05,68.91L543.7,66.11L551.98,62.34L555.52,63.17L559.13,64.99L559.74,66.18L557.9,68.65L559.85,69.87L561.81,72.73L554.35,75.56L557.58,76.67L563.89,76.84L561.78,78.15L561.79,80.77L559.77,83.16L563.27,82.87L566.19,79.84L570.06,78.3L573.14,81.09L572.71,83.6L569.7,84.31L568.46,87.55L570.76,91.18L575.51,89.11L580.36,85.65L583.45,82.21L586.05,81.52L589.24,79.47L587.33,78.5L589.04,74.75L594.96,74.82L597.19,75.64L602.1,75.7L601.15,77.12L606.18,79.19L604.78,82.04L597.97,83.34L598.67,86.96L600.67,89.46L598.38,91.89L593.78,93.8L586.55,96.27L580.65,97.48L576.57,95.03L571.44,95.26L570.91,96.58L572.47,98.46L563.95,102.69L560.6,102.72L554.06,99.01L552.07,99.35L555.67,102.73L564.68,103.68L562.09,106.04L555.69,110.15L552.35,111.26L546.16,110.8L544.85,112.57L537.19,114.49L539.53,115.48L537.42,118.1L534,119.02L529.49,118.92L520.01,126.15L516.69,127.61L514.63,129.86L509,134.6L506.58,137.65L503.12,144.61L504.65,145.85L510.01,145.59L509.17,155.49L509.25,157.28L516,155.73L518.65,155.83L522.03,157.47L526.01,158.35L529.34,160.94L530.72,163.72L538.59,166.43L541.52,168.96L547.7,168.76L554.27,169.89L555.18,172.17L552.78,175.3L552.69,179L549.6,184.89L551.67,188.55L550.95,189.5L554.91,193.22L555.32,196.2L557.8,197.28L560.7,194.53L563.95,193.39L567.97,189.79L567.73,187.19L568.62,179.68L570.04,177.73L568.99,177.07L568.42,172.97L572.97,171.71L579.37,169.29L584.41,166.39L588.37,163.38L590.75,159.32L591.82,156.13L591.81,152.25L591.19,150.5L586.1,146.08L587.2,144.61L592.09,141.44L593.15,139.48L595.54,138.68L596.38,137.06L595.78,132.17L598.46,127.9L598.52,123.53L599.64,121.92L603.81,120.52L610.84,122.18L616.11,123.04L622.25,121.28L627.94,126L629.66,129.72L635.21,130.31L637.42,132.8L634.55,137.7L634.99,141.72L633.07,144.83L637.47,144.6L638.58,146.66L641.52,149.21L647.36,146.97L653.95,143.23L660.3,135.68L662.55,135.57L663.91,139.69L665.15,141.75L665.82,144.91L667.96,147.46L667.18,148.5L668.27,150.82L670.12,151.56L669.26,154.78L671.11,157.28L668.76,161.46L669.82,165.01L671.38,164.39L674.62,169.13L679.33,169.89L679.83,172.01L682.99,171.82L686.59,173.84L684.64,175.1L682.15,175.34L678.96,177.4L673.9,178.88L672.15,178.88L671.43,181.15L674.43,180.19L677.07,178.6L680.6,177.39L681.69,176.18L685.69,176.63L686.48,178.79L684.23,180.26L684.75,181.39L687.92,179.53L689.98,179.36L691.53,180.58L692.47,183.16L690.55,189.39L690.97,190.59L682.73,195.31L678.36,195.53L674.08,196.44L669.5,200.03L663.48,203.7L656.75,204.07L654.17,204.75L653.37,203.85L649.15,203.37L646.17,203.78L643.59,203.35L637.32,203.55L635.23,203.24L630.28,204.07L628.28,204L625.36,205.52L621.6,210.05L616.26,211.11L611.89,213.7L608.46,216.82L605.62,218.86L604.32,220.73L598.37,225.63L594.5,228.07L590.85,228.84L585.51,231.68L583.65,232.24L579.85,235.59L576.19,237.28L576.21,238.4ZM531.91,75.99L536.05,77.82L536.44,81.55L531.93,83.19L527.13,82.74L519.99,80.77L519.25,79.72L525.79,77.88L528.48,75.31ZM617.49,75.11L613.16,76.64L611.59,75.33ZM615.29,80.88L620,77.66L621.51,78.06ZM630.41,84.1L632.62,84.65L630.52,88.97L626.56,90.55L620.59,90.66L620.58,87.93L625.02,84.67ZM638.54,87.44L634.11,87.16L635.88,85.52L640.02,86.29ZM575.25,103.28L577.42,102.1L579.2,103.55L582.14,104.28L584.67,106.34L587.25,107.2L587.82,108.59L586.81,111.18L591.44,110.74L592.98,112.85L588.28,114.78L582.47,113.2L582.77,111.79L578.26,110.68L576.12,112.52L572.45,113.98L569.88,115.76L564.99,116.86L565.7,113.51L558.42,113.42L560.81,111.81L564.72,110.44L565.63,107.7L571.72,100.47L575.57,99.9L574.56,101.7ZM604.11,114.72L605.22,115.9L602.66,117.01L600.8,115.44ZM581.84,118.05L580.28,120L574.28,122.87L570.67,123.19L570.72,121.14L574.79,118.37ZM592.39,121.56L592.28,124.06L589.33,126.55L586.87,125.42L589.78,122ZM576.79,162.3L574.42,164.88L571.09,165.41L570.21,164.56L573.25,162.45ZM283.84,176.87L288.27,177.84L283.29,182.79L280.23,183.29L279.55,182.48L280.09,179.27L281.74,176.76ZM300.41,185.04L298.78,187.95L297.03,185.85L299.35,182.69ZM284.36,183.28L283.75,185.16L281.08,187.79L280.32,185.27L280.9,183.69ZM557.23,186.37L551.86,184.92L552.46,183.34L556.34,183.2Z" class="land" id="CA" title="Canada"/>
    <path d="M471.98,488.22L472.96,491.49L476.74,497.26L478.03,497.93L475.63,498.85L475.46,503.99L474.81,506.69L475.43,508.84L474.02,506.8L473.87,505.09L470.32,504.9L471.1,501.85L469.6,500.11L465.02,497.42L464.79,495.6L462.15,497.9L461.01,496.24L459.12,495.57L458.17,493.9L458.1,491.98L459.29,489.47L458.99,487.17L459.82,486.29L464.12,488.02L465.47,487.24L467.62,487.77L468.64,489.21L470.84,489.48Z" class="land" id="CR" title="Costa Rica"/>
    <path d="M493.27,399.28L497.18,400.04L500.45,399.72L502.01,400.88L503.78,400.89L505.99,402.34L508.08,404.78L511.64,405.08L514.69,406.95L516.17,408.47L518.39,408.68L523.01,412.95L526.38,414.05L528.51,414.22L528.64,416.96L533.23,417.56L535.25,419.5L537.29,420.17L536.57,421.72L534.21,421.87L531.12,423.01L528.43,423.09L524.8,422.37L519.55,423.07L515.12,423.34L516.32,421.7L518.61,420.11L518.83,417.61L514.19,417.09L511.5,414.63L511.07,411.27L510.03,410.52L507.21,410.93L501.68,408.68L500.24,407.29L497.4,407.36L494.61,406.41L492.34,406.29L492.99,404.35L492.33,402.81L487.25,402.73L482.81,406.12L479.57,406.51L478.53,408.16L476.86,407.21L476.99,404.99L479.25,402.9L484.39,400.7L488.09,400.15L491.7,399.08ZM487.11,410.87L485.19,411.79L484.16,409.27L486.52,408.55Z" class="land" id="CU" title="Cuba"/>
    <path d="M565.13,479.94L564.8,480.04L563.65,479.34L562.74,478.21L563.25,477.89L563.59,478.7L564.7,479.22Z" class="land" id="CW" title="Curaçao"/>
    <path d="M492.21,427.03L493.68,427.04L492.54,427.59Z" class="land" id="KY" title="Cayman Islands"/>
    <path d="M613.09,456.8L612.01,454.8L613.04,454.37Z" class="land" id="DM" title="Dominica"/>
    <path d="M550.17,436.55L550.44,434.35L549.18,432.49L550.87,431.51L550.68,429.66L551.72,428.61L551.45,424.34L552.96,423.05L556.68,422.92L561.51,424.94L562.6,424.68L563.64,427.39L566.12,428.1L569.81,430.26L571.54,432.92L569.46,435.22L567.9,433.87L562.78,433.61L560.09,435L558.24,435.25L557.32,434.39L554.91,434.85L552.17,439.4L550.81,438.48Z" class="land" id="DO" title="Dominican Republic"/>
    <path d="M613.36,449.68L612.16,449.7L612.24,448.2L613.01,447.96Z" class="land" id="GP" title="Guadeloupe"/>
    <path d="M608.82,480.28L608.89,479.03L609.58,478.75L609.38,479.98Z" class="land" id="GD" title="Grenada"/>
    <path d="M873.51,68.23L873.35,69.85L869.3,71.06L867.6,70.45L861.42,71.06L862.85,68.38L866.23,68.58L871.84,67.5ZM911.89,41.89L913.39,44.26L908.54,44.21L907.99,42.39ZM871.98,0.15L887.59,1.33L892.89,3.15L904.48,4.42L888.76,7.16L904.52,6.84L904.83,8.6L909.35,9.23L920.76,9.87L928.07,7.95L941.8,8.82L944.39,9.9L931.5,13.13L921.86,14.08L925.18,14.97L921.06,15.96L910.32,15.66L906.82,17.98L910.32,18.6L910.66,21.35L901.96,24.51L897.7,28.62L901.68,27.96L903.86,30.93L911.99,31.77L910.84,34.18L904.15,33.35L900.26,33.58L895.81,35.32L896.88,36.88L903.28,37.3L905.48,39.9L905.36,42.9L900.71,42.42L898.67,43.32L902.62,44.36L905.58,47.21L904.75,48.34L891.39,49.81L899.84,50.87L898.86,52.94L894.07,53.3L891,54.25L883.32,53.5L891.33,56.32L889.35,61.05L881.56,58.8L878.75,59.17L890.22,63.62L891.22,64.88L891.38,70.62L889.33,71.12L882.85,71.07L880.78,70.44L878.67,66.88L872.14,64.32L872.36,66.65L867.54,68.05L863.06,67.8L858.44,70.92L860.81,71.37L866.84,70.93L868.1,72.47L872.41,71.67L883.23,73.12L883.4,74.53L880.21,76.09L866.01,81.92L852.35,84.25L849.41,84.17L843.77,85.72L838.66,83.72L837.36,86.58L832.71,88.42L826.87,94.04L823.87,95.87L814.46,99.67L807.37,101.18L803.1,100.98L796.5,101.41L798.02,102.78L792.02,105.47L793.63,108.25L790.89,110.48L790.55,113.08L787.72,114.44L787.03,115.98L780.61,120.54L779.06,123.24L779.63,125.16L777.53,127.25L774.72,132.29L771.75,135.14L770.23,137.81L766.4,137.84L760.16,136L759.64,133.92L757.49,133.28L758.54,130.13L753.64,131.97L748.97,131.88L744.11,128.95L742.86,126.9L742.79,122.72L739.42,121.16L740.05,118.86L738.47,117.42L736.08,113.62L736.72,111.93L735.99,109.53L734.62,108.66L735.39,103.95L733.88,101.19L731.74,101.17L733.05,98.75L730.96,97.63L731.45,96L735.27,93.41L731.87,91.48L735.12,88.74L734.95,87.11L737.84,84.81L739.3,82.32L743.01,81.77L745.16,82.71L748.12,81.53L749.97,78.64L754.3,74.2L746.32,73.45L743.27,71.98L738.89,71.25L737.18,69.83L739.13,68.84L745.34,69.26L750.61,71.14L753.66,67.93L745.19,65.87L747.34,64.74L744.3,63.91L738.01,65.55L734.27,64.43L736.94,61.11L736.47,59.07L740.67,57.95L741.48,56.59L737.56,55.79L739.9,54.3L736.98,52.56L738.64,50.6L735.97,48.72L736.74,46.1L730.6,42.02L731.84,40.29L720.57,37.52L711.93,36.63L695.76,38.71L690.22,38.16L685.68,36.67L687.41,34.69L681.27,33.68L683.24,31.89L690.35,31.88L694.67,30.86L702.06,30.79L701.99,29.22L695.83,30.1L689.66,30.39L681.2,28.03L677.23,26.44L680.21,24.78L696.15,22.91L703.56,21.54L710.09,21.46L713.16,20.37L718.16,16.97L709.76,16.58L710.37,14.88L722.96,11.96L730.07,10.95L736.29,11.31L739.48,8.36L750.98,6.73L768.25,5.53L776.13,5.67L782.51,7.66L787.68,7.29L783.88,5.03L792.41,5.28L805.41,7.97L808.6,7.87L811.22,5.45L803.77,2.82L817.94,1.48L825.17,2.16L829.59,1.15L840.17,0.49L859.89,0ZM743.81,74.15L746.73,74.99L745.69,76.93L738.22,78.35L737.83,76.82L733.58,76.19L734.44,72.83L736.97,71.89L741.42,72.47Z" class="land" id="GL" title="Greenland"/>
    <path d="M442.83,438.18L440.66,452.12L442.78,452.15L446.76,453.32L441.67,457.58L439.93,459.59L440.04,461.47L438.71,462.85L435.28,465.54L433.67,467.78L430.64,466.38L427.3,466.41L423.35,464.21L421.02,461.91L422.44,458.08L421.95,456.29L425.36,450.85L433.33,450.83L433.8,448.52L432.26,446.21L428.45,442.23L431.01,442.26L431.57,438.17Z" class="land" id="GT" title="Guatemala"/>
    <path d="M477.56,458.66L475.98,458.55L471.45,460.56L468.76,461.27L466.89,459.99L464.81,462.06L464.57,463.38L460.46,467L458.3,465.91L457.03,467.54L454.53,467.58L454.37,470.85L451.99,473.18L450.25,473.27L449.56,470.56L447.58,470.23L448.48,467.23L445.91,465.96L443.96,466.95L440.54,463.48L438.71,462.85L440.04,461.47L439.93,459.59L441.67,457.58L446.76,453.32L450.68,452.01L454.96,453.08L458.38,452.93L462.09,451.33L463.87,452.08L467.09,451.43L471.36,452.64L474,457.01L476.43,456.87Z" class="land" id="HN" title="Honduras"/>
    <path d="M551.45,424.34L551.72,428.61L550.68,429.66L550.87,431.51L549.18,432.49L550.44,434.35L550.17,436.55L548.52,435.17L543.43,435.73L540.38,435L538.1,435.45L537.13,436.52L534.09,434.31L535.53,432.01L539.33,433.04L544.19,433.67L547.1,431.93L544.57,429.05L545.54,426.36L543.54,425.12L543.39,422.99L546.34,423.02L548.76,424.15Z" class="land" id="HT" title="Haiti"/>
    <path d="M516.69,433.51L518.8,434L522.04,435.73L522.71,437.46L520.73,437.8L518.8,437.02L515.55,438.04L513.08,437.72L510.8,433.57L512.97,433.04Z" class="land" id="JM" title="Jamaica"/>
    <path d="M605.93,442.35L604.71,441.63L605.03,441.17L605.5,441.53Z" class="land" id="KN" title="Saint Kitts and Nevis"/>
    <path d="M614.74,467.16L613.75,466.48L614.89,465.79Z" class="land" id="LC" title="Saint Lucia"/>
    <path d="M604.13,436.33L603.44,436.33L603.84,435.99Z" class="land" id="MF" title="Saint Martin"/>
    <path d="M403.95,378.9L402.9,381.64L400.35,385.8L398.47,390.35L396.36,398.24L395.99,400.89L394.88,403.2L394.92,410.63L396.87,417.82L400.09,423.24L400.52,427.07L402.08,429.17L402.76,431.35L406.64,431.74L408.81,433.09L410.01,435.56L412.23,435.41L416.39,433.7L420.53,433.43L421.76,432.38L426.39,431.63L427.19,433.41L428.84,433.51L430.6,432.29L430.46,430.29L434.63,427L435.32,424.26L436.65,422.94L437.49,418.25L438.8,414.95L442.36,413.03L448.28,412.01L453.08,410.54L458.28,411.77L459.23,410.5L460.87,411.96L460.89,413.93L460.03,415.86L457.44,418.61L455.51,421.55L455.24,425.32L452.04,433.59L451.31,434.88L449.63,431.6L448.78,433.4L447.36,433.59L445.16,437.08L443.69,436.83L442.83,438.18L431.57,438.17L431.01,442.26L428.45,442.23L432.26,446.21L433.8,448.52L433.33,450.83L425.36,450.85L421.95,456.29L422.44,458.08L421.02,461.91L417.95,457.61L411.88,450.97L409.26,449.29L407.41,449.89L406.13,448.32L402.24,451.54L397.36,453.58L395.49,453.88L391.55,452.01L388.08,451.6L385.93,449.86L383.67,449.14L382.39,447.47L376.84,446.13L374.98,444.67L370.18,442.64L366.01,439.36L364.78,437.39L359.68,436.38L355.4,434.47L353.07,430.81L347.33,427.32L344.81,422.47L344.18,419.49L346.93,418.08L345.77,416.65L347.78,414.15L348.45,411.45L347.26,410.52L346.43,407.84L346.93,405.37L346.46,403.18L343.56,399.04L341.34,394.06L338.48,390.57L338.78,389.63L336.31,388.71L334.68,384.49L332.77,382.81L331.18,382.41L329.44,380.61L329.71,378.38L331.55,376.39L330.54,373.44L328.89,373.5L328.41,370.76L325.63,368.98L325.41,366.57L326.32,365.04L322.95,364.29L321.63,361.25L320.55,360.62L318.72,356.62L318.85,354.79L317.22,349.58L317.36,347.28L316.69,343.69L317.9,340.88L314.82,339.66L313.51,337.6L312.04,338.49L308.58,336.36L306.9,341.04L306.98,345.78L306.31,347.73L307.11,350.71L309.56,353.55L310.51,357.29L312.02,358.23L312.13,360.32L313.29,360.95L312.97,365.31L314.84,367.52L315.74,371.57L317.93,373.47L318.33,377.71L317.99,380.15L319.1,382.06L320.03,387.45L319.36,388.89L319.89,391.63L323.01,391.92L325.59,396.97L324.96,398.9L321.62,401.3L320.81,400.43L320.04,396.06L318.63,395.1L316.74,392.42L314.77,390.79L311.64,387.07L311.64,385.59L312.84,382.35L312.86,379.26L312.16,377.06L308.93,374.37L308.31,372.38L305.69,373.36L304.68,371.58L301.5,369.74L301.33,368.19L299.18,365.97L303.62,364.97L306.22,360.94L305.99,359.63L302.47,353.96L299.16,351.25L299.47,347.25L298.63,346.45L299.08,343.61L298.05,342.4L298.35,340.71L297.2,338.07L298.09,335.98L297.08,334.92L296.65,331.01L311.35,329.69L310.21,331.19L322.65,336.59L330.16,339.82L336.49,339.81L347.03,339.78L347.99,336.51L358.44,336.57L359.15,338.21L363.51,343.59L364.96,344.76L365.75,348.49L365.94,351.82L367.75,353.94L372.16,356.75L374.75,355.18L376.48,352.06L379.69,350.41L384.48,351.1L387.88,356.26L388.77,361.66L391.01,366.01L392.21,367.34L391.75,371.07L392.83,375.36L398.43,378.15L400.1,378.31L402.53,379.56Z" class="land" id="MX" title="Mexico"/>
    <path d="M608.6,445.98L608.53,446.41L608.12,446.28L608.15,445.9Z" class="land" id="MS" title="Montserrat"/>
    <path d="M615.51,462.28L614.02,462.48L613.23,460.03L615.06,460.53Z" class="land" id="MQ" title="Martinique"/>
    <path d="M477.56,458.66L476.51,460.43L476.91,463.4L475.28,465.9L473.87,470.8L473.65,477.39L471.76,480.87L472.32,482.96L470.79,485.45L471.98,488.22L470.84,489.48L468.64,489.21L467.62,487.77L465.47,487.24L464.12,488.02L459.82,486.29L458.99,487.17L457.79,485.22L454.87,482.27L453.34,479.23L448.15,473.82L450.25,473.27L451.99,473.18L454.37,470.85L454.53,467.58L457.03,467.54L458.3,465.91L460.46,467L464.57,463.38L464.81,462.06L466.89,459.99L468.76,461.27L471.45,460.56L475.98,458.55Z" class="land" id="NI" title="Nicaragua"/>
    <path d="M475.43,508.84L474.81,506.69L475.46,503.99L475.63,498.85L478.03,497.93L479.16,499.01L479.78,501.88L482.64,502.42L485.22,503.7L488.48,502.93L490.38,501.52L493.04,500.59L496.64,497.78L503.24,499.17L505.79,500.4L509.98,504.58L509.68,506.26L510.75,509.11L509.77,511.48L507.26,512.71L506.18,514.93L504.6,512.65L503.22,508.91L505.26,506.6L503.07,506.12L502.86,504.8L499.44,502.13L497.23,502.07L495.63,503.19L495.14,505.04L492.7,506.82L491.17,507.26L490.53,508.8L492.76,511.76L490.36,514.6L487.8,515L486.79,511.45L485.31,512.06L483.87,511.37L482.63,508.35L476.77,507.02Z" class="land" id="PA" title="Panama"/>
    <path d="M585.19,433.6L588.23,434.06L588.18,435.07L585.84,437.02L583.12,437.19L578.3,436.87L578.9,433.2Z" class="land" id="PR" title="Puerto Rico"/>
    <path d="M438.71,462.85L440.54,463.48L443.96,466.95L445.91,465.96L448.48,467.23L447.58,470.23L446.71,471.81L443.1,471.79L438.56,469.66L435.35,469.06L433.67,467.78L435.28,465.54Z" class="land" id="SV" title="El Salvador"/>
    <path d="M678.29,227.77L678.01,226.15L678.57,226.12L678.22,226.95Z" class="land" id="PM" title="Saint Pierre and Miquelon"/>
    <path d="M603.44,436.33L604.13,436.33L604.02,436.69Z" class="land" id="SX" title="Sint Maarten"/>
    <path d="M553.98,409.46L552.97,409.27L553.17,408.82L554,408.96Z" class="land" id="TC" title="Turks and Caicos Islands"/>
    <path d="M612.45,493.89L611.42,494.3L609.46,492.92L609.78,490.96L609.07,489.45L612.51,490.01Z" class="land" id="TT" title="Trinidad and Tobago"/>
    <path d="M292.93,149.55L295.12,149.67L294.54,152.12L292.69,155.08L288.62,156.96L290.49,154.11L290.37,153.06ZM287.9,149L290.69,150.29L287.51,153.91L286.13,152.9L283.18,152.81L282.14,150.82L283.07,149.99ZM196.38,151.81L198.55,151.63L196.8,154.29L194.86,154.3L192.22,155.75L186.92,157.42L183.67,157.88L184.14,155.09L188.1,153.06L190.27,153.34ZM287.31,154.98L285.96,159.25L283.85,162.06L282.76,158.55L284.48,157.16L282.87,155.21L286.26,153.76ZM293.95,157.32L295.5,158.15L292.1,160.96L290.05,160.96L291.66,156.88ZM289.9,158.39L289.31,160.16L286.69,161.3L287.86,158.44ZM296.17,163.36L293.13,163.57L296.65,160.73ZM289.63,161.81L291.45,161.94L292.45,166.23L291.53,167.61L292.56,169.48L290.62,172.23L287.52,170.58L287.61,165.48L289.3,164.64ZM299.18,167.57L297.57,169.09L293.51,169.39L297.4,165.25L299.87,164.4ZM124.23,171.04L123.42,172.71L118.94,173.49L114.92,174.97L114.53,173.58L118.04,171.72L122.49,170.64ZM101.17,178.42L100.63,180.13L97.85,181.34L96.19,181L99.59,178ZM476.36,215.2L478.46,215.23L485.03,219.14L489.2,218.13L489.45,218.81L493.11,218.71L496.29,219.58L503.11,217.41L508.35,220.62L518.82,227.34L519.45,230.48L521.74,229.82L521.78,233.12L523.89,232.9L523.27,235.03L527.98,238.38L526.14,251.08L523.47,254.65L521.67,257.87L517.93,260.2L516.82,262.54L518.74,264.71L520.17,264.71L527.98,260.86L534.21,259.73L542.06,256.6L542.74,251.83L545.65,250.69L556.44,250.67L559.37,247.59L568.46,241.58L571.34,240.83L582.29,240.81L589.32,240.8L590.98,238.79L593.34,238.98L598.05,234.4L599.04,231.94L601.35,228.69L607.21,223.35L608.96,225.18L612.16,224.11L614.41,226.04L611.73,235.85L613.5,236.56L612.63,238.89L614.38,239.65L613.93,241.67L608.58,244.76L606.59,244.37L604.32,245.78L602.58,244.9L601.32,247.31L596.65,249.4L594.38,249.68L591.62,252.68L588.85,256.43L589.08,257.55L586.66,259.98L588.22,260.72L589,265.05L587.38,265.72L583.16,265.01L582.12,266.84L574.31,267.66L569.62,269.41L565.13,272.4L566.15,274.42L563.76,278.77L561.67,281.22L558.51,282.97L556.23,281.56L555.55,283.35L556.53,287.62L551.7,293.94L551.91,291.6L549.44,288.65L550.6,285.09L548.65,284.76L548.07,287.41L548.28,292.04L547.32,295.94L546.26,296.98L548.07,299.16L548.26,301.02L546.1,303.76L543.73,305.58L547.66,306.51L547.22,308.35L544.38,310.49L542.24,311.09L540.33,313.48L540.01,315.19L537.65,315.18L533.31,318.26L531.15,320.97L527.75,321.26L525.37,322.82L522.41,326.63L517.15,330.38L515.85,330.7L511.43,334.06L508.7,337.05L508.56,338.31L505.48,343.09L505.47,350.97L506.49,356.39L507.95,360.5L506.77,362.73L508.01,369.82L508.45,370.73L508.3,374.48L506.85,379.83L504.77,383.49L502.32,384.77L500.33,383.58L499.35,379.85L497.42,378.74L497.09,375.45L494.44,370.9L494.02,366.1L493.09,365.17L495.1,360.51L495.73,357.58L492.73,353.46L491.03,350.01L489.2,348.71L486.87,350.14L480.92,351.8L481.01,350.37L479.06,348.25L476.81,347.04L476.58,345.88L472.12,346.33L467.09,347.34L465.15,346.8L460.62,346.44L458.02,346.95L456.12,348.26L452.67,346.71L451.15,348.44L455.71,350.09L454.44,352.24L455.36,353.7L458,355.28L455.76,356.25L453.24,353.42L451.45,355.43L449.97,354.61L447.47,355.8L444.49,354.65L444.61,353.01L441.78,350.66L439.11,352.7L436.71,352.41L434,351.08L430.87,351.15L428.28,351.87L423.04,354.06L420.04,357.02L414.92,359.77L412.36,359.71L411.3,361.37L407.35,363L406.82,364.93L404.82,368.28L403.78,369.05L403.04,371.57L403.07,375.73L403.95,378.9L402.53,379.56L400.1,378.31L398.43,378.15L392.83,375.36L391.75,371.07L392.21,367.34L391.01,366.01L388.77,361.66L387.88,356.26L384.48,351.1L379.69,350.41L376.48,352.06L374.75,355.18L372.16,356.75L367.75,353.94L365.94,351.82L365.75,348.49L364.96,344.76L363.51,343.59L359.15,338.21L358.44,336.57L347.99,336.51L347.03,339.78L336.49,339.81L330.16,339.82L322.65,336.59L310.21,331.19L311.35,329.69L296.65,331.01L296.87,326.89L296.46,325.46L293.87,322.35L291.97,322.19L292.08,320.21L288.56,319.52L286.6,317.29L281.58,316.9L280.89,316.11L282.25,312.5L281.68,310.4L278.33,303.38L279.96,300.47L280.01,298.96L278.5,298.59L277.77,297.02L279.16,292.44L277.01,290.57L277.43,289.26L275.17,284.7L277.04,277.8L275.74,274.97L276.23,273.24L279.13,269.79L280.85,266.8L281.65,261.48L282.9,258.17L282.92,256.52L288.17,250.22L292.5,242.44L296.11,236.74L298.07,232.73L297.88,231.74L300.33,229.04L299.62,228.44L301.39,221.96L300.98,220.22L302.75,216.9L305.58,218.36L311.45,218.91L311.79,220.39L314.58,219.47L315.35,212.55L332.36,212.55L346.47,212.55L358.22,212.55L374.67,212.55L388.77,212.55L398.18,212.55L407.58,212.55L421.68,212.55L433.43,212.55L449.88,212.55L467.64,212.56L468.82,209.9L470.28,210.36L469.87,214.31L474.27,215.84ZM575.72,269.67L571.16,272.07L567.75,272.51L567.48,271.07L569.48,270.15ZM17.92,408.24L15.61,407.44L17.27,406.12L18.65,406.15ZM26.57,411.7L24.39,412.71L23.93,410.76L26.07,409.92ZM33.57,415.51L34.89,415.37L35.34,417.6L33.26,417.8ZM35.58,429.47L33.84,429.05L34.34,426.79L34.03,424.11L35.92,422.19L36.33,420.29L39.7,422.34L41.27,425.75L39.37,427.24L37.69,427.67ZM326.17,75.94L312.01,90.37L301.63,101.39L293.13,110.69L283.11,121.99L271.69,135.36L276.31,136.13L278.62,135.17L281.75,135.08L279.8,136.79L283.39,142.46L282.48,144.61L288.22,142.95L291.93,139.95L297.26,138.71L298.32,140.13L297.36,142.05L300.15,145.93L300.53,149.14L300.78,158.74L301.36,160.05L305.36,162.54L306.11,164.86L304.07,166.92L303.26,168.87L301.05,170.73L297.93,172.48L296.65,172.22L297.24,169.83L299.19,168.49L300.67,165.9L300.04,164.02L293.71,166L297.82,163.02L297.03,157.07L294.27,156.19L296.42,152.67L296.38,149.22L293.92,147.6L290.18,148.92L288.93,146.78L286.37,148.29L283.48,148.99L280.24,146.75L278.74,143.38L273.75,140.34L272.58,139.15L269.49,139L266.46,137.54L260.63,136.7L255.76,137.25L251.97,135.13L247.69,134.19L245.75,130.73L242.17,130.79L237.39,131.72L234.16,136.23L231.93,137.41L226.87,137.33L220.42,140.2L218.44,140.22L214.62,142.34L210.3,142.71L210.99,141.27L215,137.42L217.72,136L221.58,132.45L227.73,130.61L228.51,128.79L220.48,131.35L219.47,132.37L211.78,135.77L209.36,137.86L207.31,138.16L199.22,141.55L197.57,143.17L200.32,144.73L194.44,147.34L191.32,149.57L186.53,150.53L179.89,153.53L174.84,155.14L173.55,156.64L165.03,159.81L159.48,161.16L158.82,162.77L154.9,164.19L146.97,165.71L143.57,167.11L139.31,168.14L135.83,168.24L130.7,170.56L124.35,171.75L135.56,166.01L142.31,163.96L142.77,165.65L144.69,164.96L148.84,161.98L156.4,159.45L165.03,155.34L170.55,153.3L175.86,147.82L180.59,145.72L180.58,144.78L174.6,146.36L173.38,144.96L168.08,147.49L167.72,144.55L165.01,143.62L157.5,146.16L155.11,146.55L157.44,143.86L157.89,142.08L160.8,140.06L162.38,136.16L159.51,137.41L155.27,138.36L151.5,138.62L150.81,135.34L148.81,133.77L153.88,131.47L151.38,130.09L153.39,125.51L156.18,125.08L157.23,123.58L162.29,121.16L171.15,116.36L172.97,116.06L175.28,117.46L184.88,114.83L189.92,114.16L193.23,112.48L195.04,109.71L197.48,107.62L198.52,105.42L194.98,106.11L186.85,108.92L183.81,107.56L177.09,108.37L171.78,107.59L172.79,105.4L171.93,104.33L174.4,102.79L171.36,102.26L169.65,100.77L176.14,99.38L178.95,98.28L192.54,95.12L196.74,95.27L193.32,97.25L194.06,98.08L203.02,98.27L205.61,97.03L213.21,95.96L211.83,94.39L208.43,95.13L207.22,94.2L209.08,92.01L203.91,92.16L201.6,91.11L202.51,88.54L199.54,85.82L197.57,85.13L197.48,83.47L201.59,80.63L211.02,80.32L219.63,77.55L223.24,75.29L232.36,71.8L236.32,71.96L248.23,68.49L254.15,68.69L263.11,65.84L269.12,67.16L271.61,68.96L277,68.16L280.85,68.9L279.8,71.07L282.95,71.27L292.66,70.77L298.16,72.49L306.63,72.84L308.62,73.76L318.61,73.1L324.27,75.93ZM138.88,113.63L144.43,113.25L145.05,114.58L148.66,116.65L143.5,117.15ZM201.98,148.22L202.43,149.55L196.94,150.65L195.39,150.05L201.16,147.62ZM143.8,134.81L145.43,135.27L143.54,137.91L139.59,138.83L136.23,137.28L142.06,134.82Z" class="land" id="US" title="United States"/>
    <path d="M612.69,471.98L612.08,471.6L612.74,470.54L613.07,470.99Z" class="land" id="VC" title="Saint Vincent and the Grenadines"/>
    <path d="M595.88,433.46L595.73,433.1L596.35,433.07Z" class="land" id="VG" title="British Virgin Islands"/>
    <path d="M593.14,438.32L593.57,438.97L592.31,439L592.39,438.49Z" class="land" id="VI" title="US Virgin Islands"/>
    <path d="M568.56,479.32L568.06,479.13L567.58,478.5L567.62,478.18L568.51,478.7Z" class="land" id="BQ" title="Bonair, Saint Eustachius and Saba"/>
  </g>
</svg>