<?xml version="1.0" encoding="UTF-8"?>
<svg xmlns="http://www.w3.org/2000/svg" width="660.84" height="520" viewBox="149.58 -2.5 660.84 520">
  <!-- Created using SVG Map Generator: dojo.amcharts.com/svg-map-generator -->
  <style>
    .land { fill: #ffffff; stroke: #000000; stroke-width: 0.5; }
  </style>
  <g id="polygons">
    <path d="M499.15,239.89L479.37,239.26L474.68,238.88L477.05,234.32L481.16,233.59L483.76,230.72L484.21,230.79L481.75,233.71L486.36,234.18L486.36,230.94L492.99,232.91L496.8,232.96L499.08,235.13ZM658.38,97.52L668.37,100.39L664.99,103.28L658.78,104.41L654.77,99.65ZM725.4,367.37L724.35,369.89L720.67,373.94L715.51,372.88L710.38,367.7L707.6,366.89L700.5,363.62L700.75,360.81L697.49,360.24L693.19,357.89L690.2,357.96L685.99,359.86L684.24,357.98L672.21,353.03L665.33,353.08L657.16,349.82L653.01,349.45L651.85,351L640.13,342.01L635.54,340.65L632.41,337.77L628.76,337.39L624.07,331.67L629.68,330.77L629.09,328.83L630.99,324.34L632.87,323.38L630.26,318L640.12,313L633.5,312.29L631.46,313.15L631.25,308.36L635.66,305.33L642.38,305.44L643.48,301.43L639.89,293.59L642.59,291.63L639.6,287.86L634.27,284.98L632.3,285.29L626.66,282.99L625.22,284.33L619.4,279.36L610.8,280.68L603.29,278.06L601.66,272.98L593.1,270.28L591.23,266.59L593.23,265.57L587.11,259.92L577.58,260.28L576.13,262.23L572.09,262.36L570.31,260.24L567.68,251.42L573.47,252.46L577.44,250.02L569.2,242.88L565.98,241.49L563.07,237.01L560.38,235.68L561.33,233.04L559.94,227.93L554.36,225.23L548.88,226.81L547.66,224.31L543.24,224.27L538.01,222.31L537.07,218.38L534.33,215.24L533.59,210.86L529.91,208.81L532.47,205.78L529.83,201.63L528.67,197.17L531.88,189.95L531.52,187.65L538.27,186.66L538.58,183.2L534.81,179.21L528.65,179.92L540.89,170.35L550.71,160.75L551.93,157.78L548.79,154.77L539.82,150.3L542.44,147.22L538.99,144.03L538.02,140.35L534.32,138.48L533.95,132.46L536.53,131.94L534.43,128.2L527.12,120.22L532.04,115.02L526.95,110.4L522.16,109.26L520.15,106.59L522.61,101.84L534.21,95.1L538.37,95.93L541.47,93.6L548.41,95.38L545.11,97.79L554.41,99.29L569.56,100.34L583.57,104.78L603.98,112.47L608.34,113.53L612.13,121.53L608.39,124.97L600.48,127.83L594.36,128.45L573.31,125.43L568.01,123.48L550.85,120.72L559.78,126.11L566.04,127.86L569.32,130.27L567.61,134.56L571.28,138.31L572.64,142.24L578.57,143.91L584.51,147.39L592.66,149.14L596.7,147.17L595.2,144.45L589.49,143.64L583.85,139.59L585.66,136.6L590.39,137.19L594.33,139.3L607.5,142.08L610.22,138.21L605.94,134.98L605.48,132.71L610.78,129.37L615.91,127.91L620.07,124.31L634.08,126.89L635.65,122.93L633.12,119.06L629.14,117.66L630.22,111L627.48,106.05L640.4,106.67L647.73,112.31L639.92,113.13L636.6,115.65L645.65,121.29L650.66,121.54L657.15,119.55L656.73,114.69L663.26,113.37L674.95,107.83L685.98,105.66L693.26,102.07L696.98,108.92L700.93,108.51L709.87,105.16L717.67,106.01L723.67,103.02L728.38,102L737.27,107.18L742.28,102.15L734.76,96.8L739.54,94.5L756.23,96.06L780.1,102.5L784.45,103.16L792.14,106.74L799.85,117.38L797.12,122.47L789.93,127.47L781.85,131.62L772.76,139.06L761.75,144.8L768.45,175.44L770.25,190.38L768.58,199.23L765.98,205.67L761.82,210.74L761.78,215.32L768.56,218.68L770.73,222.86L767.86,228.12L761.25,229.39L753.06,230.12L762.47,238.79L768.88,243.6L777.53,238.17L783.41,240.37L786.48,244.01L783.7,246.93L781.98,251.59L783.91,257.3L789.56,258.75L794.06,264.47L797.88,266.87L805.55,268.97L807.92,271.11L807.47,274.82L802.12,276.81L796.35,275.45L795.84,277.64L788.19,276.5L783.03,272.78L778.85,272.5L776.29,274.54L772.41,272.77L768.45,273.22L764.1,277.43L762.08,277.44L754.61,273.44L752.77,275.64L748.91,272.26L742.43,268.57L736.4,268.57L734.01,266.57L728.85,268.55L721.84,266.09L718.62,270.51L713.23,272.58L712.4,274.91L708.93,277.44L708.65,279.94L710.56,283.39L707.75,285.26L700.74,279.7L697.97,280.75L696.25,285.01L695.81,289.94L698.08,292.66L696.23,295.64L696.73,299.65L699.75,300.95L701.18,304.39L704.6,305.86L709.76,306.46L714.23,310.8L718.68,316.4L716.3,318.53L721.4,320.77L715.09,326.64L709.5,328.45L708.2,334.41L705.11,338.2L705.55,340.64L709.89,343L713.49,350.07L714.01,354.99ZM730.63,95.65L725.32,94.14L720.67,90.85L723.54,89.11L734.86,93.53ZM667.93,75.17L674.08,73.19L678.12,64.72L685.62,63.96L696.11,65.51L695.34,69.01L691.7,71.79L693.21,76.34L700.32,81.44L707.57,85.08L710.49,88.03L692.95,87.23L686.55,86.06L681.64,79.74L671.4,80.18L667.95,77.71ZM762.12,36.86L759.3,39.89L748.66,42.34L719.91,47.81L714.72,52.1L704.94,54.58L705.79,57.68L699.01,64.1L695.76,64.69L685.8,63.36L681.52,64.24L676.5,60.73L681.57,59.1L685.23,53.51L689.93,50.77L692.08,47.25L701.74,43.39L714.56,41.23L714.81,39.91L726.32,40.28L743.06,37.24L751.81,34.07L758.2,34.67ZM683.35,6.53L684.11,5.1L695.84,4.56L700.15,6.53L694.92,7.97ZM621.79,7.27L621.5,5.07L630.53,4.41L636.95,6.03L621.2,8.33L614.5,10.21L607.76,8.83ZM652.69,5.31L653.27,2.97L672.74,5.27L661.46,6.39ZM658.94,2.46L665.5,0L673.93,1.07L669.63,2.84Z" class="land" id="RU" title="Russia"/>
    <path d="M278.49,426.81L278.45,427.33L278.3,427.19L278.31,426.99Z" class="land" id="GI" title="Gibraltar"/>
    <path d="M356.88,269.53L354.37,271.33L350,269.62ZM356.88,269.53L351.85,268.85L358.7,260.27L360.78,253.96L362.77,253.87L363.66,259.49L367.04,257.42L365.46,252.42L370.7,249.32L376.54,248.98L379.55,250.56L378.61,259.56L376.47,264.26L370.3,265.75L372.3,268.5L370.1,273.58L370.95,275.94L369.4,275.9L368.58,275.69L369.53,272.16L366.98,270.65L359.04,268.65Z" class="land" id="NL" title="Netherlands"/>
    <path d="M426.54,366.81L426.47,366.82L426.46,366.73L426.52,366.72Z" class="land" id="VA" title="Vatican City"/>
    <path d="M631.46,313.15L626.08,313.32L624.7,314.94L616.56,317.59L612.96,317.94L605.73,322.4L607.86,327.43L612.79,331.45L617.56,329.99L620.93,330.6L619.96,333.98L615.79,334.6L612.42,333.64L609.72,336.69L606.69,336.65L600.7,340.98L596.72,339.27L596.81,333.65L591.28,331.06L587.87,330.49L596.49,324.9L592.42,322.55L586.67,323.49L582.86,321.67L581.74,317.07L572.44,318.68L570.73,323.27L568.67,325.73L563.9,327.62L565.28,331.98L561.18,330.5L557.62,332.24L552.9,330.01L558.14,323.84L557.51,319.99L559.14,318.94L564.96,320.75L564.66,315.84L562.02,314.46L561.47,311.56L558.07,309.42L557.79,305.06L554.11,302.64L550.48,302.2L543.86,298.98L536.68,301.21L533.34,303.93L527.84,304.77L523.48,306.74L520.72,304.56L517.53,304.82L509.53,302.99L507.06,304.39L500.63,299.72L503.2,292.93L503.59,288.19L511.1,279.7L513.12,279.37L513.67,274.98L508.96,268.21L514.48,264.7L526.67,264.24L536.41,265.86L537.6,267.25L548.12,267.96L552.23,267.21L554.22,269.57L563.22,267.42L566.05,262.91L572.09,262.36L576.13,262.23L577.58,260.28L587.11,259.92L593.23,265.57L591.23,266.59L593.1,270.28L601.66,272.98L603.29,278.06L610.8,280.68L619.4,279.36L625.22,284.33L626.66,282.99L632.3,285.29L634.27,284.98L639.6,287.86L642.59,291.63L639.89,293.59L643.48,301.43L642.38,305.44L635.66,305.33L631.25,308.36Z" class="land" id="UA" title="Ukraine"/>
    <path d="M667.51,370.77L675.56,371.58L678.02,370.29L684.16,375.05L687.15,379.09L686.26,381.57L688.78,385.87L692.98,386.18L697.52,389.7L698.02,390.25L694.81,392.64L691.82,393.11L696.83,403.79L695.67,408.49L698.87,410.2L699.44,413.45L701.52,414.97L697.67,418.25L696.71,415.89L690.81,415.45L684.37,414.12L682.03,416.66L680.24,415.12L674.15,417.08L667.3,416.99L661.85,419.84L656.46,421.35L651.46,421.23L646.33,419.05L640.27,421.76L633.49,420.09L632.89,423.71L630.16,430.28L626.92,425.26L629.69,421.59L628.21,418.95L624.27,422.24L616.13,420.28L611.74,424.93L609.14,426.61L601.67,428.14L597.98,426.59L594.6,422.9L588.65,420.1L582.6,419.43L581.81,425.25L575.23,426.87L570.37,424.34L569.2,421.23L564.41,420.08L561.24,417.7L554.62,417.81L555.85,415.4L553.19,413.93L551.72,410.8L552.75,407.75L547.92,405.45L549.26,403.62L548.12,400.09L550.05,398.24L546.89,394L547.84,391.17L541.96,392.17L542.04,386.71L546.27,382.42L550.77,381.84L552.5,383.26L559.19,382.39L563.2,381.02L567.7,378.15L564.83,376.09L566.88,373.79L571.92,374.59L575.4,374.11L579.39,375.28L583.05,375.04L584.49,372.83L591.01,368.56L599.54,365.57L610.94,366.2L612.91,365.09L615.77,368.57L622.07,369.05L623.48,371.72L626.45,373.43L628.53,372.38L631.17,374.24L642.45,376.95L650.87,375.06L658.05,376.57L663.43,373.96ZM555.24,366.07L558.53,371.3L564.68,373.77L562.66,376.43L557.5,375.32L552.03,376.44L550.31,379.42L540.8,380.22L540.14,379.01L542.34,376.64L542.06,373.68L544.33,371.98L541.5,368.7L543.68,366.11L549.18,364.92L551.33,366.57Z" class="land" id="TR" title="Türkiye"/>
    <path d="M494.34,130.81L487,131.45L476.56,134.44L476.98,137.03L474.29,139.95L477.16,143.9L472.77,148.64L461.07,154.49L457.31,157.68L453.27,158.29L450.91,168.52L448.98,170.07L450.72,178.35L456.02,179.41L460.81,182.61L464.39,187.34L456.76,192L459.97,193.55L454.04,195.96L448.42,200.04L449.5,202.17L448.26,206.06L448.71,213.28L445.41,221.53L436.22,222.13L432.15,225.35L433.35,228.35L425.67,230.13L422.29,229.49L422.81,226.72L419.57,222.36L421.45,217.67L417.76,214.86L409.64,203.1L406.84,194.71L408.61,194.25L411.5,191.82L410.43,188.92L416.05,184.01L416.56,180.73L414.01,175.49L418.06,172.18L412.49,168.71L413.17,163.4L411.58,160.52L412.04,156.7L410.25,153.99L414.55,147.96L419.02,146.72L423.81,147.28L424.27,143.12L421.12,142.04L426.42,135.42L426.15,127.86L432.61,126.25L432.01,124.58L438.33,119.46L436.03,116.11L443.65,110.03L447.9,111.27L450.42,105.93L461.65,107.77L465.29,101.71L475.44,106.3L481.03,107.46L487.59,111.37L487.14,115.9L491.7,121.67L490.16,124.66ZM467.2,205.83L465.36,207.09L464.97,211.58L461.99,213.13L460.4,208.54L463.15,205.88Z" class="land" id="SE" title="Sweden"/>
    <path d="M457.13,319.22L450.22,322.29L450.38,326.06L447.62,327.11L448.3,329.84L443.35,329.41L436.46,330.24L433.96,329.33L435.07,328.6L432.05,321.09L434.36,319.01L440.92,320.07L444.8,317.92L452.49,317.39L453.45,315.49Z" class="land" id="SI" title="Slovenia"/>
    <path d="M503.2,292.93L500.63,299.72L497.78,300.4L495.05,298.22L487.39,298.48L486.36,300.84L483.03,302.52L474.27,303.85L473.91,306.03L466.2,306.2L461.09,303.8L458.48,299.35L459.08,297.75L460.75,295.08L465.27,294.8L468.17,291.05L473.29,288.48L478.06,287.6L481.29,291.71L487.58,289.69L495.7,289.48Z" class="land" id="SK" title="Slovakia"/>
    <path d="M487.58,323.24L492.21,326.93L492.44,329.66L498.6,333.39L497.95,336L504.02,339.38L507.41,339.93L509.3,342.53L507.19,344.91L508.79,350.64L512.5,353.41L508.62,356.99L509.44,361.16L508.07,362.48L501.68,363.18L502.89,358.79L499.84,357.94L496.81,354.41L493.29,355L491.16,357.14L484.34,353.16L481.15,349.83L483.43,348.06L480.2,341.86L481.44,336.12L478.58,336.01L478.44,329.22L476.9,325.06L481.78,322.76Z" class="land" id="RS" title="Serbia"/>
    <path d="M425.93,346.01L425.19,345.67L425.52,345.17L426.14,345.48Z" class="land" id="SM" title="San Marino"/>
    <path d="M552.9,330.01L557.62,332.24L561.18,330.5L565.28,331.98L564.58,336.27L560.54,337.16L557.8,341.93L557.96,347.66L553.47,346.83L551.93,345.12L545.2,343.26L538.25,344.92L532.72,348.4L513.89,346.3L509.3,342.53L507.41,339.93L504.02,339.38L497.95,336L498.6,333.39L492.44,329.66L492.21,326.93L487.58,323.24L494.76,321.23L502.58,306.64L507.06,304.39L509.53,302.99L517.53,304.82L520.72,304.56L523.48,306.74L527.84,304.77L533.34,303.93L536.68,301.21L539.7,302.27L543.19,307.54L549.91,314.3L551.95,319.72L551.36,324.63Z" class="land" id="RO" title="Romania"/>
    <path d="M261.19,416.13L257.53,417.96L251.11,416.74L249.38,413.49L248.86,402.16L244.24,399.88L245.43,394.46L250.02,385.39L251.83,375.85L250.75,369.37L251.13,366.37L255.85,364.36L258.19,366.96L262.45,367.48L268.97,366.35L269.53,369.16L272.23,370.62L266.16,376.07L266.97,383.02L265.24,384.42L264.93,389.59L261.47,391.44L264.64,398.03L262.04,402.74L263.25,407.46L260.47,411.88Z" class="land" id="PT" title="Portugal"/>
    <path d="M474.68,238.88L479.37,239.26L499.15,239.89L504.7,242.01L505.18,244.03L509.4,253.1L509.5,256.72L504.92,260.8L508.23,262.34L508.96,268.21L513.67,274.98L513.12,279.37L511.1,279.7L503.59,288.19L503.2,292.93L495.7,289.48L487.58,289.69L481.29,291.71L478.06,287.6L473.29,288.48L470.83,284.74L465.3,283.8L459.25,279.69L455.73,282.53L450.02,277.34L444.72,275.32L440.39,274.84L441.74,270.88L438.07,265.05L439.07,262.55L437.71,258.08L433.63,254.59L435.57,250.55L434.03,246.11L433.58,244.71L433.51,243.92L448.49,240.55L451.15,237.94L456.4,236.21L464.45,235.14L467.5,239.16L469.95,239.97Z" class="land" id="PL" title="Poland"/>
    <path d="M451.05,9.2L460.23,8.09L487.58,9.86L490.19,11.72L481.67,15.48L471.62,17.05L452.22,15.52L438.53,12.8L435.76,10.59ZM426.45,11.72L437.92,14.21L441.66,17.33L450.17,17.54L456.55,20.5L446.66,21.41L439.22,26.04L438.56,29.98L434.91,30.96L430.06,37.51L414.52,32.27L412.02,30.6L417.54,28.67L409.4,26.02L417.49,25.06L414.98,23.01L405.87,24.38L396.84,20.69L392.98,17.54L390.3,12.54L401.89,12.69L406.07,14.89L420.79,13.39ZM458.15,21.62L468.58,26.3L475.78,27.03L473.98,30.18L467.79,31.94L462.73,30.15L459.24,26.89L449.74,22.52Z" class="land" id="SJ" title="Svalbard and Jan Mayen"/>
    <path d="M454.66,92.61L457.07,93.46L452.03,96.91L448.84,95.24ZM443.26,96.76L446.76,100.28L440.11,100.81ZM534.21,95.1L522.61,101.84L524.3,97.84L522.63,96.09L513.4,92.65L504.36,93.95L501.29,96.26L500.56,102.12L495.64,105.65L487.82,103.76L484.4,105.16L478.01,104.53L471.84,99.63L465.29,101.71L461.65,107.77L450.42,105.93L447.9,111.27L443.65,110.03L436.03,116.11L438.33,119.46L432.01,124.58L432.61,126.25L426.15,127.86L426.42,135.42L421.12,142.04L424.27,143.12L423.81,147.28L419.02,146.72L414.55,147.96L410.25,153.99L412.04,156.7L411.58,160.52L413.17,163.4L412.49,168.71L418.06,172.18L414.01,175.49L416.56,180.73L416.05,184.01L410.43,188.92L411.5,191.82L408.61,194.25L404.39,192.83L395.46,195.12L384.98,202.84L376.31,204L366.4,199.18L364.92,197.23L367.36,194.99L367.17,191.21L361.9,192.43L363.07,188.44L361.63,186.61L362.34,179.6L360.86,178.29L359.69,168.8L363.92,163.16L369.77,160.34L376.53,160.43L374.38,157.11L382.22,155.86L384.15,151.73L393.45,150.89L393.39,148.66L399.2,143.54L403.75,141.13L404.48,139.05L410.05,136.54L410.56,132.98L415.19,128.86L415.68,124.13L426.41,115.46L426.43,112.67L429.78,110.34L434.83,109.17L438.45,105.37L443.36,103.82L447.84,100.65L448.79,97.83L453.46,97.07L454.65,95.42L460.42,94.22L467.87,94.17L469.1,91.66L477.54,89.91L480.39,92.3L488.8,87.04L489.94,84.44L497.67,85.72L509.6,83.65L520.17,85.66L533.76,90.79L525.2,93.4L526.96,95.59Z" class="land" id="NO" title="Norway"/>
    <path d="M481.15,349.83L484.34,353.16L491.16,357.14L489.07,360.06L485.64,359.21L482.9,363.95L483.64,367.11L479.65,363.16L476.41,361.25L475.65,359.93L475.41,355.68L479.1,350.2Z" class="land" id="ME" title="Montenegro"/>
    <path d="M447.24,430.06L446.15,430.39L445.42,429.86L446.19,428.96Z" class="land" id="MT" title="Malta"/>
    <path d="M508.07,362.48L512.42,365.81L514.06,368.69L513.65,372.66L510.34,374.93L505.67,375.05L502.92,377.53L497.86,377.73L495.68,376.91L493.06,370.73L493.75,367.06L497.59,363.96L501.68,363.18Z" class="land" id="MK" title="North Macedonia"/>
    <path d="M552.9,330.01L551.36,324.63L551.95,319.72L549.91,314.3L543.19,307.54L539.7,302.27L536.68,301.21L543.86,298.98L550.48,302.2L554.11,302.64L557.79,305.06L558.07,309.42L561.47,311.56L562.02,314.46L564.66,315.84L564.96,320.75L559.14,318.94L557.51,319.99L558.14,323.84Z" class="land" id="MD" title="Moldova"/>
    <path d="M384.64,347.57L384.15,347.77L384.44,347.36Z" class="land" id="MC" title="Monaco"/>
    <path d="M529.91,208.81L533.59,210.86L534.33,215.24L537.07,218.38L538.01,222.31L534.16,225.69L530.11,225.37L526.84,226.97L512.96,219.81L507.19,221.13L504.76,220.49L491.53,219.73L484.01,223.03L483.36,215.66L485.25,213.77L487.46,208.4L493.5,206.91L502.7,214.23L507.95,210.78L506.62,205.49L512.29,203.63L519.22,205.81L523.74,208.78Z" class="land" id="LV" title="Latvia"/>
    <path d="M372.1,282.3L375.14,285.56L374.1,289.07L369.67,288.2L369.21,284.33Z" class="land" id="LU" title="Luxembourg"/>
    <path d="M526.84,226.97L524.55,233.51L522.24,234.34L520.61,240.14L515.06,243.68L505.18,244.03L504.7,242.01L499.15,239.89L499.08,235.13L496.8,232.96L492.99,232.91L486.36,230.94L484.01,223.03L491.53,219.73L504.76,220.49L507.19,221.13L512.96,219.81Z" class="land" id="LT" title="Lithuania"/>
    <path d="M400.86,313.5L400.11,313.45L400.34,311.31Z" class="land" id="LI" title="Liechtenstein"/>
    <path d="M501.68,363.18L497.59,363.96L493.75,367.06L492.81,363.43L489.07,360.06L491.16,357.14L493.29,355L496.81,354.41L499.84,357.94L502.89,358.79Z" class="land" id="XK" title="Kosovo"/>
    <path d="M307.62,291.32L305.89,291.87L306.02,290.96Z" class="land" id="JE" title="Jersey"/>
    <path d="M454.57,405.22L450.96,413.21L452.83,417.88L451.46,421.29L446.25,420.13L443.07,416.93L441.06,416.96L428.35,409.42L435.9,405.63L438.75,407.52L445.67,407.05L448.46,405.73ZM403.7,377.39L405.27,381.38L403.72,395.32L399.46,394.55L398.1,397.97L394.13,394.91L394.24,383.54L391.79,379.8L400.69,374.06ZM434.36,319.01L432.05,321.09L435.07,328.6L430.8,326.71L429.45,328.08L423.41,330.06L423.12,332.16L425.69,334.99L423.57,337.52L425.03,342.68L427.57,345.05L434.94,349.43L439.1,358.58L446.51,365.2L449.08,366.44L455.65,366.38L456.36,371.63L465.64,375.52L472.99,379.76L477.78,385.5L474.49,387.26L472.49,383.67L464.57,381.82L461.62,388.07L462.32,390.37L466.8,393.08L467.54,397.08L462.54,400.04L462.61,403.24L458.77,408.14L455.97,408.17L457.63,400.07L459.48,399.58L457.69,393.36L454.56,386.71L448.24,384.1L446.46,379.63L443.93,379.99L440.86,377.97L437.58,373.71L432.23,373.62L428.33,371.27L419.73,362.76L415.75,360.18L411.79,356.02L405.92,344.78L399.59,341.69L395.28,340.62L389.86,345.83L385.09,347.4L386.5,344.13L380.63,342.09L381.02,337.58L377.63,333.44L381.82,330.52L378.86,326.26L380.59,325.12L388.43,324.19L392.12,321.83L396.29,326.1L398.52,321.41L404.05,320.64L407.97,315.47L412.62,316.16L414.3,314.34L421.66,314.75L423.67,317.14ZM425.93,346.01L426.14,345.48L425.52,345.17L425.19,345.67Z" class="land" id="IT" title="Italy"/>
    <path d="M214.27,126.95L220.03,128.85L219.38,131.26L227.23,133.72L225.03,139.45L216.2,144.67L208.59,146.38L204.2,148.66L195.59,150.07L189.23,152.92L178.28,151.53L171.21,148.01L161.31,148.92L167.35,145.51L166.91,142.65L162.36,137.95L167.8,133.66L161.57,132.87L154.26,134.45L152.08,133.72L156.36,128.4L166.09,125.12L173.27,130.16L171.84,133.84L174.88,134.11L179.76,131.6L180.15,128.73L191.43,127.5L205.69,127.83L207.47,124.97L211.43,124.36Z" class="land" id="IS" title="Iceland"/>
    <path d="M275.67,242.55L276.79,254.1L272.4,261.48L264.81,262.38L263.7,263.57L254.54,267.54L250.71,268.41L248.57,266.49L242.4,264.69L245.84,262L248.93,257.77L251.42,252.4L247.71,249.44L246.6,240.69L257.22,239.99L256.28,236.69L260.25,232.1L268.2,230.06L268.32,232.63L261.14,239.33L266.91,242.23L270.23,239.72L272.33,242.85Z" class="land" id="IE" title="Ireland"/>
    <path d="M289.64,241.59L287.05,242.25L288.94,239.7Z" class="land" id="IM" title="Isle of Man"/>
    <path d="M500.63,299.72L507.06,304.39L502.58,306.64L494.76,321.23L487.58,323.24L481.78,322.76L476.9,325.06L473.24,326.75L469.39,326.72L463.92,324.39L457.13,319.22L453.45,315.49L456.26,314.02L455.84,310.32L458.13,307.06L460.67,306.84L461.09,303.8L466.2,306.2L473.91,306.03L474.27,303.85L483.03,302.52L486.36,300.84L487.39,298.48L495.05,298.22L497.78,300.4Z" class="land" id="HU" title="Hungary"/>
    <path d="M469.08,356.43L475.65,359.93L476.41,361.25ZM476.9,325.06L478.44,329.22L478.58,336.01L475.61,333.86L468.69,333.85L458.15,332.42L456.37,334.57L452.14,332.81L451.99,337.07L455.39,340.09L456.25,342.77L468.62,354.92L468.37,356L462.45,351.29L454.39,348.55L447.31,342.34L448.43,341.02L445.17,337.69L444.61,333.82L440.63,331.13L437.51,336.36L434.61,333.54L433.96,329.33L436.46,330.24L443.35,329.41L448.3,329.84L447.62,327.11L450.38,326.06L450.22,322.29L457.13,319.22L463.92,324.39L469.39,326.72L473.24,326.75Z" class="land" id="HR" title="Croatia"/>
    <path d="M526.25,433.39L528.87,432.77L530.3,435.2L533.72,434.56L540.23,435.81L542.65,437.52L534.77,439.71L531.74,437.34L523.97,435.92ZM519.84,397.49L525.81,400.5L523.18,403.32L518.6,399.14ZM544.58,393.61L545.4,397.34L540.54,395.6ZM540.14,379.01L538.5,377.79L532.12,376.22L529.66,377.65L526.95,376.71L522.34,380.92L520.84,384.26L517.91,384.34L511.99,381.43L512.06,386.21L515.13,390.47L516.01,396.74L514.59,399.15L518.72,400.6L525.04,404.65L526.25,410.57L522.01,407.42L518.79,407.96L519.02,414.51L515.63,413.89L518.71,420.38L514.77,420.33L510.12,417.71L508.75,420.77L505.89,417.17L505.46,412.34L501.59,408.37L503.56,405.47L507,404.09L515.46,407.72L518.1,406.76L511.93,402.93L504.04,404.16L500.98,403.5L497.85,399.07L497.72,396.97L493.48,393.63L490.7,389.63L495.87,385.37L498.57,379.73L497.86,377.73L502.92,377.53L505.67,375.05L510.34,374.93L513.65,372.66L519.57,372.13L522.93,370.67L533.1,373.62L540.29,372.14L541.5,368.7L544.33,371.98L542.06,373.68L542.34,376.64Z" class="land" id="GR" title="Greece"/>
    <path d="M303.72,288.64L303.44,289.31L302.66,288.91Z" class="land" id="GG" title="Guernsey"/>
    <path d="M707.6,366.89L705.96,369.32L710.13,372.58L709.28,375.43L698.86,371.48L696.82,373.13L684.16,375.05L678.02,370.29L675.56,371.58L667.51,370.77L668.88,366.06L665.5,358.89L659.47,354.7L656.81,354.1L651.85,351L653.01,349.45L657.16,349.82L665.33,353.08L672.21,353.03L684.24,357.98L685.99,359.86L690.2,357.96L693.19,357.89L697.49,360.24L700.75,360.81L700.5,363.62Z" class="land" id="GE" title="Georgia"/>
    <path d="M401.73,357.37L402.57,364.4L399.82,372.15L396.61,370.03L395.51,360.03ZM369.67,288.2L374.1,289.07L377.3,292.03L383,292.12L388.51,293.94L386.26,297.37L384.44,303.2L384.85,308.02L379.99,310.78L372.67,319.95L378.31,320.08L380.59,325.12L378.86,326.26L381.82,330.52L377.63,333.44L381.02,337.58L380.63,342.09L386.5,344.13L385.09,347.4L384.64,347.57L384.44,347.36L384.15,347.77L377.06,353.6L373.97,354.61L368.1,352.98L365.21,350.75L362.37,351.48L356.92,349.21L350.46,353.35L348.79,356.23L350.17,361.26L340.45,362.07L337.75,360.52L335.46,359.55L329.42,356.96L328.89,358.58L323.35,358.58L321.22,357.17L313.11,354.74L308.96,351.13L311.5,349.51L313.52,339.2L315.04,326.35L314.41,321.15L309.25,319.06L307.07,316.03L307.42,313.7L298.33,306.97L292.39,305.52L289.1,305.67L286.61,302.98L288.55,300.1L285.97,298.35L297.91,295.29L302.17,298.38L304.15,297.24L312.21,297.31L311.08,291.61L308.95,286.73L313.69,286.76L314.63,289.72L322.38,290.65L325.89,288.96L325.17,286.53L333.55,283.54L335.95,280.55L336.14,276.05L338.74,273.51L343.55,272.44L346.08,276.33L356.7,281.02L356.77,283.92L360.57,283.49L362.29,285.67L367.44,288.48Z" class="land" id="FR" title="France"/>
    <path d="M275.43,163.94L272.6,165.19L271.52,163.4Z" class="land" id="FO" title="Faroe Islands"/>
    <path d="M522.61,101.84L520.15,106.59L522.16,109.26L526.95,110.4L532.04,115.02L527.12,120.22L534.43,128.2L536.53,131.94L533.95,132.46L534.32,138.48L538.02,140.35L538.99,144.03L542.44,147.22L539.82,150.3L548.79,154.77L551.93,157.78L550.71,160.75L540.89,170.35L528.65,179.92L524.54,179.9L513.15,181.85L509.65,183.17L499.35,185.35L492.34,184.29L490.37,181.6L481.66,179.35L480.66,175.82L481.69,169.93L478.65,166.18L479.07,163.97L476.76,160.23L483.97,152.63L490.58,148.37L497.08,142.65L498.66,140.02L504.15,138.1L503.26,133.79L494.34,130.81L490.16,124.66L491.7,121.67L487.14,115.9L487.59,111.37L481.03,107.46L475.44,106.3L465.29,101.71L471.84,99.63L478.01,104.53L484.4,105.16L487.82,103.76L495.64,105.65L500.56,102.12L501.29,96.26L504.36,93.95L513.4,92.65L522.63,96.09L524.3,97.84Z" class="land" id="FI" title="Finland"/>
    <path d="M531.88,189.95L528.67,197.17L529.83,201.63L532.47,205.78L529.91,208.81L523.74,208.78L519.22,205.81L512.29,203.63L506.62,205.49L507.52,200.82L501.81,200.75L499.49,197.88L498.68,192.72L504.9,190.06L512.74,189.6L513.06,188.47L524.22,190.28ZM492.87,198.24L498.1,199.57L490.01,203.12L489.03,199.62Z" class="land" id="EE" title="Estonia"/>
    <path d="M189.67,511.18L189.67,514.05L186.84,515L187.22,511.1ZM181.64,508.72L178.67,512.65L176.66,509.15ZM200.16,510.95L202.03,505.28L203.51,506.56L202.52,510.06ZM349.94,388.79L352.59,389.76L349.39,393.91L343.49,390.65L346.92,388.12ZM308.96,351.13L313.11,354.74L321.22,357.17L323.35,358.58L328.89,358.58L329.42,356.96L335.46,359.55L335.94,361.23L337.75,360.52L340.45,362.07L350.17,361.26L350.53,366.33L340.95,373.16L332.26,375.52L329.62,378.01L326.71,383.27L320.95,391.62L321.97,396.4L325.37,399.58L320.48,402.96L318.25,405.94L316.76,411.92L312.5,412.13L308.52,415.57L305.84,420.36L300.12,421.01L296.14,420.58L286.77,420.97L284.13,423.19L279.91,424.06L276,428.24L272.51,426.54L268.85,418.49L265.59,415.98L261.19,416.13L260.47,411.88L263.25,407.46L262.04,402.74L264.64,398.03L261.47,391.44L264.93,389.59L265.24,384.42L266.97,383.02L266.16,376.07L272.23,370.62L269.53,369.16L268.97,366.35L262.45,367.48L258.19,366.96L255.85,364.36L251.13,366.37L251.95,362.9L247.71,355.6L250.81,351.89L253.58,351.86L255.96,349.34L260.6,347.43L264.12,349.19L277.21,349.32L286.56,351.04L294.11,349.97L298.68,351.5L304.49,351.95Z" class="land" id="ES" title="Spain"/>
    <path d="M275.67,242.55L272.33,242.85L270.23,239.72L266.91,242.23L261.14,239.33L268.32,232.63L276.72,231.4L281.56,238.48L280.45,240.73ZM300.41,199.26L299.6,201.14L293.69,204.64L294.53,208.11L298.06,207.07L308.07,207.12L310.27,209.14L303.51,220.6L299.47,222.93L307.31,224.66L311.03,227.93L313.76,235.77L318.51,238.44L322.1,243.21L328.03,253.7L331.89,253.78L336.59,255.83L337.31,258.68L335.88,262.5L331.17,265.3L329.08,269.53L334.8,269.76L331.25,274.17L325.3,275.81L311.72,275.96L303.58,277.29L300.03,276.28L296.82,277.13L293.68,281.2L290.71,279.57L281.43,281.03L287.55,275.68L290.74,271.52L299.02,271.36L289.3,265.97L285.23,267.12L283.87,263.41L289.43,261.4L292.64,257.95L291.76,251.19L299.92,249.12L301.05,246.08L299.25,242.16L296.2,238.8L297.32,233.9L293.27,235.7L284.24,234.95L287.56,229.4L283.68,224.41L280.94,223.17L282.74,218.68L278.63,217.79L281.66,211.68L279.79,209.7L283.64,201.93L288.38,199.31L300.85,198.11Z" class="land" id="GB" title="United Kingdom"/>
    <path d="M405.03,227.54L406.37,232.23L400.25,231.93L399.09,228.46ZM419.62,225.82L417.12,228.95L416.27,235.36L413,231.7L410.18,231.53L407.52,226.44L416.74,222.55ZM398.52,235.26L390.26,234.49L389.61,229.42L385.84,227.64L385.65,217.78L388.86,212.86L395.87,211.68L398.77,208.3L403.18,209.58L401.61,213.95L401.72,217.65L406.05,218.61L406.26,220.82L402.21,221.63L401.37,225.04L397.04,228.69Z" class="land" id="DK" title="Denmark"/>
    <path d="M398.52,235.26L403.49,239.09L411.78,243.98L417.14,241.76L420.53,238.8L424.06,239.36L430.91,244.88L434.03,246.11L435.57,250.55L433.63,254.59L437.71,258.08L439.07,262.55L438.07,265.05L441.74,270.88L440.39,274.84L436.9,274.44L422.12,279.98L420.83,281.68L421.98,286.16L424.06,288.98L433.91,296.04L430.9,299.83L426.28,302.21L427.55,304.97L425.53,307.24L417.8,308.11L414.51,309.74L407.48,308.54L406.64,310.88L401.99,308.19L400.21,308.72L392.83,306.24L389.53,307.87L384.85,308.02L384.44,303.2L386.26,297.37L388.51,293.94L383,292.12L377.3,292.03L374.1,289.07L375.14,285.56L372.1,282.3L374.01,280.32L370.95,275.94L370.1,273.58L372.3,268.5L370.3,265.75L376.47,264.26L378.61,259.56L379.55,250.56L380.08,246.59L385.68,246.5L389.84,247.83L392.5,245.06L392.64,238.1L390.26,234.49Z" class="land" id="DE" title="Germany"/>
    <path d="M440.39,274.84L444.72,275.32L450.02,277.34L455.73,282.53L459.25,279.69L465.3,283.8L470.83,284.74L473.29,288.48L468.17,291.05L465.27,294.8L460.75,295.08L459.08,297.75L455.13,295.7L451.81,296.16L446.45,294.1L442.99,293.83L441.01,297.74L435.88,297.71L433.91,296.04L424.06,288.98L421.98,286.16L420.83,281.68L422.12,279.98L436.9,274.44Z" class="land" id="CZ" title="Czechia"/>
    <path d="M616.3,432.78L612.2,435.95L613.45,439.15L604.44,443.48L600.09,441.87L598.74,439.52L603.6,434.92L608.05,435.49Z" class="land" id="CY" title="Cyprus"/>
    <path d="M400.21,308.72L400.34,311.31L400.11,313.45L400.86,313.5L404.29,315.26L407.97,315.47L404.05,320.64L398.52,321.41L396.29,326.1L392.12,321.83L388.43,324.19L380.59,325.12L378.31,320.08L372.67,319.95L379.99,310.78L384.85,308.02L389.53,307.87L392.83,306.24Z" class="land" id="CH" title="Switzerland"/>
    <path d="M368.58,275.69L369.4,275.9L370.95,275.94L374.01,280.32L372.1,282.3L369.21,284.33L369.67,288.2L367.44,288.48L362.29,285.67L360.57,283.49L356.77,283.92L356.7,281.02L346.08,276.33L343.55,272.44L350,269.62L354.37,271.33L356.88,269.53L359.04,268.65L366.98,270.65L369.53,272.16Z" class="land" id="BE" title="Belgium"/>
    <path d="M538.01,222.31L543.24,224.27L547.66,224.31L548.88,226.81L554.36,225.23L559.94,227.93L561.33,233.04L560.38,235.68L563.07,237.01L565.98,241.49L569.2,242.88L577.44,250.02L573.47,252.46L567.68,251.42L570.31,260.24L572.09,262.36L566.05,262.91L563.22,267.42L554.22,269.57L552.23,267.21L548.12,267.96L537.6,267.25L536.41,265.86L526.67,264.24L514.48,264.7L508.96,268.21L508.23,262.34L504.92,260.8L509.5,256.72L509.4,253.1L505.18,244.03L515.06,243.68L520.61,240.14L522.24,234.34L524.55,233.51L526.84,226.97L530.11,225.37L534.16,225.69Z" class="land" id="BY" title="Belarus"/>
    <path d="M478.58,336.01L481.44,336.12L480.2,341.86L483.43,348.06L481.15,349.83L479.1,350.2L475.41,355.68L475.65,359.93L469.08,356.43L468.37,356L468.62,354.92L456.25,342.77L455.39,340.09L451.99,337.07L452.14,332.81L456.37,334.57L458.15,332.42L468.69,333.85L475.61,333.86Z" class="land" id="BA" title="Bosnia and Herzegovina"/>
    <path d="M557.96,347.66L557.38,351.32L553.2,353.43L553.35,357.95L550.33,360.88L555.24,366.07L551.33,366.57L549.18,364.92L543.68,366.11L541.5,368.7L540.29,372.14L533.1,373.62L522.93,370.67L519.57,372.13L513.65,372.66L514.06,368.69L512.42,365.81L508.07,362.48L509.44,361.16L508.62,356.99L512.5,353.41L508.79,350.64L507.19,344.91L509.3,342.53L513.89,346.3L532.72,348.4L538.25,344.92L545.2,343.26L551.93,345.12L553.47,346.83Z" class="land" id="BG" title="Bulgaria"/>
    <path d="M710.13,398.34L704.6,396.99L698.02,390.25L697.52,389.7L699.62,389.06L706.39,393.1ZM725.4,367.37L730.83,373.02L732.34,375.89L737.73,380.51L742.46,382.29L736.57,384.57L735.74,390.7L736.52,393.4L733.97,395.65L733.17,398.99L733.97,402.96L731.69,403.22L726.22,398.95L727.78,397.28L724.5,389.9L722.71,390.27L713.23,398.04L713.24,394.95L709.67,390.84L705.75,387.84L706.62,384.16L701.04,379.94L702.44,377.76L696.82,373.13L698.86,371.48L709.28,375.43L710.13,372.58L705.96,369.32L707.6,366.89L710.38,367.7L715.51,372.88L720.67,373.94L724.35,369.89Z" class="land" id="AZ" title="Azerbaijan"/>
    <path d="M459.08,297.75L458.48,299.35L461.09,303.8L460.67,306.84L458.13,307.06L455.84,310.32L456.26,314.02L453.45,315.49L452.49,317.39L444.8,317.92L440.92,320.07L434.36,319.01L423.67,317.14L421.66,314.75L414.3,314.34L412.62,316.16L407.97,315.47L404.29,315.26L400.86,313.5L400.34,311.31L400.21,308.72L401.99,308.19L406.64,310.88L407.48,308.54L414.51,309.74L417.8,308.11L425.53,307.24L427.55,304.97L426.28,302.21L430.9,299.83L433.91,296.04L435.88,297.71L441.01,297.74L442.99,293.83L446.45,294.1L451.81,296.16L455.13,295.7Z" class="land" id="AT" title="Austria"/>
    <path d="M713.23,398.04L710.13,398.34L706.39,393.1L699.62,389.06L697.52,389.7L692.98,386.18L688.78,385.87L686.26,381.57L687.15,379.09L684.16,375.05L696.82,373.13L702.44,377.76L701.04,379.94L706.62,384.16L705.75,387.84L709.67,390.84L713.24,394.95Z" class="land" id="AM" title="Armenia"/>
    <path d="M337.75,360.52L335.94,361.23L335.46,359.55Z" class="land" id="AD" title="Andorra"/>
    <path d="M471.28,181.68L473.37,182.54L469.76,184.08L469.14,182.47Z" class="land" id="AX" title="Aland Islands"/>
    <path d="M489.07,360.06L492.81,363.43L493.75,367.06L493.06,370.73L495.68,376.91L497.86,377.73L498.57,379.73L495.87,385.37L490.7,389.63L489.21,386.14L485.25,383.63L484.48,379.67L485.31,376.86L484.78,371.74L485.64,367.96L483.64,367.11L482.9,363.95L485.64,359.21Z" class="land" id="AL" title="Albania"/>
  </g>
</svg>