<?xml version="1.0" encoding="UTF-8"?>
<svg xmlns="http://www.w3.org/2000/svg" width="310.74" height="520" viewBox="324.63 -2.5 310.74 520">
  <!-- Created using SVG Map Generator: dojo.amcharts.com/svg-map-generator -->
  <style>
    .land { fill: #ffffff; stroke: #000000; stroke-width: 0.5; }
  </style>
  <g id="polygons">
    <path d="M458.75,264.04L465.06,271.3L470.48,275.69L478.09,278.27L481.74,281.03L492.27,286.26L494.01,288.32L491.02,295.8L491.33,297.7L489.12,301.55L492.12,302.63L503.38,304.78L504.88,303L507.83,303.71L509.26,300.61L513.08,296.96L513.11,289.63L517.81,290.34L519.7,294.6L519.45,301.46L513.57,304.76L512.15,307.18L508.54,309.76L502.32,320.42L498.75,324.96L497.12,338.26L497.71,342.46L497.05,351.58L500.01,359.39L506.74,363.25L508.26,370.55L512.13,372.71L512.87,375.95L509.69,382.77L509.25,385.37L505.9,388.04L496.44,391.1L488.86,392.28L482.92,391.72L483.18,399.14L484.19,406.7L481.16,408.36L476.32,408.66L469.2,406.12L467.63,406.62L470.04,414.88L474.72,418.39L479.62,418.18L479.77,421.19L477.25,421.62L471.8,427.41L472.98,433.79L472.39,437.78L469.04,437.45L465.18,439.65L463.03,444.99L463.79,447.8L469.81,452.73L474.56,453.38L476.61,455.25L477.46,459.69L471.85,464.78L469.46,469.36L470.3,473.88L464.87,477.73L464.53,481.9L467.36,486.92L472.48,492.17L462.99,489.63L451.8,489.5L447.86,486.22L447.01,481.6L444.91,479.38L441.55,480.34L436.2,471.84L439.83,466L440.31,462.84L438.2,459.2L440.2,454.18L440.01,449.54L437.64,443.15L439.02,439.45L437.04,437.57L438.15,433.52L434.42,433.09L434.29,429.67L429.53,422.59L428.23,417.36L430.01,415.87L428.2,412.46L426.18,405.19L426.92,402.48L425.44,397.17L426.01,392.22L428.45,390.34L425.37,382.9L423.91,373.45L427.14,369.92L425.52,364.3L425.69,359.76L427.6,355.87L426.67,349.56L425.1,348.58L422.97,342.46L419.05,335.54L420.13,326.9L421.3,326.27L419.47,318.34L420.64,311.37L423.08,307.62L424.23,301.71L427.26,300.75L425.17,296.84L425.81,294.05L423.88,288.94L424.83,285.92L423.42,283.97L424.94,280.56L430.29,277.82L431.48,269.91L430.12,268.54L432.65,263.9L436.24,260.99L438.58,263.01L446.19,264L448.16,268.07L450.09,262.8L457.31,262.23ZM477.59,510.22L472.15,494.32L477.93,500.93L483.16,504.44L496.13,510.39L490.01,511.5L487.4,510.73Z" class="land" id="AR" title="Argentina"/>
    <path d="M486,248.21L485.62,245.56L479.36,241.5L473.45,241.58L462.4,244.24L459.76,251.26L460.17,255.1L458.75,264.04L457.31,262.23L450.09,262.8L448.16,268.07L446.19,264L438.58,263.01L436.24,260.99L432.65,263.9L430.12,268.54L425.73,268.55L422.26,256.9L419.69,251.63L417.97,250.46L417.64,244.82L418.92,242.62L415.27,239.07L413.73,232.06L410.62,227.9L409.65,225.56L413.16,221.3L409.86,213.37L411.22,210.57L409.73,208.49L412.48,202.66L410.91,198.72L411.08,192.6L412.79,189.72L406.18,177.9L413.93,178.41L424.39,170.46L433.02,168.46L433.71,180.15L436.64,185.7L440.6,189.24L449.55,190.99L451.68,193.49L455.59,194.53L458.31,197.52L462.94,197.25L466.81,199.54L468.6,205.86L470.35,218.45L481.02,218.91L482.49,225.82L486.32,227.95L488.48,233.8L487.56,239.93L485.88,245Z" class="land" id="BO" title="Bolivia"/>
    <path d="M489.82,79.77L492.17,77.05L499.58,74.82L502.12,76.85L505.3,78.41L507.7,76.63L512.97,77.93L514.72,76.57L519.51,66.38L521.78,63.65L524.63,63.4L525.63,69.58L528.12,78.34L529.42,80.63L532.71,81.92L533.07,85.7L530.46,88.19L527.02,93.23L523.95,95.19L521.2,100.34L519.62,106.62L526.37,103.03L527.9,107.95L529.8,109.88L534.29,109.2L536.95,107.72L539.07,108.47L544.79,100.16L549.5,99.31L553.37,100.48L561.05,104.8L564.8,105.7L567.6,107.83L569.9,113.83L571.19,114.31L578.91,113.3L583.45,115.79L585.91,115.44L589.59,116.88L595.12,115.81L598.48,116.31L608.33,122.83L611.18,126.62L617,131.92L620.86,133.33L627.7,133.57L629.81,136.9L632.87,150L632.79,155.2L629.7,164.79L623.05,174.34L619.6,176.9L616.67,182.06L615.03,186.65L611.65,192.32L608.05,191.86L606.34,198L607.45,201.37L606.9,206.14L608.5,215.36L606.91,226.44L607.47,229.41L605.44,231.59L604.1,236.56L604.65,241.44L600.8,251.31L598.45,253.88L597.11,258.47L596.95,262.9L593.34,264.62L591.55,269.5L582.06,270.25L579.83,269.21L574.98,270.33L570.36,275.15L566.92,275.99L561.5,279.37L555.61,285.2L551.99,291.46L551.86,298.26L553.05,302.04L553.38,308.78L552.69,312.6L547.44,318.64L544.97,326.78L539.52,326.31L538.29,331.59L535.44,334.12L535.31,340.13L533.11,347.56L529.33,352.19L527.67,347.81L529.71,344.49L524.97,339.28L519.17,334.9L510.64,331.72L508.25,328.34L503.55,324.34L498.75,324.96L502.32,320.42L508.54,309.76L512.15,307.18L513.57,304.76L519.45,301.46L519.7,294.6L517.81,290.34L513.11,289.63L514.19,277.92L511.55,276.12L506.95,277.49L502.5,264.6L498,263.03L495.48,264.33L488.56,262.6L488.75,254.59L486,248.21L485.88,245L487.56,239.93L488.48,233.8L486.32,227.95L482.49,225.82L481.02,218.91L470.35,218.45L468.6,205.86L466.81,199.54L462.94,197.25L458.31,197.52L455.59,194.53L451.68,193.49L449.55,190.99L440.6,189.24L436.64,185.7L433.71,180.15L433.02,168.46L424.39,170.46L413.93,178.41L406.18,177.9L399.26,178.35L398.61,166.68L394.88,170.39L388.72,170.68L387.22,166.92L381.74,166.17L383.11,162.98L379.09,158.05L375.84,152.04L377.42,150.36L377.23,147.09L381.17,143.74L380.42,140.95L382.47,133.52L389.18,128.82L394.87,127.64L395.99,126.29L401.47,126.77L404.84,103.63L403.06,98.21L400.4,95.6L400.52,90.15L406.39,87.97L401.86,86.49L401.93,81.55L412.92,81.46L418.37,78.68L421.44,85.24L424.36,88.29L433.09,86.12L439.62,82.23L440.16,80.06L444.4,77.64L440.94,75.89L439.09,70.17L439.12,67.25L436.89,64.88L445.26,64.71L447.35,67.2L449.1,63.98L452.79,63.37L460.42,60.04L463.11,56.55L462.25,54.97L467.16,55.88L466.27,60.23L468.09,60.49L469.86,64.62L467.82,67.25L466.8,74.08L468.3,80.09L471.72,84.08L474.13,85.39L477.58,82.47L482.5,81.58L485.64,79.22ZM534.83,96.29L538.2,95.79L543.04,97.23L539.46,105.82L535.14,107.57L529.1,108.15L527.42,103.98L528.14,96.62L530.76,95.43ZM520.37,105.45L522.23,99.49L524.01,102.32Z" class="land" id="BR" title="Brazil"/>
    <path d="M430.12,268.54L431.48,269.91L430.29,277.82L424.94,280.56L423.42,283.97L424.83,285.92L423.88,288.94L425.81,294.05L425.17,296.84L427.26,300.75L424.23,301.71L423.08,307.62L420.64,311.37L419.47,318.34L421.3,326.27L420.13,326.9L419.05,335.54L422.97,342.46L425.1,348.58L426.67,349.56L427.6,355.87L425.69,359.76L425.52,364.3L427.14,369.92L423.91,373.45L425.37,382.9L428.45,390.34L426.01,392.22L425.44,397.17L426.92,402.48L426.18,405.19L428.2,412.46L430.01,415.87L428.23,417.36L429.53,422.59L434.29,429.67L434.42,433.09L438.15,433.52L437.04,437.57L439.02,439.45L437.64,443.15L440.01,449.54L440.2,454.18L438.2,459.2L440.31,462.84L439.83,466L436.2,471.84L441.55,480.34L444.91,479.38L447.01,481.6L447.86,486.22L451.8,489.5L462.99,489.63L472.48,492.17L467.57,491.07L466.3,492.64L460.17,495.17L461.66,502.48L454.63,501.42L457.62,497.62L448.65,498.61L441.59,494.22L442.82,489.87L439.56,488L438.82,484.69L432.86,482.72L430.26,479.92L432.82,474.73L429.32,464.54L425.31,457.91L426.51,452.49L416.81,449.78L420.05,446.41L418.55,444.28L423.66,443.47L426.6,441.35L426.57,437.56L429.73,435.73L429.52,433.49L425.37,431.47L425.8,427.43L424.27,417.39L425.33,414.96L421.34,411.65L418.81,413.57L414.74,408.43L414.46,400.56L415.49,394.04L409.99,382.42L409.43,378.53L411.76,378.36L412.65,366.29L414.3,362.54L414.15,355.42L415.45,351.5L414.09,347.23L415.24,343.9L411.73,332.48L410.49,326.05L411.92,324.62L411.78,320.84L409.53,315.3L410.92,311.09L411.81,295.39L410.75,291.22L411.77,286.53L410.36,282.49L409.98,275.89L408.75,270.34L410.02,268.74L410.27,258.37L408.85,252.5L408.35,245.46L405.39,234.31L408.47,233.24L408.55,229.41L410.62,227.9L413.73,232.06L415.27,239.07L418.92,242.62L417.64,244.82L417.97,250.46L419.69,251.63L422.26,256.9L425.73,268.55ZM420.55,425.27L416.9,424.65L415.7,413.56L418.97,414.32L421.69,422.18ZM423.07,433.17L424.73,438.62L422.99,440.16L418.39,435.07ZM429.91,468.63L431.5,474.85L426.92,473.79L425.65,468.15ZM472.15,494.32L477.59,510.22L471.24,509.2L467.17,509.9L463.68,506.51L462.65,503.24L465.82,499.87L463.12,497.03L465.92,494.89ZM471.9,510.69L480.7,513.09L481.33,515L474.91,514.45Z" class="land" id="CL" title="Chile"/>
    <path d="M395.25,4.25L390.98,5.74L388.84,9.32L385.78,12.07L383.23,20.04L380.7,24.33L384.32,25.23L386.53,30.76L386.03,37.82L388.27,40.55L395.26,41.33L397.64,40.65L401.27,41.76L405.35,47.87L411.71,47.7L415.76,46.69L418.45,48.7L415.74,54.45L415.39,60.26L416.55,65.15L418.79,68.56L415.28,72.54L419.33,76.36L421.44,85.24L418.37,78.68L412.92,81.46L401.93,81.55L401.86,86.49L406.39,87.97L400.52,90.15L400.4,95.6L403.06,98.21L404.84,103.63L401.47,126.77L398.95,123.56L396.34,123.32L400.54,115.47L394.96,111.42L391.8,112.3L389.44,110.92L385.24,113.02L380.24,111.88L379.92,108.47L377.94,107.43L376.81,104.04L372.97,101.93L369.29,96.07L366.12,95.35L359.37,91.13L358.16,92.76L352.06,91.31L351.77,89.71L346.23,86.59L342.66,83.48L344.54,81.05L344.33,77L347.62,75.62L350.63,72.65L354.09,65.16L352.41,63.66L353.48,58.62L352.88,53.34L353.98,50.57L352.65,47.55L353.46,45.06L350.15,39.54L357.34,32.98L357.31,28.95L361.47,26.14L362.51,24.03L365.84,22.63L365.97,16.94L367.64,13.79L371.83,9.99L374.32,10.9L377.08,8.23L381.93,8.57L389.02,4.05L392.97,0L395.88,0.65Z" class="land" id="CO" title="Colombia"/>
    <path d="M366.12,95.35L366.27,98.77L364.29,106.19L360.93,110.77L357.1,114.04L349.39,117.23L346.26,120.65L345.84,123.28L341.78,132.51L340.1,132.04L337.97,128.43L332.16,125.51L334.3,124.04L333.25,120.32L335.86,118.05L337.05,114.17L332.32,114.52L330.15,110.34L329.2,102.75L331.48,101L331.94,97.35L334.23,94.59L334.54,88.58L342.38,85.37L342.66,83.48L346.23,86.59L351.77,89.71L352.06,91.31L358.16,92.76L359.37,91.13Z" class="land" id="EC" title="Ecuador"/>
    <path d="M516.88,485.64L522.63,485.39L520.05,489.35ZM524.69,484.24L531.37,487.45L525.33,490.83Z" class="land" id="FK" title="Falkland Islands"/>
    <path d="M521.78,63.65L519.51,66.38L514.72,76.57L512.97,77.93L507.7,76.63L505.3,78.41L502.12,76.85L504.93,73.11L506.36,67.24L504.05,63.7L503.53,56.4L505.53,53.77L507.64,50.55L513.8,53.27L517.71,56.95Z" class="land" id="GF" title="French Guiana"/>
    <path d="M485.61,52.33L484.62,56.35L482.12,56.57L479.73,62.81L488.37,79.06L489.82,79.77L485.64,79.22L482.5,81.58L477.58,82.47L474.13,85.39L471.72,84.08L468.3,80.09L466.8,74.08L467.82,67.25L469.86,64.62L468.09,60.49L466.27,60.23L467.16,55.88L462.25,54.97L458.23,49.6L459.92,47.27L459.93,43.61L464.92,41.7L462.94,37.49L464.37,35.09L467.6,33.26L467.85,29.49L473.06,33.1L476.68,37.13L477.5,40.99L480.71,42.91L485.75,48.15Z" class="land" id="GY" title="Guyana"/>
    <path d="M401.47,126.77L395.99,126.29L394.87,127.64L389.18,128.82L382.47,133.52L380.42,140.95L381.17,143.74L377.23,147.09L377.42,150.36L375.84,152.04L379.09,158.05L383.11,162.98L381.74,166.17L387.22,166.92L388.72,170.68L394.88,170.39L398.61,166.68L399.26,178.35L406.18,177.9L412.79,189.72L411.08,192.6L410.91,198.72L412.48,202.66L409.73,208.49L411.22,210.57L409.86,213.37L413.16,221.3L409.65,225.56L410.62,227.9L408.55,229.41L408.47,233.24L405.39,234.31L398.92,229.24L397.35,226.28L390.84,221.8L381.61,217.57L372.76,211.91L366.82,205.97L364.17,202.16L364.45,197.44L359.52,188.55L357.26,186.35L356.59,183.32L353.69,180.46L352.78,177.03L349.47,171.33L345.03,160.12L340.69,154.17L337.88,148.31L335.46,145.14L330.74,142.34L327.13,127.43L330.2,122.93L333.25,120.32L334.3,124.04L332.16,125.51L337.97,128.43L340.1,132.04L341.78,132.51L345.84,123.28L346.26,120.65L349.39,117.23L357.1,114.04L360.93,110.77L364.29,106.19L366.27,98.77L366.12,95.35L369.29,96.07L372.97,101.93L376.81,104.04L377.94,107.43L379.92,108.47L380.24,111.88L385.24,113.02L389.44,110.92L391.8,112.3L394.96,111.42L400.54,115.47L396.34,123.32L398.95,123.56Z" class="land" id="PE" title="Peru"/>
    <path d="M486,248.21L488.75,254.59L488.56,262.6L495.48,264.33L498,263.03L502.5,264.6L506.95,277.49L511.55,276.12L514.19,277.92L513.11,289.63L513.08,296.96L509.26,300.61L507.83,303.71L504.88,303L503.38,304.78L492.12,302.63L489.12,301.55L491.33,297.7L491.02,295.8L494.01,288.32L492.27,286.26L481.74,281.03L478.09,278.27L470.48,275.69L465.06,271.3L458.75,264.04L460.17,255.1L459.76,251.26L462.4,244.24L473.45,241.58L479.36,241.5L485.62,245.56Z" class="land" id="PY" title="Paraguay"/>
    <path d="M505.53,53.77L503.53,56.4L504.05,63.7L506.36,67.24L504.93,73.11L502.12,76.85L499.58,74.82L492.17,77.05L489.82,79.77L488.37,79.06L479.73,62.81L482.12,56.57L484.62,56.35L485.61,52.33L487.18,48.95L493.9,50.45L494.66,49.19L501.2,48.99L506.28,50.36Z" class="land" id="SR" title="Suriname"/>
    <path d="M529.33,352.19L527.52,357.07L525.49,359.29L521.27,361.29L516.3,360.09L513.71,361.1L506.61,357.62L502.56,357.81L498.28,353.49L497.74,348.49L498.97,345.69L497.71,342.46L497.12,338.26L498.75,324.96L503.55,324.34L508.25,328.34L510.64,331.72L519.17,334.9L524.97,339.28L529.71,344.49L527.67,347.81Z" class="land" id="UY" title="Uruguay"/>
    <path d="M467.85,29.49L467.6,33.26L464.37,35.09L462.94,37.49L464.92,41.7L459.93,43.61L459.92,47.27L458.23,49.6L462.25,54.97L463.11,56.55L460.42,60.04L452.79,63.37L449.1,63.98L447.35,67.2L445.26,64.71L436.89,64.88L439.12,67.25L439.09,70.17L440.94,75.89L444.4,77.64L440.16,80.06L439.62,82.23L433.09,86.12L424.36,88.29L421.44,85.24L419.33,76.36L415.28,72.54L418.79,68.56L416.55,65.15L415.39,60.26L415.74,54.45L418.45,48.7L415.76,46.69L411.71,47.7L405.35,47.87L401.27,41.76L397.64,40.65L395.26,41.33L388.27,40.55L386.03,37.82L386.53,30.76L384.32,25.23L380.7,24.33L383.23,20.04L385.78,12.07L388.84,9.32L390.98,5.74L395.25,4.25L390.92,7.66L392.86,13.44L389.09,19.85L391.57,25.51L394.14,25.1L395.98,20.68L394.04,16.43L393.82,11.1L402.11,7.98L402.01,4.07L404.01,1.85L406.09,7.16L411.32,7.53L414,9.6L414.81,14.11L417.13,14.85L427.83,13.62L430.26,16.48L436.75,17.69L443.37,13.38L451.06,12.73L450.01,15.26L452.06,17.1L463.04,23.31L461.24,25.33L459.37,30.55L462.73,29.16Z" class="land" id="VE" title="Venezuela"/>
  </g>
</svg>