<?xml version="1.0" encoding="UTF-8"?>
<svg xmlns="http://www.w3.org/2000/svg" width="568.14" height="520" viewBox="195.93 -2.5 568.14 520">
  <!-- Created using SVG Map Generator: dojo.amcharts.com/svg-map-generator -->
  <style>
    .land { fill: #ffffff; stroke: #000000; stroke-width: 0.5; }
  </style>
  <g id="polygons">
    <path d="M761.46,217.65L761.41,216.95L761.57,217.26Z" class="land" id="TV" title="Tuvalu"/>
    <path d="M661.36,0.33L660.98,0.14L661.07,0L661.3,0.1Z" class="land" id="UM-WQ" title="Wake Island"/>
    <path d="M669.97,266.65L672.06,269.06L671.94,271.8L669.21,272.97L668.29,271.18L668.48,266.83Z" class="land" id="VU" title="Vanuatu"/>
    <path d="M397,225.12L396.44,220.68L398.36,218.38L402.67,217.17L408.17,216.91L409.98,218.9L399.46,223.28Z" class="land" id="TL" title="Timor-Leste"/>
    <path d="M631.54,217.49L625.67,213.64L626.89,212.57L631.48,215.88ZM630.02,223.26L635.6,225.72L635.42,228.38L630.22,227.31L628.91,225.28ZM637.57,215.77L638.99,218.1L640.1,223.6L637.67,222.35L636.46,216.23Z" class="land" id="SB" title="Solomon Islands"/>
    <path d="M587.5,188.02L585.69,186L585.34,182.08L588.78,184.09ZM606.57,203.08L604.85,204.45L602.42,203.35L601.73,200.12L599.1,197.49L600.79,194.13L603.61,198.85L605.86,200.68ZM580.63,184.43L583.91,184.77L583.7,187.82L580.97,189.95L581.67,192.7L579.69,194.32L577.34,194.22L575.22,197.09L569.63,199.87L564.4,199.99L560.95,198.71L556.27,195.88L556.01,194.17L560.44,193.7L562.06,194.39L569.16,194.09L573.63,193.22L576.37,189.61L578.72,189.01L578.15,184.81ZM504.1,222.05L505.66,204.78L506.97,183.88L507.45,171.27L508.87,171.42L515.67,174.97L524.31,177.68L527.61,180.43L530.7,180.75L534.62,184.84L536.27,185.12L539,188.54L539.27,193.59L542.91,194.72L546.99,197.09L549.28,197.33L551.93,200.18L552.02,202.89L547.1,203.35L545.9,204.97L547.15,208.47L550.39,212.36L552.93,214.13L553.38,217.65L555.24,221.53L559.68,221.68L559.09,224.3L563.05,229.04L568.13,230.94L566.52,233.91L563.46,233.44L561.92,231.69L548.87,229.48L542.59,221.32L538.88,213.92L531.96,211.78L529,209.95L522.53,214.89L518.96,215.75L520.28,220.82L515.15,223.69L512.48,222.45L505.08,222.85Z" class="land" id="PG" title="Papua New Guinea"/>
    <path d="M462.47,93.35L461.83,92.92L462.07,91.7L462.72,91.16Z" class="land" id="PW" title="Palau"/>
    <path d="M627.77,473.9L633.03,471.65L636.38,471.88L632.69,475.66L632.7,477.49L624.24,483.52L619.91,487.07L615.38,489.25L613.33,494.14L610.39,493.66L603.03,496.02L596.25,502.98L590.28,507.94L579.43,514.59L571.28,515L569.3,511.84L563.54,511.88L567.03,506.86L572.86,502.4L584.55,495.61L587.7,494.91L594.97,491.82L601.35,488.08L604.96,486.68L610.44,483.11L615.18,477.91L620.13,475.19L623.34,471.32L628.51,467.99L629.08,470.55ZM657.09,424.36L660.37,425.08L662.49,426.8L660.74,430.93L661.08,435.13L658.29,439.29L661.26,440.48L664.52,436.43L665.04,440.2L663.46,445.58L669.6,448.28L675.8,444.87L678.49,445.94L672.85,452.65L670.23,453.99L668.18,457.27L664.99,456.79L660.81,459.03L660.32,461.41L656.33,465.18L645.82,473.39L639.68,476.48L637.11,473.98L643.65,468.79L645.83,466.21L645.92,463.58L641.32,460.13L642.48,457.25L648.82,454.48L655.33,446.82L655.67,444.04L658.21,440.09L656.29,440.08L658.23,436.23L656.23,434.08L655.02,426.48Z" class="land" id="NZ" title="New Zealand"/>
    <path d="M682.88,154.95L682.59,155.19L682.58,154.82Z" class="land" id="NR" title="Nauru"/>
    <path d="M644.32,377.91L644.39,378.37L643.99,378.42Z" class="land" id="NF" title="Norfolk Island"/>
    <path d="M643.09,309.07L644.56,309.36L648.5,313.17L650.5,317.08L657.04,323.53L655.25,325.77L647.14,319.1L643.51,313.64Z" class="land" id="NC" title="New Caledonia"/>
    <path d="M529.49,32.81L529.05,32.87L529.12,32.16L529.63,32.48Z" class="land" id="MP" title="Northern Mariana Islands"/>
    <path d="M708.1,95.25L708.98,95.65L708.83,95.76L708.08,95.48Z" class="land" id="MH" title="Marshall Islands"/>
    <path d="M733.75,157.18L733.56,156.96L733.38,155.97L733.53,155.93Z" class="land" id="KI" title="Kiribati"/>
    <path d="M507.45,171.27L506.97,183.88L505.66,204.78L504.1,222.05L497.88,214.11L494.13,214.8L490.6,214.46L492.54,210.1L490.47,207.48L491.49,204.41L488.92,200.39L486.83,193.54L480.53,189.33L473.21,186.26L467.97,185.63L461.13,180.53L457.93,177.16L454.99,182.6L453.1,182.86L451.77,179.81L451.87,176.62L449.24,174.13L455.04,169.93L457.83,170.79L460.03,167.32L453.54,168.65L449.13,168.41L447.25,166.45L446.69,163.09L442.42,161.79L442.22,157.6L445.92,156.41L448.12,154.47L451.47,153.73L457.16,156.59L460.55,156.73L462.41,161.55L461.33,164.35L461.59,168.04L467.26,176.92L470.29,177.01L475.58,171.07L476.63,168.65L479.7,168.06L481.65,165.28L486.3,162.49L491.94,164.89L499.52,169.23L505.12,170ZM214.53,139.5L217.6,143.33L217.24,146.03L214.05,143.54ZM399.29,143.16L396.21,147.26L391.67,148.54L388.38,148.38L387.14,147.14L378.78,147.52L375.98,147.07L368.72,147.42L367.23,149.63L366.45,153.32L367.01,156L369.82,159.03L370.8,161.61L373.27,161.89L376.59,157.6L379.61,158.2L381.72,156.83L385.82,156.82L383.2,161.44L377.83,165.45L378.63,169.11L382.16,175.88L381.06,179.16L385.12,182.97L385.18,184.84L380.48,185.99L378.4,188.73L375.6,186.65L376.64,182.84L372.06,178.65L373.18,172.38L370.52,171.73L367.74,174.73L368.8,179.83L368.41,186.93L367.26,191.06L367.32,194.14L363.26,195.32L361.08,193.23L363.03,185.42L363.23,182.39L362.01,178.03L359.13,178.51L357.89,172.49L360.03,170.29L361.66,165.97L361.64,161.91L364.83,154.7L365.09,149.07L368.16,143.36L369.83,144.55L372.46,140.88L377.06,142.6L382.76,142.99L385.84,144.3L388.44,143.69L392.28,144.39L395.14,142.96L399.89,137.66L401.57,139.21ZM418.47,144.31L421.33,141.9L423.07,139.09L424.98,142.3L422.28,144.09L424.95,148.12L417.29,147.11L416.33,141.16L417.68,136.55L420.26,137.66L420.31,140.54ZM342.45,116.93L346.15,117.11L348.55,118.23L349.92,122.57L346.8,122.92L349.92,127.03L353.14,132.85L351.84,135.58L353.33,137.66L359.5,143.27L356.47,144.58L354.19,144.11L351.16,145.23L349.67,149.09L349.27,153.45L349.92,156.94L343.07,162.42L342.12,166.93L343.03,168.86L338.65,178.96L329.99,183.44L329.11,178.18L326.11,176.49L324.13,177.88L322.38,175.75L318.64,175.78L316.09,177.44L313.99,176.82L310.82,178.47L310.93,174.77L307.89,173.8L305.69,174.75L302.55,173.47L300.25,173.73L299.03,161.83L297.5,158.81L295.27,157.7L293.3,154.78L293.97,150.68L291.85,148.15L291.57,144.74L292.67,139.26L294.66,135.93L302.35,144.2L305.26,143L310.87,143.13L312.93,142.01L315.58,138.77L323.33,141.29L325.2,139.74L329.54,139.49L331.39,135.49L331.05,133.38L333.47,131.49L332.96,128.77L335.41,127.27L335.95,120.21L338.03,117.02ZM207.1,110.15L213.56,110.1L216.74,112.87L219.16,116.5L219.65,119.01L229.45,126.11L234.49,133.32L236.05,134.39L238.46,133.32L241.43,137.72L243.51,138.28L248.19,144.85L252.23,147.09L255.01,147.18L257.09,150.56L254.68,152.42L254.69,155.09L256.62,157.84L260.93,159.02L262.85,169.53L267.76,169.49L271.99,175.15L270.53,179.1L270.42,189.99L269.71,195.2L266.61,194.2L264.74,195.73L261.85,193.98L261.45,196.97L256.56,190.54L248.12,183.3L245.5,178.99L241.89,175.62L237.14,167.64L237.22,166.01L233.62,157.37L228.86,150.13L225.9,148.18L223.38,139.27L221.78,136.09L215.9,132.54L215.08,128.73L210.75,123.05L207.17,121.17L200.53,113.8L198.43,109.72L198.48,107.53L201.17,107.18L204.66,109.64ZM363.17,224.05L366.25,226.39L368.19,229.22L365.35,231.23L363.45,230.5L360.12,227.16L356.71,226.65L357.61,224.13ZM397,225.12L392.22,230.09L388.24,231.62L386.73,228.68L387.81,225.93L390.2,223.79L393.05,222.61L396.44,220.68ZM341.03,218.11L339.06,220.57L337.16,219.14L337.25,216.74L339.68,214.92ZM382.29,218.1L374.5,220.34L370.34,220.62L362.25,218.77L363.16,216.8L367.93,215.2L373.32,217.83L376.91,216.87L378.79,218.2L381.22,216.47ZM351.98,215.8L356.97,215.96L356.83,219.18L351.29,219.88L343.54,221.9L341.77,221.18L342.39,217.48L344.71,216.19L347.37,216.65L351.26,214.28ZM333.3,214.53L334.87,216.5L331.48,219.55L326.78,214.25ZM488.35,215.46L486.65,216.49L482.65,215.37L485.24,210.52L487.31,208.94L490.53,208.57L491.8,210.95ZM440.09,213.32L438.57,212.27L439.99,209.19L442.91,208.94ZM323.09,206.34L320.52,207.22L315.81,206.61L316.63,204.74L324.08,204.53ZM462.62,201.17L461.19,204.07L459.22,203.72L460.28,199.09ZM280.06,197.78L281.95,199.4L286.15,199.78L288.5,203.88L300.18,205.11L302.49,201.4L305.21,202.94L307.82,202.78L311.38,204.69L314.4,204.94L315.8,209.83L318.76,211.12L324.34,210.46L326.7,212.51L326.02,216.49L327.12,219.33L318.47,215.56L314.54,216.51L306.75,215.7L300.77,214.49L297.09,212.47L292.11,211.02L288.49,210.73L286.48,211.73L282.93,211.17L278.8,209.2L274.44,208.76L273.86,205.94L267.02,203.82L271.36,197.05L276.33,198.49L277.9,196.97ZM464.41,195.43L464.24,199.05L462.03,200.33L461.67,195.48ZM383.14,192.02L381.48,188.1L383.77,186.94ZM412.25,175.01L414.64,177.37L414.58,179.26L410.87,180.74L407.75,179.04L406.6,175.65ZM431.79,173.27L435.97,174.24L439.05,178.77L438.6,181.01L432.28,176.87L429.71,177.85L426.37,176.86L422.66,177.56L420.45,175.75L421.31,173.27L429.61,172.69ZM286.58,174.3L282.55,175.95L283.02,170.93L285.76,171.18ZM399.76,164.23L396,166.56L395.79,164.08ZM470.57,163.34L475.46,163.83L475.37,165.42ZM272.23,163.94L274.27,170.15L276.34,172.01L275.39,174.75L271.74,172.95L270.41,167.94L266.03,166.85L269.14,162.83ZM421.22,163.87L417.22,164.4L417.84,161.32ZM225.83,164.79L223.89,163.9L222.1,160.27L223.92,158.07L226.55,163.62ZM470.04,156.01L473.48,156.59L473.08,159.65Z" class="land" id="ID" title="Indonesia"/>
    <path d="M525.18,47.46L524.35,46.13L525.18,45.37Z" class="land" id="GU" title="Guam"/>
    <path d="M622.34,97.79L621.47,97.89L621.04,96.76L622.11,96.72Z" class="land" id="FM" title="Federated States of Micronesia"/>
    <path d="M742.3,286.56L743.81,288.75L743.45,292.11L737.65,293.47L734.52,292.08L734.57,290.41L737.72,287.26ZM756.02,277.14L753.84,279.32L754.47,281.65L748.05,282.87L747.21,280.76L752.9,277.78Z" class="land" id="FJ" title="Fiji"/>
    <path d="M266.52,232.78L266.28,233.34L265.56,232.94L266.43,232.29Z" class="land" id="CX" title="Christmas Island"/>
    <path d="M205.78,245.98L205.85,246.01L205.96,245.97L206,246.02L205.83,246.1Z" class="land" id="CC" title="Cocos (Keeling) Islands"/>
    <path d="M456.22,470.08L457.78,469.95L462.57,473.01L470.28,471.75L474.38,470.02L475.69,471.32L471.14,479.81L466.53,483.94L464.32,488.46L461.96,486.43L455.54,491.98L450.74,491.48L450.32,483.72L452.35,479.65L452,474.99L452.98,471.59ZM428.09,430.66L426.04,433.29L421.8,432.96L422,430.74L426.91,429.51ZM470.88,258.65L471.49,262.48L468.02,261.97L468.87,259.13ZM432.67,239.68L437.19,238.23L438.77,240.15L434.36,243.98L432.49,242.54ZM516.21,244.2L515.37,246.93L516.94,249.56L517.23,255.84L516.61,258.16L517.23,262.91L518.45,263.8L522.17,262L522.99,264.03L526.65,267.56L525.8,271.73L526.21,276.26L525.47,279L527.61,284.2L528.19,288.62L526.51,293.62L528.02,295.81L528.08,299.93L531.87,302.39L533.75,302.27L536.13,306.12L540.91,309.41L539.85,311.69L542.21,315.96L542.75,326.28L545.8,324.11L548.01,327.21L549.43,327.34L547.98,334.26L549.27,336.82L553.21,340.09L553.74,343.2L555.39,344.81L556.81,349.75L557.09,353.93L555.69,356.6L553.53,363.59L553.6,371.81L552.03,376.63L549.1,380.05L546.81,384.78L543.21,390.05L539.92,396.9L535.5,401.69L533.64,404.78L527.91,408.41L524.32,411.91L520.4,417.26L517.75,419.36L512.95,426.26L507.47,431.4L502.27,439.32L499.52,444.67L494.5,446.8L487.89,447.03L480.98,450.06L475.9,453.53L469.22,455.39L469.22,453.56L463.9,449.99L454.56,454.76L450.15,451.88L445.26,450.47L443.03,451.19L439.26,448.57L436.76,442.46L439.25,437.89L439.24,433.46L437.38,430.27L432.23,429.67L436.23,425.06L436.94,423.02L436.28,418.36L430.65,425.99L425.21,426.75L427.08,424.21L429.48,424.19L432.52,418.29L437.12,413.73L437.77,410.76L435.17,410.7L432.53,414.12L426.16,417.26L418.33,424.4L418.61,416.3L417.84,411.76L415.2,410.48L415.14,407.21L416.58,405.64L413.26,402.77L408.81,400.99L405.19,401.39L402.89,398.95L399.73,397.37L385.06,399L378.44,401.86L373.11,403.41L364.03,403.66L350.32,410.2L345.33,415.75L342.09,416.93L339.62,416.17L335.35,416.96L331.06,415.67L320.77,416.83L317.13,419.92L313.29,420.79L307.07,424.76L303.25,425.64L296.8,424.77L293.96,423.26L293.02,421.16L289.18,419.04L291.88,414.23L294.29,413.35L296.23,410.7L300.06,398.94L298.82,391.98L299.02,387.33L300.55,381.18L299.76,374.18L298.33,370.55L298.95,364.79L297.62,358.6L299.14,351.27L302.28,356.48L303.12,353.05L300.53,341.93L302.66,336.42L304.54,333.95L305.37,327.83L308.32,322.35L310.43,325.5L314.58,320.75L318.91,318.84L323.29,315.22L328.47,312.27L332.99,312.8L338.76,310.09L342.59,309.2L345.33,307.11L348.45,307.45L357.57,304.52L362.48,300.15L365.65,295.21L369.05,291.23L369.43,286.11L375.97,279.24L378.27,287.45L380.78,282.62L379.36,279.67L387.08,276.71L386.22,273.93L389.99,269.26L392.95,267.57L392.79,265.77L396.52,263.22L398.66,264.05L399.7,261.08L402.71,261.44L405.4,258.18L410.03,261.71L412.9,266.06L421.08,267.48L423.22,266.36L421.19,263.25L423.88,260.03L425.2,256.85L428.31,254.73L428.07,252.04L429.91,249.93L433.41,248.65L434.74,246.03L437.28,246.72L443.57,246.42L445.12,245.41L446.37,240.69L448.71,240.28L449.55,242.25L454.23,243.24L456.29,244.62L459.61,244.43L462.63,246.28L466.78,243.83L468.2,247.86L471.76,244.23L474.07,247.29L470.86,250.68L471,252.4L466.2,254.75L466.03,258.7L464.91,261.38L460.97,266.11L461.5,268.01L465.47,271.16L468.67,275L470.14,274.87L474.32,277.64L477.22,281.44L482.04,282.86L482.98,286.22L487.63,289.15L490.91,288.54L493.36,286.9L497.11,280.88L499.24,276.37L502.07,268.45L502.67,258.6L504.48,254.4L505.58,248.39L508.05,243.74L510.48,236.33L512.64,234.46L514.6,239.14L514.3,243.16Z" class="land" id="AU" title="Australia"/>
  </g>
</svg>