<?xml version="1.0" encoding="UTF-8"?>
<svg xmlns="http://www.w3.org/2000/svg" width="965" height="332.28" viewBox="-2.5 91.36 965 332.28">
  <!-- Created using SVG Map Generator: dojo.amcharts.com/svg-map-generator -->
  <style>
    .land { fill: #ffffff; stroke: #000000; stroke-width: 0.5; }
  </style>
  <g id="polygons">
    <path d="M869.48,198.61L865.72,197.01L864.21,197.42L865.31,201.52L866.03,202.74L868.48,204.62L870.77,207.05L868.42,206.54L868.7,208.78L866.82,207.45L865.89,204.93L864.67,203.29L864.33,201.74L861.73,199.05L860.6,196.08L858.13,192.66L856.79,190.11L854.17,188.26L850.43,182.54L852.1,182.15L854.42,182.69L856.44,185.12L857.32,187.02L859.68,189.21L863.62,193.5L868.33,197.96ZM29.69,138.79L25.74,140.55L21.11,141.19L19.71,142.43L16.64,143.56L14.92,144.9L10.32,142.55L11.45,141.04L9.55,140.58L5.89,141L6.19,139.52L0,142.37L0.94,141.56L1.89,140.76L2.84,139.96L3.79,139.17L4.74,138.37L5.7,137.58L6.65,136.78L7.61,135.99L8.58,135.2L9.54,134.41L10.51,133.63L11.48,132.84L12.46,132.06L13.43,131.28L14.41,130.5L15.39,129.72L17.24,130.45L18.85,132.07L21.75,133.89L21.78,135.74L23.86,135.61L27.76,136.29ZM24.46,123.62L23.55,123.41L24.34,122.81L25.23,122.14L25.8,121.72L29.71,121.74L29.1,123.17ZM785.91,115.94L787.73,114.61L789.55,114.46L794.03,115.51L794.86,116.56ZM797.17,111.04L797.13,109.93L803.96,110.58L804.41,111.9L800.73,111.74ZM773.65,110.53L772.51,108.55L774.51,107.71L780.14,109.2L780.84,107.89L791.45,109.5L790.52,111.09L786,111.25L780.44,112.24L777.63,111.83ZM842.61,222.77L841.72,221.91L842.63,220.55L842.21,218.58L840.98,216.22L838.85,213.12L840.8,211.89L844.01,212.68L843.8,210.97L844.22,208.2L842.9,204.33L843.7,202.82L841.84,200.61L840.96,200.42L837.34,201.98L837.17,202.82L832.84,202.85L831.06,200.54L825.35,196.97L822.4,195.97L820.47,196.08L818.4,194.98L817.93,193.76L814.12,190.55L809.54,185.89L806.26,183.6L803.73,183.27L799.47,181.8L796.09,182.02L792.24,183.13L791.38,184.5L793.69,185.55L794.74,187.41L793.8,188.75L793.85,193.15L794.46,194.47L792.82,195.08L791.84,196.28L787.85,195.16L785.94,194.48L783.62,194.7L780.23,193.53L777.93,195.25L777.97,195.91L773.57,196.85L772.48,197.54L767.64,196.93L765.9,196.97L763.76,195.99L762.92,194.79L760.78,194.56L758.72,193.39L754.68,192.81L750.33,194.02L745.75,192.4L743.91,189.64L741.69,189.28L733.51,187.07L732.23,189.66L732.5,190.96L734.53,192.59L734.79,194.24L732.83,195.49L731.95,194.94L728.53,194.47L727.76,194.84L725.01,194.43L723.13,192.51L716.01,192.01L711.12,194.87L711.43,195.54L709.49,196.52L707.68,196.5L707.02,197.55L705.73,197.83L702.97,195.93L701.89,196.33L698.9,195.73L697.71,194.3L695.32,193.48L693.74,191.72L691.77,190.93L689.72,191.89L686.81,191.85L684.4,189.9L682.59,191.72L675.79,185.03L672.61,182.4L668.7,180.4L667.33,179.09L663.24,181.44L660.11,180.86L658.37,179.81L653.21,179.44L652.96,178.07L650.81,175.59L649.47,176.09L645.88,175.29L643.95,176.8L639.23,177.83L637.24,177.99L636.67,178.9L634.73,178.83L628.25,180.38L626.49,180.02L625.99,181.53L626.97,182.72L626.46,184.66L627.33,186.31L625.64,187.23L623.71,185.67L621.69,185.15L621,183.11L622.61,180.4L621.51,179.1L619.41,178.31L616.32,180.25L614.02,178.53L610.66,175.44L615.95,174.72L616.98,172.84L616.2,171.35L613.78,170.15L613.79,168.51L615.28,166.7L616.21,164.4L616.81,161.24L616.17,155.9L613.77,144.95L617.7,142.9L620.95,140.24L623.84,138.76L626.41,136.97L627.38,135.15L625.52,129.78L623.42,128.15L620.8,127.48L619.75,124.2L618.03,122.51L620.65,121.27L620.91,118.24L621.98,117.54L626.34,117.49L629.82,118.17L630.41,120.05L629.59,121.69L632.76,123.94L635.12,129.42L638.45,131.02L638.62,133.29L636.39,136.85L635.18,137.54L632.06,136.57L630.76,137.44L633.99,138.2L638.1,138.52L638.87,137.5L641.62,136.09L642.8,133.61L640.78,131.51L640.7,130.46L644.94,129.74L643.38,128.93L640.71,129.38L637.99,129.04L636.62,127.43L636.86,124.46L632.58,122L633.3,120.77L637.13,120.86L643.8,119.08L646.06,119.12L652.23,121.07L655.75,121.06L652.9,119.56L649.2,118.79L646.58,115.51L653.34,115.21L660.02,114.52L658.52,112.17L659.94,110.84L664.73,109.49L671.86,108.72L673.52,107.85L679.32,108.49L685.83,106.9L686.04,105.44L690.91,103.34L695.8,104.02L694.43,104.91L700.81,105.62L702.74,106.21L709.74,106.2L714.12,107.18L718.48,108.71L719.46,110.36L716.94,112L713.34,113.24L711.14,115.13L711.41,116.7L715.6,115.8L715.13,114.15L720.36,115.08L725.19,115.46L727.87,115.1L735.49,115.44L736.4,116.48L740.27,117.29L748.39,117.37L747.06,115.61L748.95,114.94L752.53,115.65L757.64,115.77L761.22,116.65L765.1,119.32L763.28,120.02L769.51,123.01L774.5,123.69L773.89,120.61L779.17,122.21L782.66,121.43L786.94,122.27L791.56,121.21L788.76,118.77L793.86,118.08L802.58,118.63L806.02,119.36L810.29,119.33L813.42,119.78L818.28,121.77L825.25,123.9L832.49,123.09L837.85,123.26L841.91,124.04L845.25,125.54L846.72,127.19L852.34,128.47L853.41,127.62L864.81,128.09L865.88,127.33L869.3,128.81L872.49,129.42L874.33,130.35L876.75,129.53L871.44,126.17L879.33,127.07L886.08,126.95L888.92,127.63L894.65,128.44L899.09,129.72L914.48,142.37L912.49,143.89L910.32,144.42L915.24,146L917.05,147.47L919.91,148.57L922.4,150.25L922.61,151.48L917.03,150.58L913.39,152.21L912.43,153.15L909.36,154.34L909.58,155.72L907.07,157.84L906.68,159.09L902.88,157.3L900.08,157.37L897.89,158.28L895.68,157.67L893.63,158.99L890.37,159.18L890.06,159.89L891.43,161.71L891.17,164.65L891.86,165.92L896.32,168.41L898.1,170.31L899.71,170.74L901.34,172.33L899.06,172.24L898.38,172.83L899.63,175.4L902.49,177.53L902.09,178.31L899.45,178.28L898.56,179.52L900.42,182.39L898.29,184.2L899.48,186.23L899.85,188L898.33,191.02L896.27,189.2L893.06,185.5L890.94,183.72L882.77,175.43L879.98,170.72L880.62,169.13L880.6,166.88L882.93,164.73L882.88,162.31L884.64,158.8L884.43,157.89L887.28,156.21L886.63,154.76L882.7,150.22L880.8,150.71L882.53,153.26L881.35,153.69L880.08,156.76L871.84,152.82L868.05,153.23L867.09,156.68L866.02,158.04L865.92,159.89L869.7,161.51L867.5,162.48L865.34,162.01L864.9,162.95L861.86,162.2L859.42,160.95L853.79,160.11L853.47,161.07L849.63,161.82L846.31,161.27L837.84,161.48L835.78,162.75L833.99,167.27L832.32,169.78L831.86,172.66L829.75,175.42L828.28,176.86L830.8,178.13L833.3,178L834.71,180.44L837.47,181.83L840.65,181.1L839.29,179.06L842.19,179.21L849.66,183.09L851.06,186L852.41,186.68L852.5,190.07L853.56,192.55L855.92,195.98L857.41,199.87L856.56,202.2L856.14,205.23L856.53,207.11L856.19,209.78L854.97,212.16L854.43,214.67L853.88,215.1L853.38,218.24L850.53,220.82L849.17,221.31L846.3,220.62L843.99,219.44ZM680.09,100.84L681.04,98.88L683.57,98.77L691.68,101.2L688.8,101.87L679.49,102.48ZM669.98,96.71L676.48,97.74L677.71,100.28L673.55,100.3L666.34,99.48L661.9,98.49L664.5,96.9ZM656.74,96.45L657.89,94.6L662.95,93.86L668.72,95.08L668.87,96.52L663.5,96.82L662.3,97.13Z" class="land" id="RU" title="Russia - Asia"/>
    <path d="M626.51,319.08L624.19,320.41L624,322.8L621.24,324.41L618.75,325.12L615.07,326.62L613.02,328.82L610.85,328.83L609.06,330.27L607.11,331.01L603.51,331.49L601.62,333.44L600.27,333.44L598.1,334.19L596.61,333.36L595.76,331.75L595.85,330.36L595.17,328.97L594.85,326.93L593.66,322.81L593.77,320.12L594.87,318.93L594.81,316.41L595.49,315.82L597.12,316.54L601.02,316.16L601.87,316.56L605.95,316.75L606.96,317.94L608.41,317.34L608.76,316.08L610.46,313.42L613.11,311.82L622.32,310.27L625.2,316.63Z" class="land" id="YE" title="Yemen"/>
    <path d="M566.36,263.32L564.77,262.86L564.59,260.75L565.19,259.35L566.34,259.87Z" class="land" id="PS" title="Palestinian Territories"/>
    <path d="M798.47,300.84L796.85,301.68L796.84,302.54L794.75,302.89L794.71,305.42L793.25,306.73L792.71,310.38L793.83,312.12L796.1,314.21L796.17,315.06L798.87,318.14L801.88,320.27L804.91,323.84L806.08,326.32L807.18,329.55L807.34,331.71L807.97,332.92L807.44,334.08L807.75,337.53L806.69,339.06L805.06,340.49L802,342.49L800.55,342.36L800.03,345.33L796.75,347.38L796.25,348.47L794.63,348.47L794.48,345.46L794.93,343.73L792.88,342.44L794.21,341.98L795.79,340.47L798.28,340.19L797.17,339.14L797.03,337.86L798.59,337.69L798.72,336.69L802.06,335.13L801.69,332.64L801.93,331.11L800.75,328.53L801.08,326.36L801.24,324.3L799.51,322.46L800.02,321.35L797.56,319.79L796.68,317.93L793.65,314.99L792.67,313.43L789.93,310.99L787,308.98L787.22,307.72L788.89,307.96L789.85,306.43L788.34,304.07L786.47,302.97L785.31,303.88L783.5,303.15L781.69,300.26L779.4,297.56L780.37,296.2L782.12,297.28L782.83,296.11L786.25,296.34L787.43,295.56L788.61,293.93L790.72,295.52L792.93,295.57L793.3,297.5L794.19,298.98L796.44,300.46Z" class="land" id="VN" title="Vietnam"/>
    <path d="M666.5,222.98L666.42,223.83L664.9,225.49L666.98,226.64L668.95,227.11L669.82,226.08L672.92,228.11L674.35,228.42L670.73,230.78L668.47,230.46L666.55,229.66L667.38,228.59L666.19,227.53L664.37,228.9L663.36,228.38L661.95,232.71L659.37,232.76L658.6,234.18L661.18,236.32L662.46,238.71L661.47,240.75L661.56,241.93L657.69,241.27L657.31,238.79L654.23,237.93L649.3,235.26L644.05,231.88L640.81,227.27L636.41,226.79L635.18,226.13L634.81,224.24L633.76,222.8L632.55,222.78L629.62,221.01L628.72,221.34L627.82,223.19L626.57,223.32L625.57,224.43L626.19,226.64L623.06,226.42L621.26,217.9L620.13,212.81L627.14,210.74L635.32,215.03L639,218.36L642.44,217.86L646.13,218.14L647.33,217.54L651.52,220.22L652.16,223.88L653.62,223.92L655.33,227.09L658.6,226.89L660.15,228.9L661.79,226.25Z" class="land" id="UZ" title="Uzbekistan"/>
    <path d="M838.76,296.65L837.63,297.65L836.67,296.95L835.36,294.67L835.14,292.56L836.71,287.58L838.21,286.67L839.55,287.81L839.37,295.35Z" class="land" id="TW" title="Taiwan"/>
    <path d="M859.56,416.93L859.29,414.8L860.21,413.7L862.28,413.11L864.92,412.99L865.78,413.95L860.74,416.05Z" class="land" id="TL" title="Timor-Leste"/>
    <path d="M657.69,241.27L655.23,240.44L654.85,241.63L652.72,242.08L652.4,245.05L650.68,246.28L648.54,247.01L648.66,248.41L646.35,249.14L643.09,247.75L641.93,243.91L639.58,243.93L638.5,242.71L636.84,241.9L635.63,240.62L633.12,240.18L629.85,239.02L628.97,238.02L626.69,237.89L626.18,238.55L624.2,238.45L622.83,239.19L622.1,240.69L619.7,241.29L619.05,239.1L618.49,235.28L615.94,233.47L616.81,232.59L615.15,231.4L614.11,229.86L615.03,228.27L617.31,228.93L619.63,228.03L619.05,226.9L617.34,225.69L616.18,223.56L613.68,223.99L612.42,224.72L614.34,223.13L616.81,222.65L619.43,224.2L621.83,226.64L623.06,226.42L626.19,226.64L625.57,224.43L626.57,223.32L627.82,223.19L628.72,221.34L629.62,221.01L632.55,222.78L633.76,222.8L634.81,224.24L635.18,226.13L636.41,226.79L640.81,227.27L644.05,231.88L649.3,235.26L654.23,237.93L657.31,238.79Z" class="land" id="TM" title="Turkmenistan"/>
    <path d="M668.47,230.46L667.13,231.17L665.55,230.59L664.35,230.99L663.75,232.24L665.02,232.94L670.39,232.85L672.53,233.77L677.18,233.41L678.48,236.56L681.4,236.92L683.01,241.71L680.94,241.02L679.57,241.71L678.55,240.81L676.96,241.57L674.16,243.72L672.68,242.1L672.48,239.34L671.11,237.68L669.85,237.12L668.31,239.25L668.54,240.39L666.83,240.35L666.15,242.17L665.06,241.36L662.67,242.76L661.56,241.93L661.47,240.75L662.46,238.71L661.18,236.32L658.6,234.18L659.37,232.76L661.95,232.71L663.36,228.38L664.37,228.9L666.19,227.53L667.38,228.59L666.55,229.66Z" class="land" id="TJ" title="Tajikistan"/>
    <path d="M774.43,305.31L775.9,306.17L775.65,307.42L776.52,308.38L778.15,308.08L778.93,310.34L778.51,312.48L779.2,315.96L781.96,313.22L784.1,314.41L785.15,313.49L786.25,312.44L787.78,312.81L791.11,316.63L791.26,319.08L792.46,320.91L794.53,322.64L794.35,323.91L794.62,327.02L793.77,327.71L792.44,327.4L787.43,327.76L784.96,330.73L785.89,333.99L786.8,334.9L787.64,337.6L786.98,336.45L783.39,333.92L780.62,333.82L780.66,331.13L779.64,330.8L777.66,331.43L778.02,335.86L777.11,338.51L776.85,340.65L776,342.79L776.16,344.98L777.06,346.93L778.09,346.55L779.03,348.96L780.16,350.46L781.4,354.55L782.86,355.73L784.4,355.71L786.47,358.04L785.81,359.6L783.83,359.73L783.09,358.04L780.75,356.89L780.04,357.29L778.59,355.67L776.29,351.89L774.66,350.18L773.54,349.88L773.75,346.64L774.55,343.27L774.58,341.51L775.83,339.85L776.96,337.32L776.01,334.45L775.34,333.73L774.69,330.07L771.37,325.95L771.02,324.5L772.13,323.75L772.1,320.37L770.97,317.85L768.54,315.21L767.13,312.15L767.91,311.68L767.63,308.53L768.84,307.66L770.94,307.35L773.63,304.91Z" class="land" id="TH" title="Thailand"/>
    <path d="M585,242.17L583.54,244.08L582.45,244.39L582.15,246.05L582.68,247.68L582.6,250.95L581.26,252.59L575.83,256.2L570.25,260.17L568.86,259.9L566.93,258.6L566.92,255.97L567.06,255.09L568.8,253.01L568.18,251.53L566.78,251.47L566.44,249.24L565.76,247.94L566.75,246.96L567.94,243.32L570.36,243.91L572.53,242.94L574.36,243.72L576.15,243.77L580.02,242.21Z" class="land" id="SY" title="Syria"/>
    <path d="M793.07,376.39L792.59,376.64L792.04,376.42L792.58,375.96Z" class="land" id="SG" title="Singapore"/>
    <path d="M601.52,272.29L604.36,272.69L605.3,274.41L607.69,274.37L609.53,277.81L611.27,279.5L613.23,280.82L614.15,282.78L613.66,283.53L615.72,287.38L616.61,288.5L618.14,289.18L619.2,290.39L619.36,291.17L622.82,295.48L630.97,296.65L631.2,296.34L632.9,298.98L631.52,306.52L622.32,310.27L613.11,311.82L610.46,313.42L608.76,316.08L608.41,317.34L606.96,317.94L605.95,316.75L601.87,316.56L601.02,316.16L597.12,316.54L595.49,315.82L594.81,316.41L594.87,318.93L593.77,320.12L591.93,316.13L590.1,314.44L588.26,311.46L586.51,307.42L582.69,304.56L580.84,301.58L580.36,299.43L580.57,297.51L579.94,295.67L578.21,292.55L576.37,290.77L575.15,290.37L573.87,288.38L573.63,286.61L571.42,283.55L570.43,281.71L566.66,276.29L564.87,275.86L565.53,271.32L568.89,271.94L570.95,269.39L573.11,268.91L574.51,267.01L570.99,263.27L577.07,261.33L577.47,260.89L581.31,261.59L586.91,264.82L589.57,267.02L595.86,271.92Z" class="land" id="SA" title="Saudi Arabia"/>
    <path d="M618.14,289.18L616.61,288.5L616.22,286.03L616.76,284.01L618.48,284.31L618.97,287.15Z" class="land" id="QA" title="Qatar"/>
    <path d="M841.72,221.91L842.61,222.77L841.94,222.78L840.93,224.97L842.29,228.15L839.51,231.21L837.74,232.16L838.17,234.31L839.54,234.77L842.05,236.49L841.55,237.67L838.94,237.69L838.15,239.65L835.93,239.3L834.67,239.84L833.42,238.69L831.77,238.34L832.24,236.74L832.1,234.01L831.57,233.12L828.75,232.13L827.82,231.33L828.64,229.63L831.17,227.97L832.37,224.71L833.62,225.64L836.63,226.17L835.38,223.95L837.89,223.76L838.36,222.36L839.45,222.13L839.02,220.19Z" class="land" id="KP" title="North Korea"/>
    <path d="M960,406.36L959.18,407.02L958.01,406.49L957.68,404.95L956.42,403.68L957.23,402.07ZM947.57,397.43L949.14,397.59L949.04,399.05L947.73,400.07L948.07,401.39L945.99,402.12L944.98,403.5L942.29,404.83L939.79,404.88L935.9,402.92L935.77,402.09L942.07,402.06L944.21,401.64L945.53,399.91L946.65,399.62L946.38,397.61ZM910.89,415.46L911.79,405.09L912.3,396.41L912.49,391.12L913.18,391.19L916.44,392.89L920.58,394.19L922.16,395.51L923.64,395.67L925.52,397.62L926.31,397.76L927.62,399.4L927.75,401.82L929.49,402.36L931.45,403.49L932.54,403.61L933.82,404.97L933.86,406.27L931.5,406.49L930.92,407.27L931.52,408.95L933.08,410.81L934.29,411.66L934.51,413.35L935.4,415.21L937.53,415.28L937.25,416.54L939.14,418.8L941.58,419.72L940.81,421.14L939.34,420.92L938.6,420.08L932.35,419.02L929.34,415.11L927.56,411.56L924.24,410.53L922.82,409.65L919.72,412.02L918.01,412.44L918.64,414.87L916.19,416.24L914.91,415.65L911.36,415.84ZM950.86,399.15L949.99,398.18L949.83,396.3L951.16,396.71L951.48,397.64Z" class="land" id="PG" title="Papua New Guinea"/>
    <path d="M862.65,346.52L863.82,348.31L864.52,352.09L865.15,354.28L863.67,356.2L862.69,353.96L861.47,355.97L862.53,359.03L861.91,360.2L859.19,358.95L857.3,357.43L856.85,355.23L857.46,353.72L856.62,352.72L855.04,352.18L854.83,353.68L850.66,352.17L851.26,351.36L853.07,350.88L854.58,348.84L857.27,350.45L857.89,349.2L858.8,349.36L859.11,347.83L861.19,347.2L860.93,344.89ZM857.94,344.78L855.88,345.39L856.46,343.48ZM853.49,347.49L851.52,345.92L851.05,344.13L852.24,343.66L851.96,342.1L852.34,340.67L854.26,341.06L853.31,344.49L853.96,346.39ZM834.95,349.82L834.99,348.8L837.25,346.43L839.82,342.66L840.4,340.82L841.87,341.92L840.47,343.76L839.2,344.3L838.31,346.77ZM857.26,338.96L858.39,338.85L858.9,341.04L859.88,343L858.4,343.36L858.18,341.06L857.02,340.53ZM850.48,337.94L852.63,338.24L851.68,340.9L849.92,341.65L849.07,340.72L849.2,337.83ZM858.87,334.52L859.97,335.78L859.83,336.68L860.74,339.75L859.46,339.7L858.07,337.34L856.49,335.93L855.81,334.37ZM843.87,330.96L845.49,331.13L846.66,332.26L846.95,334.11L846.17,335.68L845.03,334.58L843.35,331.78ZM842.12,311.7L844.7,312.9L846.07,312.5L846.03,314.92L847.61,317.29L846.97,320.82L845.4,321.76L845.1,324.04L846.39,326.24L847.06,328.58L849.16,327.8L850.37,328.07L851.83,329.95L855.11,332.62L855.06,334.37L852.44,332.59L851.77,331.1L849.71,329.35L849.32,330.91L847.08,329.24L845.39,330.36L843.23,328.3L843.82,326.32L841.17,325.82L839.53,320.29L840.75,321.33L841,317.93L840.4,315.37L840.59,312.1Z" class="land" id="PH" title="Philippines"/>
    <path d="M693.36,248.22L691.42,249.67L690.36,251.07L687.86,251.95L683.36,250.96L682.42,251.38L683.92,255.69L683.65,256.69L686.25,259.41L688.5,260.31L686.4,262.44L687.28,264.99L685.45,267.25L685.42,268.54L684.21,269.13L683.34,272.54L681.78,273.59L680.82,276.56L677.44,277.44L676.22,276.32L674.13,279.52L674.04,280.92L676.38,282.17L676.36,283.67L677.15,285.05L678.52,286.12L680.17,288.88L680.31,289.96L678.74,289.89L676.26,290.82L673.11,290.47L673.25,291.6L671.55,292L670.01,292.18L668.7,290.81L667.97,288.62L666.45,288.23L666.24,286.86L665.21,285.54L662.98,286.37L660.18,286.55L659.87,287.01L656.83,286.25L656.2,286.91L653.3,286.75L652.55,287.2L650.24,286.95L650.61,283.03L652.23,281.83L654.45,281.44L654.13,279.23L652.87,279.24L652.39,276.41L650.96,274.85L648.49,273.44L647.22,271.25L645.47,269.42L650.78,271.11L654.11,270.78L655.82,271.18L657.02,270.53L658.81,270.55L661.98,269.51L661.98,265.45L663.35,263.97L664.52,264.3L665.22,263.22L666.97,262.09L669.11,262.74L670.16,261.6L669.69,259.73L670.07,257.52L672.2,256.21L670.53,254.22L674.03,253.65L673.39,251.84L674.87,249.39L673.75,246.95L672.84,246.17L673.83,244.69L676.52,243.21L679.93,242.99L682.15,242.49L684.67,242.9L686.4,243.89L687.28,246.26L688.39,247.04L692.31,248.29Z" class="land" id="PK" title="Pakistan"/>
    <path d="M634.04,287.78L635.06,289.7L637.11,291.76L641.5,292.81L645.94,298.16L644.88,300.87L643.52,302.32L642.46,304.97L640.57,305.58L640.33,307.98L640.84,310.19L638.86,310.62L637.31,311.8L637.11,313.39L636.28,314.19L633.8,314.6L632.71,317.61L629.55,317.74L628.16,318.66L626.51,319.08L625.2,316.63L622.32,310.27L631.52,306.52L632.9,298.98L631.2,296.34L631.11,295.1L632.39,290.55L633.13,288.69Z" class="land" id="OM" title="Oman"/>
    <path d="M731.41,276.9L731.58,279.68L732.43,281.22L732.31,282.33L729.97,282.59L728.98,281.85L726.94,281.78L723.47,281.16L721.36,280.03L720.94,279.06L719.18,278.33L716.77,278.78L711.94,276.92L707.44,273.97L705.71,273.29L706.07,269.9L707.62,268.27L708.75,267.62L710.69,267.66L711.21,268.45L714.69,270.35L716.34,271.96L717.92,271.82L718.55,272.98L721.78,275.23L723.54,275.37L726.07,276.69L726.41,276.1L728.42,277.03Z" class="land" id="NP" title="Nepal"/>
    <path d="M786.47,358.04L789.44,360.72L790.95,363.24L791.18,364.95L790.92,367.28L791.26,370.41L792.49,371.73L794.1,375.84L792.18,375.95L789.04,374.44L784.34,370.59L784.32,369.21L782.35,366.55L781.94,363.98L780.95,360.49L780.85,359L780.04,357.29L780.75,356.89L783.09,358.04L783.83,359.73L785.81,359.6ZM836.75,365.78L835.19,365.16L831.3,365.12L830.3,366.65L830.04,370.03L828.87,370.75L829.2,371.94L827.96,372.96L828.12,373.97L827.23,375.89L825.15,376.01L824.26,376.75L820.54,375.54L818.28,377.63L815.6,377.57L814.2,378.15L811.42,375.33L811.32,373.79L812.48,374.95L815.58,375.7L816.26,374.87L816.5,372.27L818.03,370.7L822.24,369.39L824.95,365.51L825.35,364.21L827.19,366.33L827.89,364.95L827.53,363.74L828.41,363.06L828.77,363.06L829.97,362.5L829.58,361.14L830.78,360.68L831.76,358.46L832.82,356.99L835.36,356.41L836.42,357.03L836.57,359.17L837.79,358.75L839.79,360.47L841.86,361.14L841.62,362.31L838.61,363.32L839.7,365.07Z" class="land" id="MY" title="Malaysia"/>
    <path d="M787.85,195.16L788.22,201.98L789.68,202.93L791.81,202.26L793.91,203.05L794.48,201.83L796.57,201.84L801.63,204.89L802.64,206.88L798.4,206.48L796.24,207.78L794.14,208.04L794.09,209.86L793.06,211.1L789.84,211.44L788.19,213.73L782.74,212.55L782.45,215.12L785.07,217.55L782.95,218.92L782.06,221.03L779.73,222.21L776,222.24L772.11,222.83L768.27,224.87L766,224.36L763.86,224.82L761.61,223.88L758.06,223.1L756.95,222.17L751.55,221.38L750.18,221.79L743.22,220.97L740.9,221.22L738.85,219.42L735.72,215.45L733.75,215.19L729.91,213.16L727.19,212.66L723.63,212.51L721.41,212.07L720.34,210.85L720.62,208.98L718.94,205.6L716.31,202.97L713.68,201.77L712.21,201.77L708.37,199.76L707.02,197.55L707.68,196.5L709.49,196.52L711.43,195.54L711.12,194.87L716.01,192.01L723.13,192.51L725.01,194.43L727.76,194.84L728.53,194.47L731.95,194.94L732.83,195.49L734.79,194.24L734.53,192.59L732.5,190.96L732.23,189.66L733.51,187.07L741.69,189.28L743.91,189.64L745.75,192.4L750.33,194.02L754.68,192.81L758.72,193.39L760.78,194.56L762.92,194.79L763.76,195.99L765.9,196.97L767.64,196.93L772.48,197.54L773.57,196.85L777.97,195.91L777.93,195.25L780.23,193.53L783.62,194.7L785.94,194.48Z" class="land" id="MN" title="Mongolia"/>
    <path d="M776.84,300.61L775.8,301.57L774.57,303.76L774.43,305.31L773.63,304.91L770.94,307.35L768.84,307.66L767.63,308.53L767.91,311.68L767.13,312.15L768.54,315.21L770.97,317.85L772.1,320.37L772.13,323.75L771.02,324.5L771.37,325.95L774.69,330.07L775.34,333.73L776.01,334.45L776.96,337.32L775.83,339.85L774.58,341.51L774.55,343.27L773.64,341.45L774.22,340.29L774.23,338.03L773.12,332.15L771.83,330.01L769.97,325.79L768.57,319.5L767.8,319.55L766.9,317.53L765.38,319.4L762.83,320.88L761.84,322.55L760.37,322.19L759.02,320.43L757.9,321.04L758.4,315.62L757.57,313.25L756.06,310.66L754.83,310.16L755.53,308.6L753.16,306.28L752.01,306.22L750.88,304.39L749.45,303.53L748.69,301.64L749.9,300.99L749.52,299.07L750.73,298.97L751.13,297.63L750.64,296.29L751.27,294.73L750.48,291.38L753.16,291.93L754.14,287.52L753.61,286.16L754.72,283.79L754.28,281.7L756.69,279.36L758.48,278.9L760.06,276.65L759.78,275.6L760.2,274.5L762.26,275.88L763.39,278.11L764.46,278.03L765.54,281.75L765.84,284.25L763.58,287.58L763.41,289.62L764.33,291.85L765.83,291.05L767.56,291.03L768.54,294.51L770.11,294.87L770.52,297.12L770.32,298.51L772.67,298.88L773.99,301.01L775.82,300.28Z" class="land" id="MM" title="Myanmar"/>
    <path d="M694.52,365.81L694.4,365.78L694.49,365.54L694.57,365.51Z" class="land" id="MV" title="Maldives"/>
    <path d="M815.35,298.25L815.36,298.08L815.54,298.14Z" class="land" id="MO" title="Macau"/>
    <path d="M714.46,344.68L715.34,344.75L716.91,346.36L719.24,349.85L719.51,351.02L721.08,354.13L721.1,355.57L720.46,357.36L717.58,359.02L715.53,358.37L714.66,355.84L714.31,353.02L714.5,348.1L715.01,346.5Z" class="land" id="LK" title="Sri Lanka"/>
    <path d="M566.92,255.97L565.66,257.31L564.73,257.28L566.78,251.47L568.18,251.53L568.8,253.01L567.06,255.09Z" class="land" id="LB" title="Lebanon"/>
    <path d="M779.4,297.56L781.69,300.26L783.5,303.15L785.31,303.88L786.47,302.97L788.34,304.07L789.85,306.43L788.89,307.96L787.22,307.72L787,308.98L789.93,310.99L792.67,313.43L793.65,314.99L796.68,317.93L797.56,319.79L800.02,321.35L799.51,322.46L801.24,324.3L801.08,326.36L799.02,327.83L797.88,326.84L796.32,327.72L796.27,329.29L793.77,327.71L794.62,327.02L794.35,323.91L794.53,322.64L792.46,320.91L791.26,319.08L791.11,316.63L787.78,312.81L786.25,312.44L785.15,313.49L784.1,314.41L781.96,313.22L779.2,315.96L778.51,312.48L778.93,310.34L778.15,308.08L776.52,308.38L775.65,307.42L775.9,306.17L774.43,305.31L774.57,303.76L775.8,301.57L776.84,300.61L777.33,301.9L778.9,302.18L778.61,299.82L777.58,298.03Z" class="land" id="LA" title="Lao People's Democratic Republic"/>
    <path d="M607.69,274.37L605.3,274.41L604.36,272.69L601.52,272.29L602.95,269.03L604.62,268.53L605.61,268.95L605.75,270.33Z" class="land" id="KW" title="Kuwait"/>
    <path d="M842.05,236.49L843.5,238.17L847.07,241.54L848.32,243.54L849.15,246.13L849.79,246.52L849.87,249.4L847.85,249.7L847.98,250.57L845.64,250.25L844.05,251.56L842.54,251.98L841.03,249.5L841.43,247.19L839.88,244.53L838.29,243.06L839.4,241.85L838.15,239.65L838.94,237.69L841.55,237.67Z" class="land" id="KR" title="South Korea"/>
    <path d="M792.88,342.44L792.31,341.96L789.95,341.72L790.46,340.65L789.76,339.69L788.62,340.57L788.35,338.52L787.64,337.6L786.8,334.9L785.89,333.99L784.96,330.73L787.43,327.76L792.44,327.4L793.77,327.71L796.27,329.29L796.32,327.72L797.88,326.84L799.02,327.83L801.08,326.36L800.75,328.53L801.93,331.11L801.69,332.64L802.06,335.13L798.72,336.69L798.59,337.69L797.03,337.86L797.17,339.14L798.28,340.19L795.79,340.47L794.21,341.98Z" class="land" id="KH" title="Cambodia"/>
    <path d="M693.89,223.19L694.08,223.78L691.63,224.71L689.32,226.24L688.93,227.34L685.17,227.69L684.69,229.67L683.03,230.22L681.87,229.09L677.69,231.19L677.88,232.82L677.18,233.41L672.53,233.77L670.39,232.85L665.02,232.94L663.75,232.24L664.35,230.99L665.55,230.59L667.13,231.17L668.47,230.46L670.73,230.78L674.35,228.42L672.92,228.11L669.82,226.08L668.95,227.11L666.98,226.64L664.9,225.49L666.42,223.83L666.5,222.98L666.93,221.17L668.49,220.85L671.81,221.82L673.45,221.69L673.42,220.18L675.09,219.3L677.91,220.54L683.41,220.29L690.18,221.08L691.47,222.2Z" class="land" id="KG" title="Kyrgyzstan"/>
    <path d="M705.73,197.83L704.22,198.11L704.32,199.86L702.24,200.38L702.25,202.09L703.52,204.51L701.58,206.06L696.53,204.76L696.19,205.32L696.16,210.87L697.09,212.33L694.31,211.64L690.19,212.77L691.66,213.73L692.14,216.12L694.49,219.59L693.23,221.43L693.89,223.19L691.47,222.2L690.18,221.08L683.41,220.29L677.91,220.54L675.09,219.3L673.42,220.18L673.45,221.69L671.81,221.82L668.49,220.85L666.93,221.17L666.5,222.98L661.79,226.25L660.15,228.9L658.6,226.89L655.33,227.09L653.62,223.92L652.16,223.88L651.52,220.22L647.33,217.54L646.13,218.14L642.44,217.86L639,218.36L635.32,215.03L627.14,210.74L620.13,212.81L621.26,217.9L623.06,226.42L621.83,226.64L619.43,224.2L616.81,222.65L614.34,223.13L612.42,224.72L612,221.08L609.68,220.52L607.66,218.4L605.76,215.77L605.52,214.16L606.58,211.47L609.78,211.32L610.9,208.4L610.61,206.65L609.64,205.61L607.64,206.03L604.51,205.04L599.35,207.83L598.38,206.27L595.19,202.71L592.13,201.97L590.54,200.28L591.02,197.78L590.21,196.81L590.98,193.53L591.97,193.15L594.47,195.14L595.48,194.47L594.9,192.35L596.43,190.61L598.36,189.87L599.51,188.29L602.01,189.17L603.86,188.46L604.71,189.18L606.86,189.17L610.56,191.7L611.22,190.92L614.61,192.34L616.16,190.84L618.96,191.31L621.37,190.68L623.22,192.01L625.95,192.42L630.11,191.41L629.42,189.32L626.68,188.57L625.64,187.23L627.33,186.31L626.46,184.66L626.97,182.72L625.99,181.53L626.49,180.02L628.25,180.38L634.73,178.83L636.67,178.9L637.24,177.99L639.23,177.83L643.95,176.8L645.88,175.29L649.47,176.09L650.81,175.59L652.96,178.07L653.21,179.44L658.37,179.81L660.11,180.86L663.24,181.44L667.33,179.09L668.7,180.4L672.61,182.4L675.79,185.03L682.59,191.72L684.4,189.9L686.81,191.85L689.72,191.89L691.77,190.93L693.74,191.72L695.32,193.48L697.71,194.3L698.9,195.73L701.89,196.33L702.97,195.93Z" class="land" id="KZ" title="Kazakhstan"/>
    <path d="M858.11,255.33L859.28,255.14L860.8,256.64L861.62,258.19L861.21,259.13L861.59,263.6L859.57,264.45L857.17,261.02L857.83,259.03L853.74,256.71L857.05,254.32ZM866.88,252.87L868.68,254.51L867.8,256.67L865.75,255.68L864.9,256.25L864.69,258.19L863.1,257.91L861.87,255.67L862.47,253.87L864.87,253.77L865.87,252.49ZM875.51,226.23L877.65,229.07L880.61,231.93L881.72,234.67L881.24,235.18L881.68,237.32L880.72,237.56L880.86,239.02L882.6,242.57L882.4,244.44L883.12,246.1L884.43,247.36L883.51,248.16L883.64,249.5L882.39,250.24L881.22,248.54L880.21,249.04L880.3,251.21L878.47,249.76L878.04,251.6L873.75,250.81L874.39,252.62L873.01,253.17L872.66,255.49L871.25,255.52L869.1,252.76L869.65,251.96L867.29,250.96L863.11,252.7L860.46,252.99L859.2,253.64L856.8,253.93L856.46,252.36L857.5,252.29L860.64,248.16L864.52,248.06L867.11,247.28L869.02,248.19L870.14,243.54L872.04,243.43L872.26,242.76L874.25,241.76L874.9,239.41L875.94,238.29L875.6,233.55L873.09,229.12L873.69,228.19L876.11,228.06ZM877.63,216.05L880.85,216.7L882.1,217.35L884.05,219.53L882.42,220.38L880.61,220.62L880.04,221.68L880.22,223.9L874.99,221.75L872.9,222.63L870.94,222.66L872.97,224.58L872.73,225.69L869.38,222.46L869.07,221.49L870.57,219.39L872.11,219.45L871.46,216.41L870.41,213.84L868.9,212.21L869.17,210.91L872.88,213.46Z" class="land" id="JP" title="Japan"/>
    <path d="M577.47,260.89L577.07,261.33L570.99,263.27L574.51,267.01L573.11,268.91L570.95,269.39L568.89,271.94L565.53,271.32L565.54,270.56L566.36,263.32L566.34,259.87L566.93,258.6L568.86,259.9L570.25,260.17L575.83,256.2Z" class="land" id="JO" title="Jordan"/>
    <path d="M566.93,258.6L566.34,259.87L565.19,259.35L564.59,260.75L564.77,262.86L566.36,263.32L565.54,270.56L562.74,264.34L563.33,262.92L563.84,261.75L564.73,257.28L565.66,257.31L566.92,255.97Z" class="land" id="IL" title="Israel"/>
    <path d="M592.24,242.04L594.64,246.27L595.83,246.94L597.45,249.6L596.23,250.84L595.79,253.95L598.44,256.74L598.48,257.76L602.59,259.77L604.31,262.13L604.22,265.12L605.25,265.16L605.51,267.14L607.38,269.03L605.61,268.95L604.62,268.53L602.95,269.03L601.52,272.29L595.86,271.92L589.57,267.02L586.91,264.82L581.31,261.59L577.47,260.89L575.83,256.2L581.26,252.59L582.6,250.95L582.68,247.68L582.15,246.05L582.45,244.39L583.54,244.08L585,242.17L586.12,241.18L588.42,241.66L590.33,241.51L590.87,242.66Z" class="land" id="IQ" title="Iraq"/>
    <path d="M619.7,241.29L622.1,240.69L622.83,239.19L624.2,238.45L626.18,238.55L626.69,237.89L628.97,238.02L629.85,239.02L633.12,240.18L635.63,240.62L636.84,241.9L638.5,242.71L639.58,243.93L641.93,243.91L643.09,247.75L643.06,250.62L641.76,253.48L642.14,255.2L643.47,255.7L642.61,257.08L644,260.42L644.54,263.31L647.09,263.68L647.8,265.75L646.12,268.4L645.47,269.42L647.22,271.25L648.49,273.44L650.96,274.85L652.39,276.41L652.87,279.24L654.13,279.23L654.45,281.44L652.23,281.83L650.61,283.03L650.24,286.95L649.74,287.32L643.43,285.9L639.45,285.48L636.64,284.73L635.02,280.54L632.93,279.43L630.83,280.26L628.67,281.85L624.88,281.21L621.45,278.96L620.64,277.86L618.02,277L616.69,275.92L615.74,273.68L614.35,272.1L614.14,271.07L611.7,268.1L610.47,268.78L608.46,268.43L607.38,269.03L605.51,267.14L605.25,265.16L604.22,265.12L604.31,262.13L602.59,259.77L598.48,257.76L598.44,256.74L595.79,253.95L596.23,250.84L597.45,249.6L595.83,246.94L594.64,246.27L592.24,242.04L591.3,239.78L590.16,239.17L590.57,237.49L588.78,233.67L590.24,232.21L593.35,235.06L596.63,235.44L599.82,232.66L600.46,232.53L601.63,235.16L601.08,235.76L603.03,237.29L603.76,237.19L604.95,240.07L608.26,241.05L609.71,242.52L611.65,243.54L614.96,243.99L620.27,242.75Z" class="land" id="IR" title="Iran"/>
    <path d="M690.83,408.95L690.75,408.91L690.78,408.69L690.67,408.4L690.85,408.51Z" class="land" id="IO" title="British Indian Ocean Territory"/>
    <path d="M699.21,261.78L700.06,263.99L701.73,264.73L701.85,264.82L703.68,265.52L703.71,265.54L704.78,266.75L707.62,268.27L706.07,269.9L705.71,273.29L707.44,273.97L711.94,276.92L716.77,278.78L719.18,278.33L720.94,279.06L721.36,280.03L723.47,281.16L726.94,281.78L728.98,281.85L729.97,282.59L732.31,282.33L732.43,281.22L731.58,279.68L731.41,276.9L732.83,276.07L733.71,276.91L734.27,278.99L734.43,280.32L737.45,281.3L739.12,280.59L740.44,281.04L744.31,280.73L744.23,279.09L742.46,277.32L743.56,277.43L745.52,276.61L746.67,274.19L748.66,273.39L750.45,271.47L753.15,272.45L754.71,270.97L756.3,272.46L757.95,275.03L759.78,275.6L760.06,276.65L758.48,278.9L756.69,279.36L754.28,281.7L754.72,283.79L753.61,286.16L754.14,287.52L753.16,291.93L750.48,291.38L751.27,294.73L750.64,296.29L751.13,297.63L750.73,298.97L749.52,299.07L748.81,296.41L747.38,292.66L746.53,293.33L745.87,295.3L744.83,294.84L743.98,292.74L744.33,291.12L745.87,290.73L746.55,288.1L745.72,287.07L740.68,287.11L738.62,286.56L738.19,284.17L733.56,282.55L732.79,284.36L734.17,285.54L734.45,287L733.95,289.64L735.97,290.6L735.81,292.69L736.51,293.59L738.33,298.64L738.59,300.29L736.09,300.41L735,299.64L732.51,300.86L731.9,301.86L732.57,303.87L732.07,305.33L730.78,306.8L728.67,307.65L726.4,309.79L724.69,312.91L723.36,313.75L722.12,315.48L719.67,317.4L719.57,319.41L718.08,320.27L716.44,320.52L715.81,322.42L714.7,321.9L713.64,322.6L713.11,324.98L713.6,328.21L714.62,331.4L714.47,333.91L713.49,336.54L713.88,342.78L712.44,342.84L711.32,345.17L711.36,346.72L709.6,347.33L708.91,348.13L708.58,350.03L706.9,351.17L705.06,349.94L703.63,348.09L702.78,346.03L702.74,344.27L700.39,338.89L698.52,336.28L696.86,332.46L696.36,330.25L695.18,327.15L693.6,324.98L693.43,323.77L691.75,321.31L691.16,319.79L690.14,315.43L688.81,311.45L687.67,307.14L688.02,304.39L687.55,302.31L686.41,300.13L686.28,297.94L685.47,297.97L684.75,299.65L685.58,300.75L685,302.16L682.06,303.73L681.09,303.72L679.06,302.39L675.01,298.25L678.52,296.83L678.56,295.34L676.81,296.13L675.42,295.8L673.38,294.51L671.55,292L673.25,291.6L673.11,290.47L676.26,290.82L678.74,289.89L680.31,289.96L680.17,288.88L678.52,286.12L677.15,285.05L676.36,283.67L676.38,282.17L674.04,280.92L674.13,279.52L676.22,276.32L677.44,277.44L680.82,276.56L681.78,273.59L683.34,272.54L684.21,269.13L685.42,268.54L685.45,267.25L687.28,264.99L686.4,262.44L688.5,260.31L686.25,259.41L683.65,256.69L683.92,255.69L682.42,251.38L683.36,250.96L687.86,251.95L690.36,251.07L691.42,249.67L693.36,248.22L693.41,248.26L695.57,251.38L697.83,252.51L697.49,253.51L698.14,255.72L699.32,256.75L699.44,256.95L700.19,259.24L700.25,259.47L697.69,259.4Z" class="land" id="IN" title="India"/>
    <path d="M843.35,416.42L844.83,417.54L845.75,418.9L844.39,419.86L841.89,417.91L840.25,417.66L840.68,416.45ZM859.56,416.93L857.27,419.31L855.36,420.04L854.64,418.63L855.16,417.32L856.31,416.29L857.67,415.73L859.29,414.8ZM832.74,413.57L831.8,414.75L830.93,412.91L832.09,412.04ZM852.51,413.56L848.78,414.64L846.78,414.77L842.91,413.88L843.34,412.94L845.63,412.17L848.22,413.44L849.93,412.98L850.84,413.61ZM837.99,412.46L840.38,412.54L840.31,414.08L837.66,414.42L833.94,415.38L833.1,415.04L833.39,413.26L834.5,412.65L835.78,412.87L837.64,411.73ZM829.03,411.85L829.79,412.8L828.16,414.26L825.91,411.72ZM903.34,412.3L902.53,412.79L900.61,412.25L901.85,409.93L902.84,409.17L904.39,408.99L905,410.14ZM880.21,411.27L880.17,409.29L881.56,409.18ZM824.14,407.93L822.91,408.35L820.65,408.06L821.04,407.16L824.62,407.06ZM891.01,405.45L890.33,406.84L889.38,406.67L889.89,404.45ZM803.52,403.82L804.42,404.6L806.44,404.79L807.56,406.75L813.16,407.34L814.27,405.56L815.57,406.3L816.82,406.22L818.53,407.14L819.98,407.26L820.65,409.6L822.07,410.22L824.74,409.9L825.87,410.88L825.7,413.37L824.75,413.62L821.93,412.35L820.04,412.8L816.31,412.41L813.45,411.83L811.68,410.86L807.56,410.03L806.6,410.51L804.89,410.24L802.92,409.3L800.82,409.09L800.55,407.73L797.27,406.72L799.35,403.47L801.73,404.16ZM891.87,402.7L891.79,404.43L890.73,405.05L890.56,402.72ZM852.92,401.06L852.12,399.19L853.22,398.63ZM866.87,392.91L868.01,394.04L867.99,394.95L866.21,395.66L864.72,394.84L864.16,393.22ZM876.24,392.08L878.24,392.54L879.72,394.71L879.5,395.79L876.47,393.8L875.24,394.28L873.64,393.8L871.86,394.14L870.8,393.27L871.21,392.08L875.19,391.8ZM806.65,392.57L804.71,393.36L804.94,390.96L806.25,391.07ZM860.88,387.74L859.08,388.86L858.98,387.68ZM799.76,387.61L800.75,390.58L801.74,391.48L801.28,392.79L799.53,391.93L798.89,389.52L796.79,389L798.29,387.08ZM871.17,387.57L869.26,387.83L869.55,386.35ZM777.53,388.01L776.6,387.59L775.74,385.85L776.61,384.79L777.87,387.45ZM912.49,391.12L912.3,396.41L911.79,405.09L910.89,415.46L907.91,411.65L904.42,411.82L905.35,409.73L904.36,408.47L904.85,407L903.62,405.08L902.61,401.8L899.6,399.77L896.09,398.3L893.57,398L890.3,395.56L888.76,393.94L887.36,396.55L886.45,396.67L885.81,395.21L885.86,393.68L884.6,392.49L887.38,390.48L888.72,390.89L889.77,389.23L886.66,389.86L884.55,389.75L883.65,388.81L883.38,387.2L881.33,386.58L881.24,384.57L883.01,384L884.06,383.07L885.67,382.71L888.4,384.08L890.02,384.15L890.91,386.46L890.39,387.8L890.52,389.57L893.24,393.83L894.69,393.87L897.22,391.02L897.73,389.87L899.2,389.58L900.13,388.25L902.36,386.91L905.06,388.06L908.7,390.14L911.38,390.51ZM772.11,375.9L773.58,377.73L773.41,379.02L771.88,377.83ZM860.66,377.65L859.18,379.61L857.01,380.23L854.84,379.55L850.83,379.74L849.49,379.52L846.01,379.69L844.92,382.52L845.19,383.8L846.54,385.25L847.01,386.49L848.19,386.63L849.78,384.57L851.23,384.86L852.24,384.2L854.21,384.19L852.95,386.41L850.38,388.33L850.76,390.08L852.45,393.33L851.92,394.9L853.87,396.73L853.9,397.62L851.65,398.17L850.65,399.49L849.31,398.49L849.81,396.67L847.61,394.66L848.15,391.65L846.87,391.34L845.54,392.78L846.05,395.22L845.86,398.63L845.34,402.08L843.39,402.65L842.35,401.65L843.28,397.9L843.38,396.45L842.8,394.36L841.42,394.59L840.82,391.7L841.84,390.65L842.63,388.58L842.62,386.63L844.15,383.18L844.27,380.48L845.74,377.74L846.54,378.31L847.8,376.55L850.01,377.38L852.74,377.57L854.22,378.19L855.46,377.9L857.3,378.24L858.67,377.55L860.95,375.01L861.75,375.76ZM869.85,378.2L872.05,375.7L872.97,377.24L871.68,378.09L872.96,380.02L869.29,379.54L868.83,376.69L869.47,374.48L870.71,375.01L870.73,376.39ZM836.75,365.78L837,367.78L835.51,367.94L837,369.92L838.55,372.71L837.92,374.01L838.63,375.01L841.59,377.7L840.14,378.33L837.59,378.64L836.88,380.49L836.69,382.58L837,384.25L833.72,386.88L833.26,389.04L833.7,389.96L831.6,394.8L827.45,396.95L827.03,394.43L825.59,393.62L824.64,394.29L823.8,393.27L822.01,393.28L820.79,394.08L819.78,393.78L818.26,394.57L818.32,392.8L816.86,392.33L815.8,392.79L813.19,392.3L812.61,386.6L811.88,385.15L810.81,384.62L809.87,383.22L810.18,381.25L809.17,380.04L809.04,378.4L809.56,375.78L811.32,373.79L811.42,375.33L814.2,378.15L815.6,377.57L818.28,377.63L820.54,375.54L824.26,376.75L825.15,376.01L827.23,375.89L828.12,373.97L827.96,372.96L829.2,371.94L828.87,370.75L830.04,370.03L830.3,366.65L831.3,365.12L835.19,365.16ZM768.55,361.83L771.65,361.8L773.17,363.13L774.33,364.87L774.57,366.07L779.26,369.48L781.68,372.93L783.58,372.93L785.01,375.04L786,375.31L788.25,378.46L790.18,379.53L791.51,379.58L792.51,381.2L791.35,382.08L791.36,383.36L792.29,384.68L794.35,385.25L795.27,390.28L797.62,390.26L799.65,392.98L798.95,394.87L798.9,400.09L798.56,402.59L797.07,402.11L796.17,402.84L794.79,402L794.6,403.44L792.26,400.35L788.21,396.89L786.95,394.82L785.23,393.2L782.95,389.38L782.99,388.6L781.26,384.46L778.98,380.99L777.56,380.06L776.36,375.78L775.59,374.26L772.77,372.55L772.38,370.73L770.3,368.01L768.58,367.11L765.4,363.58L764.4,361.62L765.71,360.4L767.39,361.58Z" class="land" id="ID" title="Indonesia"/>
    <path d="M816.8,297.06L817.56,296.95L817.76,297.88Z" class="land" id="HK" title="Hong Kong"/>
    <path d="M808.76,306.53L809.38,307.8L808.3,309.61L808.18,311.2L805.55,313.19L802.76,312L802.23,308.99L804.84,306.56L807.75,306.23ZM841.72,221.91L839.02,220.19L839.45,222.13L838.36,222.36L837.89,223.76L835.38,223.95L836.63,226.17L833.62,225.64L832.37,224.71L831.17,227.97L828.64,229.63L827.82,231.33L827.32,231.94L825.19,232.23L822.79,233.72L821.09,233.59L819.92,232.7L820.73,229.33L819.01,228.21L816.88,227.99L815.89,230.49L813.76,231.71L812.87,234.46L809.54,234.58L809.62,236.49L811.64,238.14L814.63,238.67L815.58,239.95L815.7,241.33L817.49,242.11L820.38,239.45L823.61,240.85L826.56,240.98L827.01,242.77L825.22,242.73L822.9,244.08L821.1,246.85L819.72,250.04L821.4,251.65L823.63,252.62L827.37,257.54L827.76,258.87L829.81,259.96L830.29,261.89L833.05,265.44L830.76,266.79L831.56,267.75L834.45,269.29L834.47,271.69L835.09,275.04L833.61,275.32L832.31,279.81L831.48,285.48L830.21,286.87L829.35,289.29L827.82,289.11L828.06,290.54L824.2,294.55L824.18,295.43L821.31,296.28L817.56,296.95L816.8,297.06L815.27,295.75L815.54,298.14L815.36,298.08L815.35,298.25L813.93,298.54L812.85,299.83L810.77,299.55L809.91,300.64L807.41,301.29L805.83,302.6L807.2,304.55L806.15,305.51L804.24,303.06L804.68,300.94L799.45,300.14L798.47,300.84L796.44,300.46L794.19,298.98L793.3,297.5L792.93,295.57L790.72,295.52L788.61,293.93L787.43,295.56L786.25,296.34L782.83,296.11L782.12,297.28L780.37,296.2L779.4,297.56L777.58,298.03L778.61,299.82L778.9,302.18L777.33,301.9L776.84,300.61L775.82,300.28L773.99,301.01L772.67,298.88L770.32,298.51L770.52,297.12L770.11,294.87L768.54,294.51L767.56,291.03L765.83,291.05L764.33,291.85L763.41,289.62L763.58,287.58L765.84,284.25L765.54,281.75L764.46,278.03L763.39,278.11L762.26,275.88L760.2,274.5L759.78,275.6L757.95,275.03L756.3,272.46L754.71,270.97L753.15,272.45L750.45,271.47L748.66,273.39L746.67,274.19L745.52,276.61L743.56,277.43L742.46,277.32L742.22,276.6L738.22,276.11L736.88,275.25L735.66,276.01L734.27,278.99L733.71,276.91L732.83,276.07L731.41,276.9L728.42,277.03L726.41,276.1L726.07,276.69L723.54,275.37L721.78,275.23L718.55,272.98L717.92,271.82L716.34,271.96L714.69,270.35L711.21,268.45L710.69,267.66L708.75,267.62L707.62,268.27L704.78,266.75L703.71,265.54L703.68,265.52L701.85,264.82L701.73,264.73L700.06,263.99L699.21,261.78L697.69,259.4L700.25,259.47L700.19,259.24L699.44,256.95L699.32,256.75L698.14,255.72L697.49,253.51L697.83,252.51L695.57,251.38L693.41,248.26L693.36,248.22L692.31,248.29L688.39,247.04L687.28,246.26L686.4,243.89L684.67,242.9L682.15,242.49L683.01,241.71L681.4,236.92L678.48,236.56L677.18,233.41L677.88,232.82L677.69,231.19L681.87,229.09L683.03,230.22L684.69,229.67L685.17,227.69L688.93,227.34L689.32,226.24L691.63,224.71L694.08,223.78L693.89,223.19L693.23,221.43L694.49,219.59L692.14,216.12L691.66,213.73L690.19,212.77L694.31,211.64L697.09,212.33L696.16,210.87L696.19,205.32L696.53,204.76L701.58,206.06L703.52,204.51L702.25,202.09L702.24,200.38L704.32,199.86L704.22,198.11L705.73,197.83L707.02,197.55L708.37,199.76L712.21,201.77L713.68,201.77L716.31,202.97L718.94,205.6L720.62,208.98L720.34,210.85L721.41,212.07L723.63,212.51L727.19,212.66L729.91,213.16L733.75,215.19L735.72,215.45L738.85,219.42L740.9,221.22L743.22,220.97L750.18,221.79L751.55,221.38L756.95,222.17L758.06,223.1L761.61,223.88L763.86,224.82L766,224.36L768.27,224.87L772.11,222.83L776,222.24L779.73,222.21L782.06,221.03L782.95,218.92L785.07,217.55L782.45,215.12L782.74,212.55L788.19,213.73L789.84,211.44L793.06,211.1L794.09,209.86L794.14,208.04L796.24,207.78L798.4,206.48L802.64,206.88L801.63,204.89L796.57,201.84L794.48,201.83L793.91,203.05L791.81,202.26L789.68,202.93L788.22,201.98L787.85,195.16L791.84,196.28L792.82,195.08L794.46,194.47L793.85,193.15L793.8,188.75L794.74,187.41L793.69,185.55L791.38,184.5L792.24,183.13L796.09,182.02L799.47,181.8L803.73,183.27L806.26,183.6L809.54,185.89L814.12,190.55L817.93,193.76L818.4,194.98L820.47,196.08L822.4,195.97L825.35,196.97L831.06,200.54L832.84,202.85L837.17,202.82L837.34,201.98L840.96,200.42L841.84,200.61L843.7,202.82L842.9,204.33L844.22,208.2L843.8,210.97L844.01,212.68L840.8,211.89L838.85,213.12L840.98,216.22L842.21,218.58L842.63,220.55Z" class="land" id="CN" title="China"/>
    <path d="M742.46,277.32L744.23,279.09L744.31,280.73L740.44,281.04L739.12,280.59L737.45,281.3L734.43,280.32L734.27,278.99L735.66,276.01L736.88,275.25L738.22,276.11L742.22,276.6Z" class="land" id="BT" title="Bhutan"/>
    <path d="M828.41,363.06L827.53,363.74L827.89,364.95L827.19,366.33L825.35,364.21L827.8,362.88L828.41,363.06L828.77,363.06Z" class="land" id="BN" title="Brunei"/>
    <path d="M615.56,284.38L615.08,284.07L614.95,283.23L615.47,283.48Z" class="land" id="BH" title="Bahrain"/>
    <path d="M749.52,299.07L749.9,300.99L748.69,301.64L749.45,303.53L748.37,302.09L747.91,300.17L746.41,297.09L745.32,295.99L743.99,296.74L742.28,296.16L743.08,298.02L741.99,299.68L740.79,299.05L739.13,300.03L738.33,298.64L736.51,293.59L735.81,292.69L735.97,290.6L733.95,289.64L734.45,287L734.17,285.54L732.79,284.36L733.56,282.55L738.19,284.17L738.62,286.56L740.68,287.11L745.72,287.07L746.55,288.1L745.87,290.73L744.33,291.12L743.98,292.74L744.83,294.84L745.87,295.3L746.53,293.33L747.38,292.66L748.81,296.41Z" class="land" id="BD" title="Bangladesh"/>
    <path d="M633.46,285.26L634.04,287.78L633.13,288.69L632.39,290.55L631.11,295.1L631.2,296.34L630.97,296.65L622.82,295.48L619.36,291.17L619.2,290.39L620.38,291.52L622.65,290.89L626.59,291.18L628.09,290.42L628.97,288.42L632.28,284.72L632.6,283.71Z" class="land" id="AE" title="United Arab Emirates"/>
    <path d="M683.01,241.71L682.15,242.49L679.93,242.99L676.52,243.21L673.83,244.69L672.84,246.17L673.75,246.95L674.87,249.39L673.39,251.84L674.03,253.65L670.53,254.22L672.2,256.21L670.07,257.52L669.69,259.73L670.16,261.6L669.11,262.74L666.97,262.09L665.22,263.22L664.52,264.3L663.35,263.97L661.98,265.45L661.98,269.51L658.81,270.55L657.02,270.53L655.82,271.18L654.11,270.78L650.78,271.11L645.47,269.42L646.12,268.4L647.8,265.75L647.09,263.68L644.54,263.31L644,260.42L642.61,257.08L643.47,255.7L642.14,255.2L641.76,253.48L643.06,250.62L643.09,247.75L646.35,249.14L648.66,248.41L648.54,247.01L650.68,246.28L652.4,245.05L652.72,242.08L654.85,241.63L655.23,240.44L657.69,241.27L661.56,241.93L662.67,242.76L665.06,241.36L666.15,242.17L666.83,240.35L668.54,240.39L668.31,239.25L669.85,237.12L671.11,237.68L672.48,239.34L672.68,242.1L674.16,243.72L676.96,241.57L678.55,240.81L679.57,241.71L680.94,241.02Z" class="land" id="AF" title="Afghanistan"/>
  </g>
</svg>