<?xml version="1.0" encoding="UTF-8"?>
<svg xmlns="http://www.w3.org/2000/svg" width="498.04" height="520" viewBox="230.98 -2.5 498.04 520">
  <!-- Created using SVG Map Generator: dojo.amcharts.com/svg-map-generator -->
  <style>
    .land { fill: #ffffff; stroke: #000000; stroke-width: 0.5; }
  </style>
  <g id="polygons">
    <path d="M666.98,349.17L666.85,349.16L666.84,349.04L666.95,349.02Z" class="land" id="GO" title="Glorioso Islands"/>
    <path d="M637.25,388.41L637.15,388.41L637.14,388.25L637.28,388.34Z" class="land" id="JU" title="Juan De Nova Island"/>
    <path d="M565.73,426.51L556.07,424.68L554.26,425.02L552.44,422.28L546.56,420.57L544.47,416.93L544.83,413.11L535.9,406.02L530.88,393.55L534.51,394.68L541.52,394.73L547.34,387.14L552.47,384.53L553.54,380.65L558.6,378.2L562.65,378.19L562.81,380.7L567.65,380.91L571.81,383.8L577.84,385.82L577.56,397.59L575.66,402.18L577.09,408.42L573.57,414.42L572.69,418.87Z" class="land" id="ZW" title="Zimbabwe"/>
    <path d="M579.48,333.72L582.03,336.96L583.78,342.15L581.28,344.31L580.93,348.88L581.76,355.69L579.43,356.69L578.95,360.93L577.05,363.68L580.18,366.56L561.83,373.53L562.65,378.19L558.6,378.2L553.54,380.65L552.47,384.53L547.34,387.14L541.52,394.73L534.51,394.68L530.88,393.55L525,391.31L519.54,392.45L512.31,385L511.4,380.42L511.94,359.33L523.32,359.33L524.32,355.21L524.42,344.15L527.71,348.19L531.81,346.8L532.76,349.51L536.85,351.41L542.49,351.47L550.98,355.63L554.8,361.96L559.56,362.13L559.83,353.3L555.32,354.68L551.17,348.51L553.04,342.71L553.13,336.74L551.82,332.42L555.43,327L566.38,325.07L573.55,331.2Z" class="land" id="ZM" title="Zambia"/>
    <path d="M565.73,426.51L566.83,434.24L569.02,441.25L568.08,451.97L565.01,450.46L561.05,455.24L562.25,460.25L567.46,461.63L568.62,458.29L573.21,458.36L570.4,468.04L568.7,471.07L562.67,476.49L555.62,487.9L546.48,497.39L540.24,502.83L531.51,507.88L521.99,510.82L514.87,509.5L507.04,510.1L504.25,512.27L496.9,512.92L491.59,515L487.05,510.38L482.07,502.17L484.35,499.95L484.44,493.44L481.56,488.25L477.79,476.67L475.05,471.04L478.81,466.83L480.94,471.62L484.76,472.86L491.5,473.07L496,469.85L497.16,443.51L499.26,445.33L501.76,453.14L501.04,458.36L506.42,458.4L512.6,452.79L514.24,448.39L516.61,447.02L525.25,450.97L530.31,449.45L532.6,443.3L538.31,439.67L540.45,434.54L547.14,428.59L554.26,425.02L556.07,424.68ZM542.21,473.13L537.26,478.54L538.92,483.21L542.46,485.55L544.91,482.01L549.19,480.37L551.25,475.71L547.07,470.78Z" class="land" id="ZA" title="South Africa"/>
    <path d="M586.34,273.88L566.9,273.91L565.47,274.34L562.95,276.48L559.72,276.62L560.61,266.05L561.98,260.91L570.01,252.19L566.77,249.27L567.4,241.9L569.31,239.8L573.28,239.68L575.15,241.63L579.67,239.71L583.68,240.02L586.63,236.71L589.23,240.47L592.84,252.07L591.78,257.99L589.9,259.33L586.6,265.51Z" class="land" id="UG" title="Uganda"/>
    <path d="M586.34,273.88L594.29,278.7L609.27,288.42L610.17,292.89L618.83,300.14L616.21,308.58L616.49,311.81L620.08,315.71L618.85,320.26L618.78,326.85L621.42,337.33L625.45,341.25L622.46,343.79L613.15,348.01L609.69,347.17L607.28,349.88L601.01,350.17L596.59,348.3L591.52,349.19L589.43,345.33L589.19,338.15L588,336.03L579.48,333.72L573.55,331.2L566.38,325.07L563.82,318.02L560.19,313.84L558.84,309.63L559.58,306.97L558.09,302.21L558.51,298.41L563.1,295.82L567.11,290.05L565.44,287.51L565.7,283.82L567.4,283.39L567.32,277.87L565.47,274.34L566.9,273.91Z" class="land" id="TZ" title="Tanzania"/>
    <path d="M444.84,29.74L445.02,35.24L441.13,37.63L437.08,42.05L437.81,46.93L433.81,50.9L430.7,37.69L426.47,34.31L423.03,29.37L421.45,23.3L425.59,18.63L426.36,15.27L425.17,5.68L427.09,2.88L433.38,0L438.57,3.29L438.91,10.38L442.12,15.01L436.54,21.88L436.86,24.95Z" class="land" id="TN" title="Tunisia"/>
    <path d="M383.3,188.47L382.57,192.98L385.94,195.57L387.6,202.32L387.76,222.5L385.08,223.4L381.02,217.98L381.69,214.4L380.34,205.15L381.03,200.12L379.4,199.14L380.01,193.86L377.44,191.05L377.37,187.6Z" class="land" id="TG" title="Togo"/>
    <path d="M517.64,189L515.39,188.45L510.78,192.94L505.06,199.78L502.45,201.77L495.13,202.56L494.94,205.12L490.98,209.57L486.05,209.91L480.78,213L478.27,212.05L472.77,213.19L470.47,205.83L465.61,201.23L463.4,197.74L465.01,195.69L472.96,195.83L470.39,190.93L469.96,182.4L466.39,174.31L463.62,173.6L460.76,169.14L459.73,164.31L465.16,154.54L471.72,146.26L472.8,124.86L474.01,122L469.16,113.27L467.65,102.73L473.58,99.51L493.2,110.85L510.87,121L522.69,127.77L523.62,154.32L518.3,154.88L514.98,166.12L512.6,168.95L513.41,171.81L511.04,175.66L514.27,176.58L515.68,183.65L517.96,185.96Z" class="land" id="TD" title="Chad"/>
    <path d="M719.11,300.14L718.16,299.55L718.61,299.19Z" class="land" id="SC" title="Seychelles"/>
    <path d="M568.08,451.97L568.62,458.29L567.46,461.63L562.25,460.25L561.05,455.24L565.01,450.46Z" class="land" id="SZ" title="Eswatini"/>
    <path d="M418.76,265.88L417.93,264.32L418.93,263.87L419.32,265.01Z" class="land" id="ST" title="Sao Tome and Principe"/>
    <path d="M633.26,278.81L629.88,272.94L629.7,246.71L635.26,238.43L640.81,236.2L642.82,233.69L648.09,231.51L653.95,231.78L659.9,224.06L672.07,209.82L665.93,209.82L647.6,202.78L644.2,199.97L638.85,191.12L640.36,188.43L642.2,184.86L646.11,189.96L649.47,192.48L652.87,192.44L658.11,189.59L662.72,190.23L667.73,187.18L676.86,186.61L684.15,184.65L688.17,181.41L691.05,182.5L690.18,186.03L690.74,190.87L689.38,193.74L689.17,199.62L680.68,216.99L679,222.8L672.65,234.74L661.01,249.13L650.49,256.84L645.19,262.32L636.03,273.67Z" class="land" id="SO" title="Somalia"/>
    <path d="M314.74,206.34L312.47,211.51L307.16,217.58L301.18,214.17L298.78,210.82L296.33,202.32L299.64,200.01L301.23,196.53L309.18,195.71L312.29,200.43Z" class="land" id="SL" title="Sierra Leone"/>
    <path d="M343.19,380.72L342.69,380.43L343.09,380.07Z" class="land" id="SH" title="Saint Helena"/>
    <path d="M303.02,161.26L304.55,165.55L304.28,169.65L308.27,174.58L308.23,178.41L302.71,178.96L297.91,176.78L293.96,176.49L285.01,176.44L282.67,177.8L275.71,178.76L275.49,173.71L281.17,173.05L283.2,169.98L276.78,169.97L273.23,162.46L273.4,160.45L277.26,153.91L279.6,148.84L286.02,148.15L290.95,148.61L293.51,151.7L296.29,152.33L299.55,158.16Z" class="land" id="SN" title="Senegal"/>
    <path d="M586.56,199.39L586.82,205.65L581.57,206.97L580.28,210.14L584.33,212.14L590.88,219.34L594.45,227.65L586.63,236.71L583.68,240.02L579.67,239.71L575.15,241.63L573.28,239.68L569.31,239.8L567.4,241.9L563.41,238.4L560.18,234.1L556.96,235.51L551.07,235.78L546.17,230.38L544.15,225.63L540.62,223.55L539.63,219.51L533.54,214.54L530.22,208.82L526.75,207.72L525.82,205.06L528.15,203.48L529.59,197.16L531.46,193.33L535.7,192.55L540.44,198.93L548.61,198.4L549.65,200.33L554.52,200.35L561.46,193.57L566.06,197.38L569.02,196.98L576,188.01L575.44,183.32L580.61,179.74L579.98,184.2L580.74,189.49L585.28,194.13Z" class="land" id="SS" title="South Sudan"/>
    <path d="M599.47,109.88L601.57,116.27L602.83,127.16L604.49,132.6L611.71,138.43L609.72,141.44L604.81,145.17L602.37,145.19L602.07,150.64L599.49,158.95L600.36,165.2L598.25,176.11L595.17,177.46L592.39,182.6L591.5,189.39L587.56,191.78L586.56,199.39L585.28,194.13L580.74,189.49L579.98,184.2L580.61,179.74L575.44,183.32L576,188.01L569.02,196.98L566.06,197.38L561.46,193.57L554.52,200.35L549.65,200.33L548.61,198.4L540.44,198.93L535.7,192.55L531.46,193.33L529.59,197.16L528.15,203.48L525.82,205.06L522.07,203.98L522.61,196.81L517.64,189L517.96,185.96L515.68,183.65L514.27,176.58L511.04,175.66L513.41,171.81L512.6,168.95L514.98,166.12L518.3,154.88L523.62,154.32L522.69,127.77L522.56,124.2L528.51,124.2L527.98,109.89L550.95,109.9L566.78,109.89L577.77,109.89Z" class="land" id="SD" title="Sudan"/>
    <path d="M326.31,69.34L326.25,72L326.09,81.24L306.23,81.24L305.74,99.35L299.62,102.7L299.43,114.63L275.65,114.66L275.04,118.4L275.98,110.58L278.58,107.47L280.57,102L284.52,95.02L287.9,91.61L292.01,79.39L297.1,75.95L299.66,69.37Z" class="land" id="EH" title="Western Sahara"/>
    <path d="M565.47,274.34L567.32,277.87L567.4,283.39L565.7,283.82L561.87,283.39L561.47,286.08L556.22,286.1L556.96,279.98L559.72,276.62L562.95,276.48Z" class="land" id="RW" title="Rwanda"/>
    <path d="M713.72,418.9L711.15,418.43L711.09,415.79L713.2,415.8Z" class="land" id="RE" title="Reunion"/>
    <path d="M277.49,31.98L280.36,32.78L279.48,33.56L277.56,33.03Z" class="land" id="PT" title="Madeira"/>
    <path d="M460.76,169.14L463.62,173.6L464.51,178.55L467.16,180.52L466.81,184.92L462.76,187.42L457,199.64L456.29,203.48L453.83,205.55L448.71,219.08L446.27,220.92L442.89,216.47L440.05,216.94L433.44,223.97L430.37,232.9L428.76,234.31L421.76,234.61L415.14,236.21L412.13,233.67L407.65,223.85L403.13,221.11L394.41,221.41L394.27,210.7L394.8,202.33L396.45,202.07L401.26,191.22L399.12,185.6L399.77,183.46L400.06,177.51L401.9,175.77L403.09,170.9L411.27,167.93L416.74,169.85L420.13,174.1L425.31,171.75L431.21,174.82L436.5,175.51L439.93,172.24L447.42,171.64L453.85,173.49L455,171.83Z" class="land" id="NG" title="Nigeria"/>
    <path d="M467.65,102.73L469.16,113.27L474.01,122L472.8,124.86L471.72,146.26L465.16,154.54L459.73,164.31L460.76,169.14L455,171.83L453.85,173.49L447.42,171.64L439.93,172.24L436.5,175.51L431.21,174.82L425.31,171.75L420.13,174.1L416.74,169.85L411.27,167.93L403.09,170.9L401.9,175.77L400.06,177.51L399.77,183.46L395.37,178.67L392.39,182.03L389.74,176.25L387.35,176.76L383.82,173.86L383.76,170.23L381.56,169.14L378.79,163.48L379.12,160.52L383.64,159.98L385.7,157.95L399.11,157.35L401.37,154.5L403.49,145.64L403.35,130.3L413.06,127.89L422.88,117.92L440.32,105.55L449.5,98.99L458.63,101.41L463.23,105.43Z" class="land" id="NE" title="Niger"/>
    <path d="M519.54,392.45L525,391.31L530.88,393.55L525.38,394.87L520.55,398.26L518.95,395.22L504.8,397.3L503.87,423.63L497.9,423.63L497.16,443.51L496,469.85L491.5,473.07L484.76,472.86L480.94,471.62L478.81,466.83L475.05,471.04L470.91,466.37L468.82,462.21L466.86,454.56L466.37,445.35L464.54,439.4L464.99,428.66L463.86,424.99L458.84,415.88L457.26,410.64L453.15,401.65L449.14,395.04L449.03,389.66L453.92,389.4L457.3,387.64L462.33,390.66L480.37,390.67L489.36,390.73L491.9,393.35L507.55,395.03Z" class="land" id="NA" title="Namibia"/>
    <path d="M653.56,359.16L652.91,358.58L653.37,357.25L653.89,357.56Z" class="land" id="YT" title="Mayotte"/>
    <path d="M591.52,349.19L589.68,349.26L587.71,353.7L588.66,361.9L592.68,365.72L596.11,371.25L595.11,381.15L591.37,384.74L586.8,382.16L586,379.93L587.97,375.72L586.96,369.38L582.67,370.52L580.18,366.56L577.05,363.68L578.95,360.93L579.43,356.69L581.76,355.69L580.93,348.88L581.28,344.31L583.78,342.15L582.03,336.96L579.48,333.72L588,336.03L589.19,338.15L589.43,345.33Z" class="land" id="MW" title="Malawi"/>
    <path d="M725.48,412.79L724.06,410.95L725.36,409.3L726.52,410.84Z" class="land" id="MU" title="Mauritius"/>
    <path d="M303.02,161.26L299.55,158.16L296.29,152.33L293.51,151.7L290.95,148.61L286.02,148.15L279.6,148.84L277.26,153.91L277.33,150.7L280.3,141.71L280.43,134.74L277.98,128.73L279.98,122.54L278.74,119.5L275.04,118.4L275.65,114.66L299.43,114.63L299.62,102.7L305.74,99.35L306.23,81.24L326.09,81.24L326.25,72L336.19,79.13L349,88.41L338.42,88.42L340.65,114.97L341.72,127.42L343.61,148.69L345.23,150.73L344.26,156.35L321.97,156.35L312.72,156.87L311.48,158.82L307.84,155.35L305.52,159.93Z" class="land" id="MR" title="Mauritania"/>
    <path d="M573.21,458.36L568.62,458.29L568.08,451.97L569.02,441.25L566.83,434.24L565.73,426.51L572.69,418.87L573.57,414.42L577.09,408.42L575.66,402.18L577.56,397.59L577.84,385.82L571.81,383.8L567.65,380.91L562.81,380.7L562.65,378.19L561.83,373.53L580.18,366.56L582.67,370.52L586.96,369.38L587.97,375.72L586,379.93L586.8,382.16L591.37,384.74L595.11,381.15L596.11,371.25L592.68,365.72L588.66,361.9L587.71,353.7L589.68,349.26L591.52,349.19L596.59,348.3L601.01,350.17L607.28,349.88L609.69,347.17L613.15,348.01L622.46,343.79L625.45,341.25L624.86,347.43L625.58,356.73L625.39,369.24L626.44,372.11L624.52,376.98L619.82,383.85L615,387.68L609.2,389.61L603.55,393.16L598.98,398.72L588.84,407.98L587.09,412.21L589.98,421.13L589.93,426.47L591.22,430.52L587.93,441.82L576.77,446.98L573.27,449.73Z" class="land" id="MZ" title="Mozambique"/>
    <path d="M403.35,130.3L403.49,145.64L401.37,154.5L399.11,157.35L385.7,157.95L383.64,159.98L379.12,160.52L373.16,159.55L367.02,163.56L362.82,165.07L355.97,172.78L351.38,173.31L350.74,178.88L345.47,182.52L343.98,192.51L340.85,194.16L339.48,190.39L334.3,194.1L330.9,192.5L328.87,194.39L327.41,192.43L326.38,185.67L323.86,183.62L322.56,178.42L317.78,180.99L315.02,179.78L312.54,182.01L308.23,178.41L308.27,174.58L304.28,169.65L304.55,165.55L303.02,161.26L305.52,159.93L307.84,155.35L311.48,158.82L312.72,156.87L321.97,156.35L344.26,156.35L345.23,150.73L343.61,148.69L341.72,127.42L340.65,114.97L338.42,88.42L349,88.41L358.29,95.68L370.03,104.88L384.69,116.28L387.96,121.46L397.14,125.67L398.36,131.4Z" class="land" id="ML" title="Mali"/>
    <path d="M680.35,355.28L682.56,359.85L683.71,371.68L684.93,376.35L677.77,389.59L677.62,394.29L670.95,412.59L665.53,426.96L662.52,437.05L659.62,443.59L656.69,446.18L646.8,449L640.71,445.08L639.04,440.51L639.76,434.58L638.2,429.97L637.89,423.98L639.69,419.02L641.97,417.02L645.89,408.76L646.4,405.23L644.48,397.08L644.53,390.67L647.51,385.75L648.05,382.29L659.54,378.69L669.02,370.35L670.37,366.18L675.52,361.23L676.44,355.47Z" class="land" id="MG" title="Madagascar"/>
    <path d="M364.94,15.98L367.39,18.5L368.01,28.76L371.57,34.85L370.33,37.57L363.47,37.27L355.38,40.63L354.39,45.99L348.58,49.2L345.7,52.85L339.49,53.91L332.45,57.2L326.6,61.73L326.31,69.34L299.66,69.37L301.07,67.49L310.16,64.14L315.87,59.24L320.88,51.76L319.77,47.39L320.29,42.33L323.79,34.1L327.69,29.7L337.68,24.1L340.97,18.33L343.59,11.11L346.65,10.08L348.28,13.38L352.74,15.57L356.43,14.72Z" class="land" id="MA" title="Morocco"/>
    <path d="M542.21,473.13L547.07,470.78L551.25,475.71L549.19,480.37L544.91,482.01L542.46,485.55L538.92,483.21L537.26,478.54Z" class="land" id="LS" title="Lesotho"/>
    <path d="M525.12,40.68L523.53,42.97L524.5,46.97L523.25,51.6L525.26,58.41L526.11,72.89L527.3,95.42L527.98,109.89L528.51,124.2L522.56,124.2L522.69,127.77L510.87,121L493.2,110.85L473.58,99.51L467.65,102.73L463.23,105.43L458.63,101.41L449.5,98.99L446.61,93.29L439.09,91.31L437.46,86L434.05,80.73L436.42,77.26L435.64,71.67L436.57,68.41L435.93,59.95L433.81,50.9L437.81,46.93L437.08,42.05L441.13,37.63L445.02,35.24L444.84,29.74L449.44,32.05L455.28,31.65L466.48,35.4L468.57,40.67L472.36,43.48L479.61,44.79L484.65,46.97L489.21,50.46L493.71,49.04L496.06,44.81L494.46,39.51L498.22,34.05L503.99,31.49L512.63,33.77L513.96,36.67L522.22,38.09Z" class="land" id="LY" title="Libya"/>
    <path d="M325.73,212.94L326.87,216.39L324.97,220.42L329.35,222.37L332.01,225.17L331.42,235.78L321.68,230.77L314.68,223.49L307.16,217.58L312.47,211.51L314.74,206.34L319.43,207.33L321.84,215.38Z" class="land" id="LR" title="Liberia"/>
    <path d="M635.26,238.43L629.7,246.71L629.88,272.94L633.26,278.81L629.94,280.62L627.75,284.81L625.15,285.88L624.45,289.88L620.5,298.62L618.83,300.14L610.17,292.89L609.27,288.42L594.29,278.7L586.34,273.88L586.6,265.51L589.9,259.33L591.78,257.99L592.84,252.07L589.23,240.47L586.63,236.71L594.45,227.65L597.39,228.71L597.56,232.53L599.55,235.08L604.62,235.35L611.95,240.77L620.62,242.15L622.72,239.33L628.36,236.33L631.19,238.68Z" class="land" id="KE" title="Kenya"/>
    <path d="M436.79,259.4L438.07,250.35L439.17,251.32L447.47,251.32L447.52,259.63Z" class="land" id="GQ" title="Equatorial Guinea"/>
    <path d="M285.77,188.85L283.65,186.87L283.04,183.26L279.17,181.88L275.71,178.76L282.67,177.8L285.01,176.44L293.96,176.49L293.85,183.18L288.02,184.8Z" class="land" id="GW" title="Guinea-Bissau"/>
    <path d="M275.49,173.71L276.78,169.97L283.2,169.98L281.17,173.05Z" class="land" id="GM" title="Gambia"/>
    <path d="M308.23,178.41L312.54,182.01L315.02,179.78L317.78,180.99L322.56,178.42L323.86,183.62L326.38,185.67L327.41,192.43L328.87,194.39L329.82,206.47L327.28,212.95L325.73,212.94L321.84,215.38L319.43,207.33L314.74,206.34L312.29,200.43L309.18,195.71L301.23,196.53L299.64,200.01L296.33,202.32L293.89,196.61L289.47,193.78L287.4,188.91L285.77,188.85L288.02,184.8L293.85,183.18L293.96,176.49L297.91,176.78L302.71,178.96Z" class="land" id="GN" title="Guinea"/>
    <path d="M377.37,187.6L377.44,191.05L380.01,193.86L379.4,199.14L381.03,200.12L380.34,205.15L381.69,214.4L381.02,217.98L385.08,223.4L383.63,225.39L379.39,225.77L372.89,229.55L365.49,232.85L358.66,230.53L358.83,230.24L359.24,230.23L360.62,229.85L358.14,221.56L357.93,218.29L360.68,210.28L362.43,208.31L361.28,199.24L360.48,188.43L374.78,188.37Z" class="land" id="GH" title="Ghana"/>
    <path d="M459.56,251.36L459.45,257.91L465.02,256.99L466.59,260.97L463.21,265.39L463.05,268.19L466.87,271.14L466.26,280.19L464.43,284.3L457.7,283.21L448.98,283.81L448.74,286.93L451.17,290.36L446.21,294.61L441.42,288.19L436.98,283.59L434.78,279.73L432.06,271.78L434.99,269.24L436.79,259.4L447.52,259.63L447.47,251.32L447.59,250.38L459.1,250.69Z" class="land" id="GA" title="Gabon"/>
    <path d="M636.61,177.97L633.13,184.22L633.49,188.56L640.36,188.43L638.85,191.12L644.2,199.97L647.6,202.78L665.93,209.82L672.07,209.82L659.9,224.06L653.95,231.78L648.09,231.51L642.82,233.69L640.81,236.2L635.26,238.43L631.19,238.68L628.36,236.33L622.72,239.33L620.62,242.15L611.95,240.77L604.62,235.35L599.55,235.08L597.56,232.53L597.39,228.71L594.45,227.65L590.88,219.34L584.33,212.14L580.28,210.14L581.57,206.97L586.82,205.65L586.56,199.39L587.56,191.78L591.5,189.39L592.39,182.6L595.17,177.46L598.25,176.11L600.36,165.2L604.76,163.79L606.77,165.96L608.46,160.94L612.37,164L615.77,162.54L622.83,163.95L626.27,166Z" class="land" id="ET" title="Ethiopia"/>
    <path d="M293.74,65.66L295.01,61.81L296.02,62.68L295.35,65.06Z" class="land" id="ES" title="Canary Islands"/>
    <path d="M611.71,138.43L615.45,147.54L618.1,156.1L622.52,159.79L628.58,162.6L631.73,167.15L635.44,169.97L639.04,175.13L641.04,176.24L636.61,177.97L626.27,166L622.83,163.95L615.77,162.54L612.37,164L608.46,160.94L606.77,165.96L604.76,163.79L600.36,165.2L599.49,158.95L602.07,150.64L602.37,145.19L604.81,145.17L609.72,141.44Z" class="land" id="ER" title="Eritrea"/>
    <path d="M599.47,109.88L577.77,109.89L566.78,109.89L550.95,109.9L527.98,109.89L527.3,95.42L526.11,72.89L525.26,58.41L523.25,51.6L524.5,46.97L523.53,42.97L525.12,40.68L537.56,42.66L548.55,46.59L555.96,42.09L560.57,41.16L566.19,44.71L575.35,44.44L578.45,43.28L583.66,56.29L581.55,66.76L576.56,67.6L579.7,76.56L588.19,92.14L590.98,95.07L590.68,99.53L591.97,103.09Z" class="land" id="EG" title="Egypt"/>
    <path d="M427.09,2.88L425.17,5.68L426.36,15.27L425.59,18.63L421.45,23.3L423.03,29.37L426.47,34.31L430.7,37.69L433.81,50.9L435.93,59.95L436.57,68.41L435.64,71.67L436.42,77.26L434.05,80.73L437.46,86L439.09,91.31L446.61,93.29L449.5,98.99L440.32,105.55L422.88,117.92L413.06,127.89L403.35,130.3L398.36,131.4L397.14,125.67L387.96,121.46L384.69,116.28L370.03,104.88L358.29,95.68L349,88.41L336.19,79.13L326.25,72L326.31,69.34L326.6,61.73L332.45,57.2L339.49,53.91L345.7,52.85L348.58,49.2L354.39,45.99L355.38,40.63L363.47,37.27L370.33,37.57L371.57,34.85L368.01,28.76L367.39,18.5L364.94,15.98L366.72,16.05L372.49,11.94L378.07,10.29L385.03,5.86L392.72,5.28L399.52,3.17L405.14,3.17L407.69,4.74L415.05,1.82L417.61,3.01Z" class="land" id="DZ" title="Algeria"/>
    <path d="M642.2,184.86L640.36,188.43L633.49,188.56L633.13,184.22L636.61,177.97L641.04,176.24L643,179.94L639.4,183.15Z" class="land" id="DJ" title="Djibouti"/>
    <path d="M235.08,159.84L233.48,160.17L233.57,157.96Z" class="land" id="CV" title="Cape Verde"/>
    <path d="M643.42,351.49L642.01,350.42L642.98,349.44Z" class="land" id="KM" title="Comoros"/>
    <path d="M492.21,241.99L488.95,252.42L487.92,258.79L487,270.65L481.62,275.47L477.52,282.24L477.06,291.4L468.61,301.23L466.05,297.34L460.23,301.17L458.13,299.73L453.9,299.62L451.64,302.36L446.21,294.61L451.17,290.36L448.74,286.93L448.98,283.81L457.7,283.21L464.43,284.3L466.26,280.19L466.87,271.14L463.05,268.19L463.21,265.39L466.59,260.97L465.02,256.99L459.45,257.91L459.56,251.36L466.88,251.41L474.61,253.11L477.32,250.59L480.3,241.58L485,240.52Z" class="land" id="CG" title="Republic of Congo"/>
    <path d="M546.17,230.38L551.07,235.78L556.96,235.51L560.18,234.1L563.41,238.4L567.4,241.9L566.77,249.27L570.01,252.19L561.98,260.91L560.61,266.05L559.72,276.62L556.96,279.98L556.22,286.1L557.5,288.48L557.44,294.58L558.51,298.41L558.09,302.21L559.58,306.97L558.84,309.63L560.19,313.84L563.82,318.02L566.38,325.07L555.43,327L551.82,332.42L553.13,336.74L553.04,342.71L551.17,348.51L555.32,354.68L559.83,353.3L559.56,362.13L554.8,361.96L550.98,355.63L542.49,351.47L536.85,351.41L532.76,349.51L531.81,346.8L527.71,348.19L524.42,344.15L523.59,345.16L515.8,345.47L514.15,339.79L511.42,334.16L512.08,328.63L511.27,318.74L504.25,318.55L503.51,315.97L497.64,317.6L496.42,323.45L485.34,324.23L482.02,318.4L480.45,311.17L478,308.5L458.06,308.49L454.02,309.35L452.81,307.73L454.73,303.39L458.13,299.73L460.23,301.17L466.05,297.34L468.61,301.23L477.06,291.4L477.52,282.24L481.62,275.47L487,270.65L487.92,258.79L488.95,252.42L492.21,241.99L491.92,236.44L494.97,231.93L498.75,230.29L504.14,234.98L515.62,237.31L517.64,233.67L521.7,233.56L527.23,231.2L532.94,230.98L534.61,228.94L542.6,230.72Z" class="land" id="CD" title="Democratic Republic of Congo"/>
    <path d="M472.77,213.19L471.35,215.04L467.57,225L468.19,233.54L470.8,239.51L476.57,246.05L477.32,250.59L474.61,253.11L466.88,251.41L459.56,251.36L459.1,250.69L447.59,250.38L447.47,251.32L439.17,251.32L438.07,250.35L438.52,243.19L435.73,238.83L433.12,237.63L430.37,232.9L433.44,223.97L440.05,216.94L442.89,216.47L446.27,220.92L448.71,219.08L453.83,205.55L456.29,203.48L457,199.64L462.76,187.42L466.81,184.92L467.16,180.52L464.51,178.55L463.62,173.6L466.39,174.31L469.96,182.4L470.39,190.93L472.96,195.83L465.01,195.69L463.4,197.74L465.61,201.23L470.47,205.83Z" class="land" id="CM" title="Cameroon"/>
    <path d="M343.98,192.51L349.46,197.59L358.05,196.29L361.28,199.24L362.43,208.31L360.68,210.28L357.93,218.29L358.14,221.56L360.62,229.85L359.24,230.23L352.99,229.52L343.6,230.52L331.42,235.78L332.01,225.17L329.35,222.37L324.97,220.42L326.87,216.39L325.73,212.94L327.28,212.95L329.82,206.47L328.87,194.39L330.9,192.5L334.3,194.1L339.48,190.39L340.85,194.16Z" class="land" id="CI" title="Côte d'Ivoire"/>
    <path d="M517.64,189L522.61,196.81L522.07,203.98L525.82,205.06L526.75,207.72L530.22,208.82L533.54,214.54L539.63,219.51L540.62,223.55L544.15,225.63L546.17,230.38L542.6,230.72L534.61,228.94L532.94,230.98L527.23,231.2L521.7,233.56L517.64,233.67L515.62,237.31L504.14,234.98L498.75,230.29L494.97,231.93L491.92,236.44L492.21,241.99L485,240.52L480.3,241.58L477.32,250.59L476.57,246.05L470.8,239.51L468.19,233.54L467.57,225L471.35,215.04L472.77,213.19L478.27,212.05L480.78,213L486.05,209.91L490.98,209.57L494.94,205.12L495.13,202.56L502.45,201.77L505.06,199.78L510.78,192.94L515.39,188.45Z" class="land" id="CF" title="Central African Republic"/>
    <path d="M530.88,393.55L535.9,406.02L544.83,413.11L544.47,416.93L546.56,420.57L552.44,422.28L554.26,425.02L547.14,428.59L540.45,434.54L538.31,439.67L532.6,443.3L530.31,449.45L525.25,450.97L516.61,447.02L514.24,448.39L512.6,452.79L506.42,458.4L501.04,458.36L501.76,453.14L499.26,445.33L497.16,443.51L497.9,423.63L503.87,423.63L504.8,397.3L518.95,395.22L520.55,398.26L525.38,394.87Z" class="land" id="BW" title="Botswana"/>
    <path d="M379.12,160.52L378.79,163.48L381.56,169.14L383.76,170.23L383.82,173.86L387.35,176.76L389.74,176.25L392.39,182.03L389.9,185.44L386.51,185.23L383.3,188.47L377.37,187.6L374.78,188.37L360.48,188.43L361.28,199.24L358.05,196.29L349.46,197.59L343.98,192.51L345.47,182.52L350.74,178.88L351.38,173.31L355.97,172.78L362.82,165.07L367.02,163.56L373.16,159.55Z" class="land" id="BF" title="Burkina Faso"/>
    <path d="M399.77,183.46L399.12,185.6L401.26,191.22L396.45,202.07L394.8,202.33L394.27,210.7L394.41,221.41L387.76,222.5L387.6,202.32L385.94,195.57L382.57,192.98L383.3,188.47L386.51,185.23L389.9,185.44L392.39,182.03L395.37,178.67Z" class="land" id="BJ" title="Benin"/>
    <path d="M565.7,283.82L565.44,287.51L567.11,290.05L563.1,295.82L558.51,298.41L557.44,294.58L557.5,288.48L556.22,286.1L561.47,286.08L561.87,283.39Z" class="land" id="BI" title="Burundi"/>
    <path d="M452.81,307.73L451.64,302.36L453.9,299.62L458.13,299.73L454.73,303.39ZM524.42,344.15L524.32,355.21L523.32,359.33L511.94,359.33L511.4,380.42L512.31,385L519.54,392.45L507.55,395.03L491.9,393.35L489.36,390.73L480.37,390.67L462.33,390.66L457.3,387.64L453.92,389.4L449.03,389.66L449.23,379.54L450.58,378.12L454.35,362.45L457.06,357.73L459.73,355.9L462.05,350.86L462.5,345.46L457.45,331.16L459.83,326.32L453.34,310.11L458.06,308.49L478,308.5L480.45,311.17L482.02,318.4L485.34,324.23L496.42,323.45L497.64,317.6L503.51,315.97L504.25,318.55L511.27,318.74L512.08,328.63L511.42,334.16L514.15,339.79L515.8,345.47L523.59,345.16Z" class="land" id="AO" title="Angola"/>
  </g>
</svg>