<?xml version="1.0" encoding="UTF-8"?>
<svg xmlns="http://www.w3.org/2000/svg" width="391.51" height="520" viewBox="284.24 -2.5 391.51 520">
  <!-- Created using SVG Map Generator: dojo.amcharts.com/svg-map-generator -->
  <style>
    .land { fill: #ffffff; stroke: #000000; stroke-width: 0.5; }
  </style>
  <g id="polygons">
    <path d="M498.04,119.09L497.82,119.17L497.24,118.54L497.72,118.41Z" class="land" id="AW" title="Aruba"/>
    <path d="M541.06,92.21L540.34,92.35L540.63,91.44Z" class="land" id="AG" title="Antigua and Barbuda"/>
    <path d="M535.29,85.26L534.47,85.56L534.52,85.39L535.19,84.98Z" class="land" id="AI" title="Anguilla"/>
    <path d="M539.46,322.16L544.31,327.74L548.48,331.11L554.32,333.1L557.13,335.22L565.22,339.24L566.56,340.82L564.26,346.57L564.5,348.03L562.8,350.98L565.11,351.82L573.76,353.47L574.91,352.1L577.17,352.65L578.28,350.26L581.21,347.46L581.23,341.82L584.84,342.37L586.3,345.64L586.11,350.92L581.59,353.45L580.5,355.31L577.72,357.3L572.95,365.48L570.2,368.98L568.95,379.2L569.4,382.42L570.01,385.29L568.94,386.19L568.89,389.43L571.17,395.43L576.34,398.4L577.51,404.01L580.49,405.66L581.05,408.16L578.6,413.4L578.27,415.39L575.69,417.44L568.43,419.8L562.6,420.7L558.04,420.27L558.67,422.93L558.23,425.98L559.01,431.78L556.69,433.06L552.96,433.29L547.5,431.34L546.29,431.72L548.14,438.07L551.74,440.76L555.5,440.6L555.61,442.92L553.68,443.24L550.82,441.33L549.41,442.65L552.57,444.39L549.5,447.7L550.4,452.6L549.95,455.66L547.37,455.41L544.41,457.1L542.75,461.21L543.33,463.36L547.96,467.15L551.61,467.65L553.19,469.09L553.84,472.5L549.53,476.41L547.7,479.93L548.34,483.4L544.17,486.36L543.91,489.56L546.08,493.42L550.01,497.46L542.72,495.51L534.12,495.4L531.1,492.89L530.44,489.34L528.83,487.63L526.25,488.37L523.52,484.91L522.14,481.84L524.93,477.35L525.3,474.92L523.67,472.13L525.21,468.27L525.06,464.7L523.24,459.79L524.31,456.95L522.78,455.5L523.64,452.39L520.77,452.06L520.67,449.44L517.01,443.99L516.01,439.98L517.38,438.83L515.99,436.21L514.44,430.62L515.01,428.54L513.87,424.46L514.31,420.66L516.18,419.21L513.82,413.5L512.69,406.23L515.18,403.52L513.93,399.2L514.06,395.72L515.53,392.73L514.81,387.87L513.6,387.13L511.97,382.42L508.96,377.11L508.82,374.63L509.79,370.46L510.69,369.98L509.29,363.89L510.18,358.53L512.06,355.65L512.94,351.11L515.26,350.37L513.66,347.37L514.16,345.22L512.67,341.29L513.4,338.98L512.32,337.48L513.48,334.86L517.59,332.75L518.51,326.68L517.46,325.62L519.41,322.06L522.17,319.82L523.97,321.37L529.81,322.14L531.33,325.26L532.81,321.22L538.36,320.77ZM553.94,511.33L549.76,499.11L554.2,504.19L558.22,506.88L568.19,511.46L563.48,512.31L561.48,511.72Z" class="land" id="AR" title="Argentina"/>
    <path d="M470.83,40.1L471.5,36.65L472.16,37.57L471.44,38.12Z" class="land" id="BS" title="Bahamas"/>
    <path d="M535.94,87.29L535.8,87.04L536.12,87.1Z" class="land" id="BL" title="Saint Barthelemy"/>
    <path d="M404.8,98.94L403.09,98.92L404.84,87.65L406.72,86.76L409.65,83.79L410.37,85.85L409.11,88.85L408.2,94.59Z" class="land" id="BZ" title="Belize"/>
    <path d="M560.41,310L560.11,307.97L555.3,304.84L550.76,304.91L542.27,306.95L540.24,312.34L540.55,315.3L539.46,322.16L538.36,320.77L532.81,321.22L531.33,325.26L529.81,322.14L523.97,321.37L522.17,319.82L519.41,322.06L517.46,325.62L514.09,325.63L511.42,316.68L509.45,312.63L508.13,311.73L507.88,307.4L508.86,305.7L506.06,302.98L504.87,297.59L502.48,294.39L501.74,292.6L504.44,289.32L501.9,283.23L502.94,281.08L501.8,279.48L503.91,275L502.7,271.97L502.83,267.27L504.15,265.06L499.07,255.98L505.03,256.37L506.56,254.52L508.95,253.37L513.07,250.26L519.7,248.72L520.22,257.7L522.48,261.97L525.52,264.69L532.39,266.03L534.03,267.96L537.04,268.76L539.13,271.05L542.68,270.84L545.66,272.6L547.04,277.46L548.38,287.14L556.58,287.48L557.71,292.8L560.65,294.43L562.31,298.93L561.6,303.64L560.31,307.53Z" class="land" id="BO" title="Bolivia"/>
    <path d="M563.34,180.57L565.14,178.49L570.84,176.77L572.79,178.33L575.24,179.53L577.08,178.16L581.13,179.16L582.47,178.11L586.16,170.29L587.9,168.19L590.08,168L590.86,172.74L592.77,179.47L593.77,181.23L596.3,182.22L596.57,185.13L594.57,187.04L591.92,190.92L589.57,192.42L587.45,196.38L586.24,201.2L591.43,198.44L592.6,202.22L594.06,203.71L597.51,203.19L599.55,202.05L601.18,202.62L605.58,196.24L609.2,195.59L612.17,196.48L618.07,199.81L620.95,200.5L623.11,202.13L624.87,206.75L625.86,207.11L631.8,206.34L635.29,208.25L637.17,207.98L640,209.09L644.25,208.27L646.83,208.65L654.4,213.66L656.59,216.57L661.06,220.64L664.03,221.73L669.28,221.91L670.91,224.47L673.26,234.54L673.19,238.54L670.82,245.9L665.71,253.24L663.06,255.21L660.81,259.17L659.55,262.7L656.95,267.06L654.19,266.7L652.87,271.42L653.72,274.01L653.3,277.67L654.54,284.76L653.31,293.28L653.74,295.55L652.18,297.23L651.15,301.05L651.58,304.8L648.62,312.38L646.81,314.36L645.78,317.88L645.66,321.29L642.88,322.61L641.51,326.36L634.21,326.94L632.5,326.14L628.77,327L625.23,330.7L622.58,331.35L618.42,333.94L613.89,338.42L611.11,343.24L611.01,348.46L611.93,351.36L612.18,356.54L611.65,359.48L607.61,364.12L605.72,370.38L601.53,370.01L600.58,374.07L598.4,376.02L598.29,380.63L596.6,386.34L593.7,389.89L592.42,386.53L593.99,383.98L591.41,382.01L590.35,379.98L585.89,376.61L582.45,375.09L580.7,373.03L579.34,374.17L577.5,371.57L573.89,368.5L570.2,368.98L572.95,365.48L577.72,357.3L580.5,355.31L581.59,353.45L586.11,350.92L586.3,345.64L584.84,342.37L581.23,341.82L582.07,332.83L580.03,331.45L576.5,332.5L573.08,322.6L569.63,321.39L567.69,322.38L562.37,321.06L562.51,314.9L560.41,310L560.31,307.53L561.6,303.64L562.31,298.93L560.65,294.43L557.71,292.8L556.58,287.48L548.38,287.14L547.04,277.46L545.66,272.6L542.68,270.84L539.13,271.05L537.04,268.76L534.03,267.96L532.39,266.03L525.52,264.69L522.48,261.97L520.22,257.7L519.7,248.72L513.07,250.26L508.95,253.37L506.56,254.52L505.03,256.37L499.07,255.98L493.75,256.32L493.26,247.35L490.39,250.21L485.66,250.43L484.5,247.54L480.29,246.96L481.34,244.51L478.25,240.73L475.75,236.11L476.97,234.82L476.82,232.3L479.85,229.73L479.28,227.58L480.47,224.87L480.85,221.87L486.01,218.26L490.38,217.36L491.24,216.32L495.46,216.69L498.04,198.91L496.67,194.75L494.63,192.74L494.72,188.55L499.23,186.88L498.23,185.71L495.75,185.73L495.8,181.94L504.25,181.87L508.44,179.73L510.8,184.78L513.04,187.12L519.75,185.45L524.77,182.46L525.18,180.79L528.44,178.94L525.78,177.59L524.36,173.19L524.38,170.96L522.67,169.13L529.1,169L530.71,170.92L532.05,168.44L534.88,167.97L540.74,165.41L542.82,162.73L542.15,161.52L545.19,161.3L545.93,162.21L545.24,165.56L546.64,165.76L548,168.93L546.43,170.96L545.65,176.2L546.83,178.63L546.8,180.82L549.43,183.89L551.29,184.89L553.94,182.65L557.71,181.96L560.13,180.15ZM597.92,193.27L600.51,192.88L604.24,193.99L601.48,200.59L598.16,201.94L593.52,202.38L592.23,199.18L592.79,193.52L594.79,192.61ZM586.81,200.31L588.24,195.72L589.61,197.9Z" class="land" id="BR" title="Brazil"/>
    <path d="M550.47,115.4L549.88,115.28L550.06,114.02L550.82,114.99Z" class="land" id="BB" title="Barbados"/>
    <path d="M517.46,325.62L518.51,326.68L517.59,332.75L513.48,334.86L512.32,337.48L513.4,338.98L512.67,341.29L514.16,345.22L513.66,347.37L515.26,350.37L512.94,351.11L512.06,355.65L510.18,358.53L509.29,363.89L510.69,369.98L509.79,370.46L508.82,374.63L508.96,377.11L511.97,382.42L513.6,387.13L514.81,387.87L515.53,392.73L514.06,395.72L513.93,399.2L515.18,403.52L512.69,406.23L513.82,413.5L516.18,419.21L514.31,420.66L513.87,424.46L515.01,428.54L514.44,430.62L515.99,436.21L517.38,438.83L516.01,439.98L517.01,443.99L520.67,449.44L520.77,452.06L523.64,452.39L522.78,455.5L524.31,456.95L523.24,459.79L525.06,464.7L525.21,468.27L523.67,472.13L525.3,474.92L524.93,477.35L522.14,481.84L523.52,484.91L526.25,488.37L528.83,487.63L530.44,489.34L531.1,492.89L534.12,495.4L542.72,495.51L550.01,497.46L546.24,496.61L545.26,497.82L540.56,499.76L541.7,505.38L536.3,504.56L538.6,501.65L531.7,502.4L526.28,499.04L527.23,495.69L524.72,494.25L524.15,491.71L519.57,490.2L517.57,488.05L519.54,484.05L516.85,476.23L513.77,471.13L514.69,466.97L507.24,464.88L509.73,462.29L508.58,460.66L512.5,460.04L514.76,458.41L514.74,455.49L517.17,454.09L517.01,452.36L513.81,450.82L514.15,447.71L512.97,439.99L513.78,438.13L510.72,435.59L508.77,437.06L505.65,433.11L505.44,427.07L506.23,422.06L501.99,413.12L501.57,410.13L503.36,410.01L504.04,400.73L505.31,397.85L505.2,392.38L506.19,389.37L505.15,386.09L506.03,383.52L503.33,374.75L502.38,369.82L503.48,368.71L503.38,365.81L501.64,361.55L502.71,358.32L503.4,346.26L502.58,343.05L503.36,339.45L502.28,336.34L501.99,331.27L501.04,327L502.02,325.78L502.21,317.81L501.12,313.3L500.74,307.89L498.46,299.32L500.83,298.5L500.9,295.55L502.48,294.39L504.87,297.59L506.06,302.98L508.86,305.7L507.88,307.4L508.13,311.73L509.45,312.63L511.42,316.68L514.09,325.63ZM510.11,446.05L507.31,445.58L506.39,437.05L508.9,437.64L510.99,443.68ZM512.05,452.12L511.08,452.7L513.32,456.31L511.99,457.49L508.45,453.59ZM517.3,479.37L518.53,484.15L515.01,483.34L514.03,479ZM549.76,499.11L553.94,511.33L549.06,510.55L545.94,511.08L543.25,508.48L542.47,505.96L544.9,503.38L542.82,501.2L544.98,499.55ZM532.75,503.73L536.53,505.54L532.06,506.3ZM549.57,511.69L556.33,513.54L556.82,515L551.88,514.58Z" class="land" id="CL" title="Chile"/>
    <path d="M490.67,122.55L487.39,123.69L485.75,126.44L483.4,128.55L481.43,134.68L479.49,137.97L482.27,138.66L483.97,142.92L483.59,148.34L485.31,150.44L490.68,151.03L492.51,150.52L495.3,151.36L498.43,156.06L503.32,155.93L506.43,155.16L508.5,156.7L506.42,161.11L506.15,165.58L507.04,169.34L508.76,171.96L506.06,175.02L509.17,177.96L510.8,184.78L508.44,179.73L504.25,181.87L495.8,181.94L495.75,185.73L498.23,185.71L499.23,186.88L494.72,188.55L494.63,192.74L496.67,194.75L498.04,198.91L495.46,216.69L493.51,214.22L491.51,214.03L494.74,208L490.45,204.9L488.02,205.57L486.21,204.51L482.98,206.12L479.14,205.24L478.89,202.63L477.37,201.82L476.5,199.23L473.55,197.6L470.73,193.1L468.29,192.55L463.1,189.3L462.17,190.55L457.49,189.44L457.26,188.21L453.01,185.81L450.26,183.42L451.71,181.56L451.55,178.44L454.07,177.38L456.38,175.1L459.05,169.35L457.76,168.19L458.58,164.32L458.12,160.26L458.96,158.14L457.94,155.81L458.56,153.9L456.02,149.66L456.89,147.86L458.92,146.87L459.71,144.95L459.09,141.3L461.52,141.53L464.71,139.37L465.52,137.75L468.08,136.67L468.18,132.3L469.46,129.87L472.67,126.95L474.59,127.66L476.71,125.6L480.44,125.86L485.89,122.39L488.92,119.28L491.15,119.78Z" class="land" id="CO" title="Colombia"/>
    <path d="M428.39,128.08L429.18,130.72L432.23,135.38L433.28,135.92L431.34,136.67L431.17,144.74L429.91,141.71L427.05,141.56L427.68,139.09L426.47,137.68L422.76,135.51L420.45,135.9L418,134.02L417.17,131.12L417.89,127.23L418.56,126.51L422.04,127.91L424.87,127.71L425.69,128.88Z" class="land" id="CR" title="Costa Rica"/>
    <path d="M445.59,56.23L451.39,56.58L455.87,58.7L457.56,60.67L460.43,60.91L464.09,63.65L465.89,63.82L469.62,67.27L474.06,68.29L474.17,70.51L477.87,71L480.57,74.35L476.16,75.4L471.06,74.88L463.24,75.67L466.06,73.05L466.24,71.03L462.49,70.62L460.32,68.63L459.97,65.91L453.86,64.58L451.22,62.69L444.84,61.89L444.83,59.07L440.72,59.01L437.14,61.75L432.33,62.63L434.26,59.15L438.42,57.37Z" class="land" id="CU" title="Cuba"/>
    <path d="M503.64,121.39L503.38,121.47L502.45,120.91L501.72,119.99L502.12,119.73L502.4,120.38L503.3,120.81Z" class="land" id="CW" title="Curaçao"/>
    <path d="M444.73,78.64L445.16,78.56L445.92,78.65L445,79.09Z" class="land" id="KY" title="Cayman Islands"/>
    <path d="M542.39,102.7L541.52,101.08L542.35,100.73Z" class="land" id="DM" title="Dominica"/>
    <path d="M491.56,86.33L492.81,79.92L492.59,76.47L493.81,75.43L496.82,75.32L500.72,76.95L502.44,78.93L507.43,81.25L508.82,83.4L507.14,85.26L505.88,84.17L501.75,83.96L499.58,85.08L495.39,84.96L493.18,88.64Z" class="land" id="DO" title="Dominican Republic"/>
    <path d="M468.29,192.55L468.4,195.17L466.88,200.88L464.3,204.4L461.36,206.91L455.43,209.36L453.03,211.98L452.71,214L449.59,221.1L448.29,220.73L446.66,217.97L442.19,215.72L443.84,214.59L443.03,211.73L445.03,209.99L445.95,207L442.32,207.28L440.65,204.06L439.92,198.23L441.67,196.88L442.03,194.08L443.79,191.96L444.03,187.34L445.79,186.2L450.05,184.88L450.26,183.42L453.01,185.81L457.26,188.21L457.49,189.44L462.17,190.55L463.1,189.3Z" class="land" id="EC" title="Ecuador"/>
    <path d="M584.13,492.44L588.55,492.25L586.56,495.29ZM590.13,491.36L595.27,493.83L590.63,496.43Z" class="land" id="FK" title="Falkland Islands"/>
    <path d="M542.61,96.95L541.64,96.96L541.7,95.75L542.33,95.55Z" class="land" id="GP" title="Guadeloupe"/>
    <path d="M538.94,121.66L539,120.66L539.56,120.43L539.4,121.42Z" class="land" id="GD" title="Grenada"/>
    <path d="M404.84,87.65L403.09,98.92L404.8,98.94L408.02,99.88L402.49,104.95L401.51,107.58L397.44,111.56L394.99,110.44L392.29,110.46L389.1,108.68L387.22,106.83L388.36,103.72L387.97,102.28L390.73,97.88L397.17,97.87L397.54,96L393.22,90.93L395.29,90.95L395.74,87.64Z" class="land" id="GT" title="Guatemala"/>
    <path d="M587.9,168.19L586.16,170.29L582.47,178.11L581.13,179.16L577.08,178.16L575.24,179.53L572.79,178.33L574.95,175.45L576.05,170.94L574.27,168.23L573.87,162.62L575.41,160.6L577.03,158.12L581.76,160.21L584.77,163.04Z" class="land" id="GF" title="French Guiana"/>
    <path d="M560.1,159.49L559.34,162.58L557.42,162.75L555.59,167.54L562.23,180.02L563.34,180.57L560.13,180.15L557.71,181.96L553.94,182.65L551.29,184.89L549.43,183.89L546.8,180.82L546.83,178.63L545.65,176.2L546.43,170.96L548,168.93L546.64,165.76L545.24,165.56L545.93,162.21L545.19,161.3L542.15,161.52L539.06,157.39L540.37,155.6L540.37,152.79L544.2,151.32L542.68,148.08L543.79,146.24L546.27,144.84L546.46,141.94L550.46,144.71L553.24,147.81L553.87,150.78L556.34,152.25L560.21,156.28Z" class="land" id="GY" title="Guyana"/>
    <path d="M432.9,104.2L427.96,105.74L423.62,105.61L419.08,110.93L417.34,110.05L414.29,111.41L414.16,114.04L410.84,116L408.67,113.54L409.4,111.12L407.32,110.1L405.75,110.9L402.99,108.09L401.51,107.58L402.49,104.95L408.02,99.88L411.18,98.83L414.64,99.69L417.4,99.57L420.4,98.28L424.44,98.35L427.89,99.34L430.02,102.87Z" class="land" id="HN" title="Honduras"/>
    <path d="M492.59,76.47L492.81,79.92L491.56,86.33L490.23,85.22L486.11,85.67L483.65,85.09L481.03,86.32L478.57,84.53L479.73,82.67L486.73,84.01L489.08,82.6L487.04,80.27L488.46,75.4Z" class="land" id="HT" title="Haiti"/>
    <path d="M464.51,83.88L468.83,85.67L463.59,87.54L461.6,87.28L459.75,83.93Z" class="land" id="JM" title="Jamaica"/>
    <path d="M536.61,91.02L535.62,90.44L535.88,90.07L536.25,90.36Z" class="land" id="KN" title="Saint Kitts and Nevis"/>
    <path d="M543.73,111.06L542.92,110.51L543.84,109.96Z" class="land" id="LC" title="Saint Lucia"/>
    <path d="M535.15,86.16L534.6,86.16L534.92,85.88Z" class="land" id="MF" title="Saint Martin"/>
    <path d="M409.65,83.79L406.72,86.76L404.84,87.65L395.74,87.64L395.29,90.95L393.22,90.93L397.54,96L397.17,97.87L390.73,97.88L387.97,102.28L388.36,103.72L387.22,106.83L384.74,103.35L379.84,97.98L375.19,95.85L372.05,98.45L366.59,100.34L363.41,98.83L360.61,98.49L357.04,96.51L356.01,95.16L351.53,94.07L346.14,91.25L342.78,88.61L341.78,87.02L337.66,86.19L334.2,84.65L332.32,81.7L327.68,78.87L325.65,74.96L325.14,72.55L328.05,68.24L328.59,66.06L326.96,63.14L326.98,59.37L324.64,56.03L322.84,52L318.78,47.69L317.46,44.28L313.23,41.14L314.93,37.74L312.4,33.18L310.16,31.75L310.71,28.56L307.99,27.95L304.57,21.76L303.36,16.07L302.93,11.31L303.91,9.04L299.17,7.11L296.38,5.39L295.02,9.17L294.54,14.58L295.19,16.98L297.41,19.71L297.93,22.3L300.19,25.26L299.92,28.78L301.43,30.57L302.16,33.84L303.93,35.37L303.98,40.77L305.63,46.66L305.51,50.04L308.04,50.28L310.12,54.36L309.61,55.92L306.92,57.85L305.64,53.63L298.85,46.36L299.82,42.55L299.27,38.28L296.66,36.1L294.04,35.29L290.66,32.36L288.78,29.31L292.37,28.51L294.47,25.25L291.44,19.61L288.77,17.42L288.71,11.25L287.18,6.77L286.74,1.07L298.61,0L297.7,1.22L305.73,4.7L313.82,8.19L327.45,8.16L328.22,5.51L336.66,5.56L337.24,6.89L342.13,12.55L343.06,18.49L347.74,21.87L349.83,20.6L351.24,18.08L353.83,16.74L357.7,17.3L360.45,21.47L361.16,25.83L363.94,30.42L363.57,33.43L364.44,36.9L372.28,40.29L372.58,41.98L369,49.01L366.1,59.39L366.13,65.39L367.71,71.2L370.31,75.58L370.66,78.67L372.47,82.13L375.6,82.45L378.32,85.53L383.48,84.04L386.83,83.81L391.56,82.36L392.21,83.8L394.96,82.89L394.84,81.27L398.22,78.62L399.85,75.34L401.58,68.89L404.46,67.33L413.12,65.32L419.41,66.47L418.74,69.62L415.08,74.22L414.86,77.26L412.28,83.94Z" class="land" id="MX" title="Mexico"/>
    <path d="M538.76,93.95L538.7,94.3L538.38,94.19L538.4,93.89Z" class="land" id="MS" title="Montserrat"/>
    <path d="M544.34,107.12L543.14,107.28L542.51,105.31L543.98,105.71Z" class="land" id="MQ" title="Martinique"/>
    <path d="M432.9,104.2L432.37,108.03L431.05,110.04L429.91,114L429.74,119.33L428.21,122.14L427.42,125.84L428.39,128.08L425.69,128.88L424.87,127.71L422.04,127.91L418.56,126.51L417.89,127.23L414.57,123.27L413.33,120.82L409.14,116.44L410.84,116L414.16,114.04L414.29,111.41L417.34,110.05L419.08,110.93L423.62,105.61L427.96,105.74Z" class="land" id="NI" title="Nicaragua"/>
    <path d="M459.09,141.3L459.71,144.95L458.92,146.87L456.89,147.86L456.02,149.66L453.63,144.8L455.27,142.93L450.57,139.32L448.79,139.27L447.1,141.67L443.89,143.46L443.37,144.7L445.18,147.1L443.24,149.39L441.17,149.71L440.36,146.84L438,146.78L437,144.35L432.26,143.27L431.17,144.74L431.34,136.67L433.28,135.92L434.69,139.11L439.08,140.58L441.72,139.96L445.41,138.07L448.31,135.8L453.64,136.92L455.71,137.92Z" class="land" id="PA" title="Panama"/>
    <path d="M495.46,216.69L491.24,216.32L490.38,217.36L486.01,218.26L480.85,221.87L480.47,224.87L479.28,227.58L479.85,229.73L476.82,232.3L476.97,234.82L475.75,236.11L478.25,240.73L481.34,244.51L480.29,246.96L484.5,247.54L485.66,250.43L490.39,250.21L493.26,247.35L493.75,256.32L499.07,255.98L504.15,265.06L502.83,267.27L502.7,271.97L503.91,275L501.8,279.48L502.94,281.08L501.9,283.23L504.44,289.32L501.74,292.6L502.48,294.39L500.9,295.55L500.83,298.5L498.46,299.32L493.49,295.43L492.29,293.15L487.28,289.71L480.19,286.46L473.39,282.11L470.97,279.1L468.83,277.55L466.79,274.61L467.01,270.99L463.21,264.16L461.48,262.47L460.97,260.14L458.74,257.95L458.04,255.3L455.49,250.93L452.08,242.31L448.75,237.74L446.59,233.24L444.73,230.8L441.1,228.65L439.34,221.32L438.12,219.22L438.33,217.19L440.69,213.74L443.03,211.73L443.84,214.59L442.19,215.72L446.66,217.97L448.29,220.73L449.59,221.1L452.71,214L453.03,211.98L455.43,209.36L461.36,206.91L464.3,204.4L466.88,200.88L468.4,195.17L468.29,192.55L470.73,193.1L473.55,197.6L476.5,199.23L477.37,201.82L478.89,202.63L479.14,205.24L482.98,206.12L486.21,204.51L488.02,205.57L490.45,204.9L494.74,208L491.51,214.03L493.51,214.22Z" class="land" id="PE" title="Peru"/>
    <path d="M519.85,83.95L520.37,86.71L514.28,86.6L514.77,83.63Z" class="land" id="PR" title="Puerto Rico"/>
    <path d="M560.41,310L562.51,314.9L562.37,321.06L567.69,322.38L569.63,321.39L573.08,322.6L576.5,332.5L580.03,331.45L582.07,332.83L581.23,341.82L581.21,347.46L578.28,350.26L577.17,352.65L574.91,352.1L573.76,353.47L565.11,351.82L562.8,350.98L564.5,348.03L564.26,346.57L566.56,340.82L565.22,339.24L557.13,335.22L554.32,333.1L548.48,331.11L544.31,327.74L539.46,322.16L540.55,315.3L540.24,312.34L542.27,306.95L550.76,304.91L555.3,304.84L560.11,307.97Z" class="land" id="PY" title="Paraguay"/>
    <path d="M401.51,107.58L402.99,108.09L405.75,110.9L407.32,110.1L409.4,111.12L408.67,113.54L407.97,114.82L405.06,114.8L397.44,111.56Z" class="land" id="SV" title="El Salvador"/>
    <path d="M575.41,160.6L573.87,162.62L574.27,168.23L576.05,170.94L574.95,175.45L572.79,178.33L570.84,176.77L565.14,178.49L563.34,180.57L562.23,180.02L555.59,167.54L557.42,162.75L559.34,162.58L560.1,159.49L561.31,156.89L566.47,158.04L567.06,157.07L572.08,156.92L575.99,157.97Z" class="land" id="SR" title="Suriname"/>
    <path d="M534.6,86.16L535.15,86.16L535.07,86.45Z" class="land" id="SX" title="Sint Maarten"/>
    <path d="M494.63,64.45L493.82,64.3L493.98,63.93L494.65,64.04Z" class="land" id="TC" title="Turks and Caicos Islands"/>
    <path d="M541.87,132.66L539.46,131.87L541.92,129.53Z" class="land" id="TT" title="Trinidad and Tobago"/>
    <path d="M593.7,389.89L592.31,393.65L590.75,395.35L587.51,396.89L583.69,395.97L581.7,396.75L576.24,394.07L573.13,394.22L569.84,390.89L569.42,387.06L570.37,384.9L569.4,382.42L568.95,379.2L570.2,368.98L573.89,368.5L577.5,371.57L579.34,374.17L580.7,373.03L582.45,375.09L585.89,376.61L590.35,379.98L591.41,382.01L593.99,383.98L592.42,386.53Z" class="land" id="UY" title="Uruguay"/>
    <path d="M542.07,114.96L541.57,114.65L542.11,113.79L542.37,114.16Z" class="land" id="VC" title="Saint Vincent and the Grenadines"/>
    <path d="M546.46,141.94L546.27,144.84L543.79,146.24L542.68,148.08L544.2,151.32L540.37,152.79L540.37,155.6L539.06,157.39L542.15,161.52L542.82,162.73L540.74,165.41L534.88,167.97L532.05,168.44L530.71,170.92L529.1,169L522.67,169.13L524.38,170.96L524.36,173.19L525.78,177.59L528.44,178.94L525.18,180.79L524.77,182.46L519.75,185.45L513.04,187.12L510.8,184.78L509.17,177.96L506.06,175.02L508.76,171.96L507.04,169.34L506.15,165.58L506.42,161.11L508.5,156.7L506.43,155.16L503.32,155.93L498.43,156.06L495.3,151.36L492.51,150.52L490.68,151.03L485.31,150.44L483.59,148.34L483.97,142.92L482.27,138.66L479.49,137.97L481.43,134.68L483.4,128.55L485.75,126.44L487.39,123.69L490.67,122.55L487.35,125.17L488.84,129.6L485.94,134.53L487.85,138.88L489.82,138.56L491.24,135.17L489.74,131.9L489.58,127.8L495.94,125.41L495.87,122.41L497.4,120.7L499,124.78L503.02,125.07L505.08,126.65L505.7,130.12L507.49,130.69L515.71,129.75L517.57,131.94L522.56,132.87L527.65,129.56L533.56,129.06L532.75,131L534.33,132.42L542.76,137.19L541.38,138.74L539.94,142.75L542.52,141.69Z" class="land" id="VE" title="Venezuela"/>
    <path d="M528.49,83.83L528.36,83.55L528.87,83.52Z" class="land" id="VG" title="British Virgin Islands"/>
    <path d="M526.27,87.77L526.62,88.29L525.61,88.31L525.67,87.9Z" class="land" id="VI" title="US Virgin Islands"/>
    <path d="M506.41,120.89L506.02,120.73L505.63,120.23L505.65,119.97L506.38,120.38Z" class="land" id="BQ" title="Bonair, Saint Eustachius and Saba"/>
  </g>
</svg>